<?xml version="1.0" encoding="UTF-8"?>
<svg width="16px" height="16px" viewBox="0 0 16 16" version="1.1" xmlns="http://www.w3.org/2000/svg" xmlns:xlink="http://www.w3.org/1999/xlink">
    <title>arrow-right</title>
    <g id="arrow-right" stroke="none" stroke-width="1" fill="none" fill-rule="evenodd">
        <path d="M14.7388927,9.51452095 C14.9639439,9.28940864 15.0521094,8.95855041 14.9695745,8.64884305 C14.8870397,8.3391357 14.6466162,8.09865497 14.3405157,8.01963442 C14.0344152,7.94061387 13.7101536,8.03531983 13.4920976,8.26742895 L8.86276911,13.0398003 L8.86276911,0.888875283 C8.86276911,0.39796302 8.47104335,0 7.98782515,0 C7.50460694,0 7.11288118,0.39796302 7.11288118,0.888875283 L7.11288118,13.0353559 L2.4888024,8.26654007 C2.1482515,7.92589663 1.60165382,7.92589196 1.26109728,8.26652958 C0.920540752,8.6071672 0.91204151,9.16240097 1.24200726,9.51363207 L7.21174987,15.6690934 C7.41727401,15.8808102 7.69775536,16 7.99044998,16 C8.28314459,16 8.56362594,15.8808102 8.76915009,15.6690934 L14.7388927,9.51363207 L14.7388927,9.51452095 Z" id="Path" fill="#191C20" fill-rule="nonzero" transform="translate(8.000000, 8.000000) rotate(-90.000000) translate(-8.000000, -8.000000) "></path>
    </g>
</svg>