<?xml version="1.0" encoding="UTF-8"?>
<svg viewBox="0 0 16 14" version="1.1" xmlns="http://www.w3.org/2000/svg" xmlns:xlink="http://www.w3.org/1999/xlink">
<g stroke="none" stroke-width="1" fill="none" fill-rule="evenodd">
<path d="M14.7388927,8.51452095 C14.9639439,8.28940864 15.0521094,7.95855041 14.9695745,7.64884305 C14.8870397,7.3391357 14.6466162,7.09865497 14.3405157,7.01963442 C14.0344152,6.94061387 13.7101536,7.03531983 13.4920976,7.26742895 L8.86276911,12.0398003 L8.86276911,-0.111124717 C8.86276911,-0.60203698 8.47104335,-1 7.98782515,-1 C7.50460694,-1 7.11288118,-0.60203698 7.11288118,-0.111124717 L7.11288118,12.0353559 L2.4888024,7.26654007 C2.1482515,6.92589663 1.60165382,6.92589196 1.26109728,7.26652958 C0.920540752,7.6071672 0.91204151,8.16240097 1.24200726,8.51363207 L7.21174987,14.6690934 C7.41727401,14.8808102 7.69775536,15 7.99044998,15 C8.28314459,15 8.56362594,14.8808102 8.76915009,14.6690934 L14.7388927,8.51363207 L14.7388927,8.51452095 Z" fill="#1B1E22" fill-rule="nonzero" transform="translate(8.000000, 7.000000) rotate(-90.000000) translate(-8.000000, -7.000000) "></path>
</g>
</svg>