<?xml version="1.0" encoding="UTF-8"?>
<svg width="48px" height="48px" viewBox="0 0 48 48" version="1.1" xmlns="http://www.w3.org/2000/svg" xmlns:xlink="http://www.w3.org/1999/xlink">
    <title>icon-feature-04</title>
    <g id="icon-feature-04" stroke="none" stroke-width="1" fill="none" fill-rule="evenodd">
        <g id="Group-7" transform="translate(4.000000, 0.000000)">
            <path d="M40,6.064 L40,27.54 C40,35.992 35.032,42.572 21.16,47.584 L20,48 L19.336,47.76 L18.836,47.584 C4.968,42.572 0,35.992 0,27.54 L0,6.064 L2.032,6.132 L3.452,6.18 C3.792,6.192 4.144,6.196 4.54,6.196 C8.672,6.196 12.04,5.456 14.712,4.232 C16.24,3.532 17.328,2.752 17.592,2.46 L20.004,0 L21.408,1.44 L22.392,2.456 C22.732,2.796 23.748,3.516 25.3,4.228 C27.992,5.456 31.356,6.196 35.452,6.196 C35.848,6.196 36.2,6.192 36.54,6.18 L40,6.064 Z" id="Shape" fill="#3CFF85" fill-rule="nonzero"></path>
            <path d="M18.448,32.568 C22.576,23.788 30.604,17.168 30.604,17.168 L29.684,16.144 C23.26,19.344 16.612,26.184 16.612,26.184 L11.796,22.652 L9.392,24.588 L18.448,32.568 L18.448,32.568 Z" id="Path" fill="#191C20"></path>
        </g>
    </g>
</svg>