<?xml version="1.0" encoding="UTF-8"?>
<svg width="48px" height="48px" viewBox="0 0 48 48" version="1.1" xmlns="http://www.w3.org/2000/svg" xmlns:xlink="http://www.w3.org/1999/xlink">
    <title>icon-feature-03</title>
    <g id="icon-feature-03" stroke="none" stroke-width="1" fill="none" fill-rule="evenodd">
        <g id="Group-3" transform="translate(0.000000, 1.000000)" fill-rule="nonzero">
            <path d="M36.2807094,0.518715813 C35.5913394,-0.172905271 34.4883473,-0.172905271 33.7989773,0.518715813 L25.1129148,9.46137643 L21.0189299,9.46137643 C16.2393737,13.4029452 31.2793298,31.0447831 35.0570776,26.123899 L38.79691,23.5496979 L47.4829725,14.5932049 C48.1723425,13.9015838 48.1723425,12.7500347 47.4829725,12.0342069 L46.2421064,10.7408754 C45.5527364,10.0492544 44.4497443,10.0492544 43.7603743,10.7408754 L35.0570776,19.6973685 L28.835513,13.3137059 L37.5388097,4.35721283 C38.2281797,3.66559175 38.2281797,2.51058454 37.5388097,1.79821482 L36.2807094,0.518715813 Z" id="Path" fill="#3CFF85"></path>
            <path d="M26.0777375,9.05272597 L21.0464349,4.14705882 C16.1333162,7.99001973 13.918966,14.1417665 15.324214,20.0441176 C15.7458513,21.8546628 16.4403128,23.4157102 17.4324006,24.9835007 L0.531475629,41.5043042 C-0.177158543,42.1786227 -0.177158543,43.3081062 0.531475629,43.9992826 L3.08255865,46.4942611 C3.79119282,47.1685796 4.9250075,47.1685796 5.63364167,46.4942611 L22.5558257,29.9903156 C24.0935619,30.9343615 25.7694817,31.642396 27.5871283,32.0469871 C33.6955549,33.42934 40.002399,31.2479197 43.8857143,26.4501435 L40.1441259,22.788594 L36.2997855,19.0326399 L29.9043621,12.8086801 L26.0777375,9.05272597 Z" id="Path" fill="#FFFFFF"></path>
        </g>
    </g>
</svg>