<?xml version="1.0" encoding="UTF-8"?>
<svg width="48px" height="48px" viewBox="0 0 48 48" version="1.1" xmlns="http://www.w3.org/2000/svg" xmlns:xlink="http://www.w3.org/1999/xlink">
    <title>icon-feature-04</title>
    <g id="icon-feature-04" stroke="none" stroke-width="1" fill="none" fill-rule="evenodd">
        <path d="M24.004,-3.55271368e-15 L25.408,1.44 L26.392,2.456 C26.732,2.796 27.748,3.516 29.3,4.228 C31.992,5.456 35.356,6.196 39.452,6.196 C39.848,6.196 40.2,6.192 40.54,6.18 L44,6.064 L44,27.54 C44,35.992 39.032,42.572 25.16,47.584 L24,48 L23.336,47.76 L22.836,47.584 C8.968,42.572 4,35.992 4,27.54 L4,6.064 L6.032,6.132 L7.452,6.18 C7.792,6.192 8.144,6.196 8.54,6.196 C12.672,6.196 16.04,5.456 18.712,4.232 C20.24,3.532 21.328,2.752 21.592,2.46 L24.004,-3.55271368e-15 Z M33.684,16.144 C28.0506462,18.9501538 22.2450376,24.5554462 20.9012984,25.892703 L20.6859261,26.1087334 C20.6371759,26.158097 20.612,26.184 20.612,26.184 L15.796,22.652 L13.392,24.588 L22.448,32.568 C26.576,23.788 34.604,17.168 34.604,17.168 L33.684,16.144 Z" id="Combined-Shape" fill="#3CFF85" fill-rule="nonzero"></path>
    </g>
</svg>