<?xml version="1.0" encoding="UTF-8"?>
<svg width="48px" height="48px" viewBox="0 0 48 48" version="1.1" xmlns="http://www.w3.org/2000/svg" xmlns:xlink="http://www.w3.org/1999/xlink">
    <title>icon-feature-02</title>
    <g id="icon-feature-02" stroke="none" stroke-width="1" fill="none" fill-rule="evenodd">
        <g id="Group-6" transform="translate(1.000000, 0.000000)" fill-rule="nonzero">
            <path d="M9.83672926,43.5867038 C7.49835401,42.3174828 0.00919432048,37.3652023 0.00919432048,37.3652023 C0.00919432048,37.3652023 -0.363673903,33.8878842 3.63960133,34.8064758 C7.17860633,35.9002037 10.5897574,37.3730416 13.8139905,39.1994876 C16.2671392,39.9567209 18.8672787,40.1039144 21.3898638,39.6283568 C23.61173,39.1145138 25.7113615,38.1683719 27.569649,36.8436046 C28.6246638,35.7627382 28.5090457,34.667383 27.6158962,34.8151691 C24.0139639,35.3919934 20.354278,35.515622 16.7217847,35.1831852 C15.8284591,34.9238206 15.084374,34.3011204 14.6702092,33.4662895 C14.2560444,32.6314586 14.2096837,31.6608591 14.5423842,30.7901734 C17.3578256,30.5080647 20.1494568,30.0238615 22.895789,29.3412909 C28.7345009,28.0228078 30.1826171,27.107114 32.7059812,28.2401402 C36.7666746,30.5258344 41.1070787,32.2714543 45.6176279,33.4329351 C46.7788909,38.1454198 45.2501201,43.1156287 41.6432571,46.3540695 C39.7211069,45.9252002 37.3624985,45.2558165 35.9779723,45.0732573 C33.4719509,44.7400143 22.0777912,47.7594855 18.9040755,48 L18.5687831,48 C15.4875619,47.9884089 12.0768291,44.8008674 9.83672926,43.5867038 Z" id="Shape" fill="#FFFFFF"></path>
            <path d="M15.7956741,11.4851903 C15.9113933,11.2531663 15.9113933,10.9631362 15.8535337,10.6731061 C15.8535337,10.6151001 15.8535337,10.5570941 15.7956741,10.5570941 C15.7378145,10.3250701 15.5642357,10.093046 15.3327972,9.91902799 C15.217078,9.86102199 15.1592184,9.80301596 15.0434991,9.74500995 C13.8863069,9.51298592 13.0762723,9.74500995 11.8612205,10.03504 L12.6133954,13.0513526 C13.8284473,12.7613225 14.5806222,12.5873045 15.506376,11.7752204 C15.6799549,11.7172144 15.7378145,11.6012023 15.7956741,11.4851903 Z M17.7629009,15.197575 C17.7050413,15.139569 17.7050413,15.139569 17.7629009,15.197575 L17.7629009,15.081563 C17.6471817,14.791533 17.4736028,14.5595089 17.2421644,14.3854909 L16.8950067,14.2114729 C15.506376,13.9794488 14.5227626,14.2694789 13.1919916,14.6175149 L14.0020261,17.8658516 C15.3906568,17.5178155 16.3742702,17.2857915 17.4736028,16.4157013 C17.5314624,16.2996892 17.6471817,16.1836772 17.7050413,16.0676652 C17.7629009,15.7776351 17.8207605,15.4876051 17.7629009,15.197575 Z" id="Shape" fill="#3CFF85"></path>
            <path d="M14.1177453,0 C6.42241695,0 0.231438448,6.20664325 0.231438448,13.9214428 C0.231438448,21.6362423 6.42241695,27.8428856 14.1177453,27.8428856 C21.8130737,27.8428856 28.0040522,21.6362423 28.0040522,13.9214428 C28.0040522,6.20664325 21.8130737,0 14.1177453,0 Z M17.0685856,18.9099598 L17.7050413,21.4042183 L16.2006914,21.8102604 L15.5642356,19.3160019 L14.4070434,19.6060319 L15.0434991,22.1002904 L13.5391492,22.4483265 L12.9026935,19.954068 L9.83613404,20.7661522 L9.77827444,18.9099598 C10.4725898,18.3298997 11.2826244,18.2138877 11.2247647,17.3437975 C11.1669051,15.7196292 10.588309,13.1673646 9.48897637,11.3691783 C8.85252063,10.7891182 8.15820529,10.6731061 7.34817073,11.1371542 L6.94315346,9.57099192 L10.0097129,8.75890775 L9.37325717,6.26464926 L10.8776071,5.85860718 L11.5140628,8.35286567 L12.6712551,8.06283561 L12.0347993,5.56857712 L13.5391492,5.22054105 L14.175605,7.71479954 C16.3164106,7.13473943 17.8207605,7.83081157 18.5729355,9.68700395 C18.7465143,10.7311122 18.4572163,11.5431963 17.8207605,12.2392684 C19.2093912,12.4132865 20.135145,13.1673646 20.6558815,14.5015029 C20.7716008,16.9957614 19.9615662,18.1558816 17.0685856,18.9099598 Z" id="Shape" fill="#3CFF85"></path>
        </g>
    </g>
</svg>