<?xml version="1.0" encoding="UTF-8"?>
<svg width="48px" height="48px" viewBox="0 0 48 48" version="1.1" xmlns="http://www.w3.org/2000/svg" xmlns:xlink="http://www.w3.org/1999/xlink">
    <title>icon-feature-06</title>
    <g id="icon-feature-06" stroke="none" stroke-width="1" fill="none" fill-rule="evenodd">
        <g id="Group-5" transform="translate(3.000000, 0.000000)">
            <path d="M28.2635603,31.728668 C28.0012487,31.7242785 27.7399352,31.6955237 27.4830683,31.6427833 L27.4830683,41.4622663 C27.6438004,41.4990059 27.8175649,41.5844135 28.0140153,41.5844135 C29.0421217,41.5844135 29.9090133,40.6420675 29.9090133,39.4668787 L29.9090133,31.1914115 C29.6985652,31.3140357 29.5378331,31.4361829 29.289736,31.5220676 C28.9637217,31.6536483 28.6156659,31.7237225 28.2635603,31.728668 L28.2635603,31.728668 Z M38.4558114,12.8159046 C37.9977489,11.384493 36.6848619,10.4531213 35.1615268,10.4531213 L29.7989624,10.4531213 C28.808505,10.4531213 27.9416134,10.9059244 27.2851699,11.554831 C27.1706362,11.712908 27.0466905,11.8641094 26.9139897,12.0076342 C26.8271075,12.1302584 26.7899412,12.2896223 26.7030589,12.4117694 C28.1892278,12.9366203 29.3780663,14.1256461 29.923011,15.6682306 L33.4277436,26.3432206 C33.584748,26.8164044 33.6395064,27.3169012 33.5884757,27.812326 C33.5475405,28.1873505 33.4644907,28.5567035 33.3408614,28.9135586 L33.3408614,38.7325646 C33.3408614,39.8710139 34.2946352,40.8138369 35.3965915,40.8138369 C36.5482637,40.8138369 37.4523216,39.8710139 37.4523216,38.7325646 L37.4523216,22.9154672 L38.0344325,24.702823 C38.3196959,25.5616699 39.1117722,26.1342346 39.9651488,26.1342346 C40.1746623,26.1306712 40.3830157,26.1026438 40.585874,26.0507356 C41.3794895,25.8177496 41.9396212,25.117223 41.9856433,24.3001193 C42.0228096,24.0186083 41.9856433,23.7752684 41.8992438,23.4799204 L38.4558114,12.8159046 Z M27.1485717,15.9864811 C26.6905093,14.5550696 25.3776223,13.6236978 23.8542871,13.6236978 L18.4545565,13.6236978 C17.4636164,13.6236978 16.5967248,14.076501 15.940764,14.7254075 C15.8259569,14.883409 15.7018554,15.0346041 15.5691011,15.1782107 C15.4822189,15.3003578 15.4455353,15.4597217 15.358653,15.5818688 C16.8448219,16.1067197 18.0336604,17.2957455 18.578605,18.83833 L22.0833377,29.51332 C22.2404267,29.9864858 22.2951871,30.4870003 22.2440698,30.9824254 C22.2030436,31.3575908 22.1199965,31.727092 21.9964554,32.0841351 L21.9964554,41.9036182 C21.9964554,43.0420675 22.9502293,43.9844135 24.0521856,43.9844135 C25.2038578,43.9844135 26.1079157,43.0420675 26.1079157,41.9036182 L26.1079157,26.0984493 L26.6900266,27.8858051 C26.9748073,28.7446521 27.7673663,29.3172167 28.6207428,29.3172167 C28.8298615,29.3126949 29.0377159,29.2838686 29.2400201,29.231332 C30.0335512,28.998223 30.5936266,28.2977668 30.6397894,27.4807157 C30.6769556,27.1987276 30.6397894,26.9558648 30.5529071,26.6605169 C30.5780064,26.6729224 27.1471237,15.9855268 27.1471237,15.9855268 L27.1485717,15.9864811 Z M18.578605,34.9006759 C18.3164479,34.8963638 18.0552873,34.8676082 17.7985957,34.8147912 L17.7985957,44.63332 C17.9593278,44.6700596 18.1330923,44.7559443 18.3295426,44.7559443 C19.3586144,44.7545129 20.2274367,43.8131212 20.2274367,42.6379324 L20.2274367,34.361988 C20.0169886,34.4841351 19.8557738,34.6067594 19.6081595,34.692167 C19.2736629,34.8634592 18.9145497,34.9001988 18.5800531,34.9001988 L18.578605,34.9006759 Z M15.7669995,19.9910934 C15.3089371,18.5596819 13.9588838,17.6283101 12.422999,17.6283101 L6.98658476,17.6283101 C5.46324965,17.6283101 4.10112934,18.5711332 3.64258424,19.9910934 L0.0997199456,30.664652 C0.00946977511,30.9282755 -0.0200492767,31.2085026 0.013320394,31.4848509 C0.0997199456,32.2559045 0.632597626,32.9906958 1.46135757,33.2354672 C1.67180564,33.3213518 1.86970405,33.3213518 2.11780109,33.3213518 C3.024545,33.3276275 3.82845916,32.7461514 4.09678523,31.8899403 L4.71606246,30.1025845 L4.71606246,45.9187276 C4.71606244,46.6622946 5.11735819,47.3493789 5.76878547,47.7211624 C6.42021276,48.0929459 7.22280428,48.0929459 7.87423156,47.7211624 C8.52565885,47.3493789 8.92695459,46.6622946 8.92695457,45.9187276 L8.92695457,33.5541948 L10.5738555,33.5541948 L10.5738555,45.9067991 C10.5738555,47.0562541 11.5164958,47.9880715 12.6793016,47.9880715 C13.8421073,47.9880715 14.7847476,47.0562541 14.7847476,45.9067991 L14.7847476,30.0897018 L15.4040249,31.8770576 C15.6888055,32.7359045 16.5185308,33.3084691 17.383009,33.3084691 C17.604179,33.3016208 17.8240954,33.2728484 18.0394525,33.2225845 C18.8691778,32.9773359 19.4020555,32.2430218 19.4874897,31.4719682 C19.524656,31.1904572 19.4874897,30.9471173 19.4010901,30.6517693 L15.7669995,19.9910934 Z" id="Shape" fill="#FFFFFF" fill-rule="nonzero"></path>
            <path d="M30.4916069,8.56938369 C30.9559302,8.73466109 31.446147,8.81752571 31.9396441,8.81415506 C32.4327877,8.81334535 32.9222861,8.73060218 33.3876812,8.56938369 C35.1214644,7.95721669 36.3971852,6.36596421 36.3971852,4.4073161 C36.3971852,1.97322263 34.4010438,0 31.9386787,0 C29.4763136,0 27.4801722,1.97322263 27.4801722,4.4073161 C27.4801722,6.32922464 28.755893,7.95769383 30.4896762,8.56938369 L30.4916069,8.56938369 Z" id="Path"></path>
            <path d="M19.1978823,11.7504572 C19.6621978,11.9157638 20.1524199,11.9986293 20.6459194,11.9952286 C21.1390702,11.9945004 21.6285822,11.911755 22.0939566,11.7504572 C23.8277398,11.1382902 25.1034605,9.54703776 25.1034605,7.58791252 C25.1034605,5.15381905 23.1073192,3.18059642 20.6449541,3.18059642 C18.182589,3.18059642 16.1864476,5.15381905 16.1864476,7.58791252 C16.1864476,9.54703776 17.4250021,11.1874354 19.1959515,11.7504572 L19.1978823,11.7504572 Z" id="Path"></path>
            <path d="M7.85106295,15.7445725 C8.31536808,15.909918 8.8055973,15.9927848 9.29910013,15.9893439 C9.79224615,15.9885614 10.281749,15.9058174 10.7471373,15.7445725 C12.4852646,15.1295427 13.7595373,13.5382902 13.7595373,11.579165 C13.7762256,9.99374113 12.9301538,8.52163879 11.5439037,7.72412645 C10.1576535,6.92661411 8.44489085,6.92661411 7.0586407,7.72412645 C5.67239055,8.52163879 4.82631873,9.99374113 4.84300706,11.579165 C4.84300706,13.5502187 6.11872781,15.1786879 7.85251099,15.7417097 L7.85106295,15.7445725 Z" id="Path"></path>
            <path d="M30.4916069,8.56938369 C30.9559302,8.73466109 31.446147,8.81752571 31.9396441,8.81415506 C32.4327877,8.81334535 32.9222861,8.73060218 33.3876812,8.56938369 C35.1214644,7.95721669 36.3971852,6.36596421 36.3971852,4.4073161 C36.3971852,1.97322263 34.4010438,0 31.9386787,0 C29.4763136,0 27.4801722,1.97322263 27.4801722,4.4073161 C27.4801722,6.32922464 28.755893,7.95769383 30.4896762,8.56938369 L30.4916069,8.56938369 Z" id="Path" fill="#3CFF85"></path>
            <path d="M19.1978823,11.7504572 C19.6621978,11.9157638 20.1524199,11.9986293 20.6459194,11.9952286 C21.1390702,11.9945004 21.6285822,11.911755 22.0939566,11.7504572 C23.8277398,11.1382902 25.1034605,9.54703776 25.1034605,7.58791252 C25.1034605,5.15381905 23.1073192,3.18059642 20.6449541,3.18059642 C18.182589,3.18059642 16.1864476,5.15381905 16.1864476,7.58791252 C16.1864476,9.54703776 17.4250021,11.1874354 19.1959515,11.7504572 L19.1978823,11.7504572 Z" id="Path" fill="#3CFF85"></path>
            <path d="M7.85106295,15.7445725 C8.31536808,15.909918 8.8055973,15.9927848 9.29910013,15.9893439 C9.79224615,15.9885614 10.281749,15.9058174 10.7471373,15.7445725 C12.4852646,15.1295427 13.7595373,13.5382902 13.7595373,11.579165 C13.7762256,9.99374113 12.9301538,8.52163879 11.5439037,7.72412645 C10.1576535,6.92661411 8.44489085,6.92661411 7.0586407,7.72412645 C5.67239055,8.52163879 4.82631873,9.99374113 4.84300706,11.579165 C4.84300706,13.5502187 6.11872781,15.1786879 7.85251099,15.7417097 L7.85106295,15.7445725 Z" id="Path" fill="#3CFF85"></path>
        </g>
    </g>
</svg>