<?xml version="1.0" encoding="UTF-8"?>
<svg width="48px" height="48px" viewBox="0 0 48 48" version="1.1" xmlns="http://www.w3.org/2000/svg" xmlns:xlink="http://www.w3.org/1999/xlink">
    <title>icon-feature-01</title>
    <g id="icon-feature-01" stroke="none" stroke-width="1" fill="none" fill-rule="evenodd">
        <g id="Group-2" transform="translate(1.000000, 0.000000)">
            <path d="M43.4444444,7.57894737 C43.4444444,11.7646844 40.0119608,15.1578947 35.7777778,15.1578947 C31.5435947,15.1578947 28.1111111,11.7646844 28.1111111,7.57894737 C28.1111111,3.39321032 31.5435947,0 35.7777778,0 C40.0119608,0 43.4444444,3.39321032 43.4444444,7.57894737 Z M10.2222222,35.3684211 C14.4564053,35.3684211 17.8888889,31.9752108 17.8888889,27.7894737 C17.8888889,23.6037367 14.4564053,20.2105263 10.2222222,20.2105263 C5.98803916,20.2105263 2.55555558,23.6037367 2.55555558,27.7894737 C2.55555558,31.9752108 5.98803916,35.3684211 10.2222222,35.3684211 Z M35.7777778,17.6842105 C30.1322003,17.6842105 25.5555556,22.208491 25.5555556,27.7894737 L46,27.7894737 C46,22.208491 41.4233552,17.6842105 35.7777778,17.6842105 L35.7777778,17.6842105 Z M0,48 C0.000432126101,42.4193193 4.57695033,37.8955103 10.2222222,37.8955103 C15.8674941,37.8955103 20.4440123,42.4193193 20.4444444,48 L0,48 Z" id="Combined-Shape" fill="#FFFFFF"></path>
            <path d="M10.2222222,2.52631581 C4.57664479,2.52631581 0,7.05059624 0,12.631579 L0,17.6842105 L5.11111109,17.6842105 L5.11111109,12.631579 C5.11111108,11.2915378 5.64960159,10.0063811 6.60812087,9.05882889 C7.56664015,8.11127665 8.86667128,7.57894735 10.2222222,7.57894737 L17.8888889,7.57894737 L17.8888889,2.52631581 L10.2222222,2.52631581 Z M35.7777778,48 C41.4233552,48 46,43.4757196 46,37.8947368 L46,32.8421053 L40.8888889,32.8421053 L40.8888889,37.8947368 C40.8888889,39.2347781 40.3503984,40.5199347 39.3918791,41.4674869 C38.4333599,42.4150392 37.1333287,42.9473685 35.7777778,42.9473684 L28.1111111,42.9473684 L28.1111111,48 L35.7777778,48 L35.7777778,48 Z" id="Shape" fill="#3CFF85" fill-rule="nonzero"></path>
        </g>
    </g>
</svg>