<?xml version="1.0" encoding="UTF-8"?>
<svg width="48px" height="48px" viewBox="0 0 48 48" version="1.1" xmlns="http://www.w3.org/2000/svg" xmlns:xlink="http://www.w3.org/1999/xlink">
    <title>icon-feature-05</title>
    <g id="icon-feature-05" stroke="none" stroke-width="1" fill="none" fill-rule="evenodd">
        <path d="M34.1777273,-1.42108547e-14 C35.6427555,-0.000578356023 37.0479738,0.59335169 38.0841056,1.65107152 C39.1202374,2.70879134 39.7023636,4.14361292 39.7023636,5.63974401 L39.7023636,25.4082998 L38.3201364,25.4082998 C31.4624091,25.4082998 25.8800909,28.5739741 25.8800909,32.4727059 L25.8800909,39.5240217 L6.52249999,39.5240217 C3.47250746,39.5240217 1,36.9990225 1,33.8842781 L1,5.63974401 C1,2.52499963 3.47250746,-1.42108547e-14 6.52249999,-1.42108547e-14 Z M31.925078,9.62926717 C31.2508348,9.44448344 30.5312768,9.6410773 30.0374545,10.1449937 L24.5640909,15.7236492 C24.1472119,16.1480491 23.4726972,16.1480491 23.0558182,15.7236492 L19.0928636,11.6874691 C18.2582701,10.8378209 16.907597,10.8387971 16.0741818,11.6896508 L7.9154091,20.0325442 C7.19260735,20.8179511 7.21174651,22.0477571 7.95862319,22.8093103 C8.70549988,23.5708636 9.90976784,23.5885053 10.6777273,22.8491435 L16.1361364,17.2639428 C16.3365364,17.0587702 16.6086418,16.9434618 16.8924091,16.9434618 C17.1761764,16.9434618 17.4482818,17.0587702 17.6486818,17.2639428 L21.6095,21.3088498 C22.4435045,22.1591005 23.7941773,22.1591005 24.6281818,21.3088498 L32.7997727,12.9681381 C33.293595,12.4642216 33.4866581,11.7295395 33.3062371,11.0408393 C33.1258161,10.3521392 32.5993212,9.8140509 31.925078,9.62926717 Z" id="Combined-Shape" fill="#FFFFFF" fill-rule="nonzero"></path>
        <path d="M28.6424091,32.4748876 C28.6424091,34.8158721 32.9749546,36.7052408 38.3201364,36.7052408 C43.6674546,36.7052408 48,34.8158722 48,32.4748876 C48,30.1360849 43.6674545,28.2314442 38.3222727,28.2314442 C32.9749545,28.2314442 28.6424091,30.1360849 28.6424091,32.4748876 Z M38.3201364,45.1790373 C35.0230356,45.2676978 31.7656812,44.4275789 28.9051818,42.7507841 C28.7271576,43.0598477 28.6314116,43.411099 28.6274545,43.7696469 C28.6274545,46.1084496 32.96,48 38.3051818,48 C43.6525,47.9978183 48,46.1084496 48,43.7696469 C47.9964153,43.4103573 47.9006562,43.0583058 47.7222728,42.7486024 C44.8677768,44.4270193 41.6149496,45.2680602 38.3222727,45.1790373 L38.3201364,45.1790373 Z M38.3201364,39.5240217 C35.0230356,39.6126822 31.7656812,38.7725633 28.9051818,37.0957685 C28.7307724,37.4063878 28.6352936,37.7566589 28.6274545,38.1146312 C28.6274545,40.4556157 32.96,42.3602564 38.3051818,42.3602564 C43.6525,42.3602564 48,40.4992501 48,38.1146312 C47.992161,37.7566589 47.8966821,37.4063878 47.7222728,37.0957685 C44.8675611,38.7734241 41.6147474,39.6137066 38.3222727,39.5240217 L38.3201364,39.5240217 Z" id="Shape" fill="#3CFF85" fill-rule="nonzero"></path>
    </g>
</svg>