<?xml version="1.0" encoding="UTF-8"?>
<svg width="48px" height="48px" viewBox="0 0 48 48" version="1.1" xmlns="http://www.w3.org/2000/svg" xmlns:xlink="http://www.w3.org/1999/xlink">
    <title>icon-feature-05</title>
    <g id="icon-feature-05" stroke="none" stroke-width="1" fill="none" fill-rule="evenodd">
        <g id="Group-8" transform="translate(1.000000, 0.000000)" fill-rule="nonzero">
            <path d="M38.7023636,25.499932 L38.7023636,5.63974401 C38.7023636,4.14361292 38.1202374,2.70879134 37.0841056,1.65107152 C36.0479738,0.59335169 34.6427555,-0.000578356023 33.1777273,0 L5.52249999,0 C2.47250746,0 0,2.52499963 0,5.63974401 L0,33.8842781 C0,36.9990225 2.47250746,39.5240217 5.52249999,39.5240217 L24.8800909,39.5240217 L24.8800909,32.4727059 C24.8800909,28.5739741 30.4624091,25.4082998 37.3201364,25.4082998 L38.7023636,25.4082998 L38.7023636,25.4977503 L38.7023636,25.499932 Z" id="Path" fill="#FFFFFF"></path>
            <path d="M23.6281818,21.3088498 C22.7941773,22.1591005 21.4435045,22.1591005 20.6095,21.3088498 L16.6486818,17.2639428 C16.4482818,17.0587702 16.1761764,16.9434618 15.8924091,16.9434618 C15.6086418,16.9434618 15.3365364,17.0587702 15.1361364,17.2639428 L9.67772728,22.8491435 C8.90976784,23.5885053 7.70549988,23.5708636 6.95862319,22.8093103 C6.21174651,22.0477571 6.19260735,20.8179511 6.9154091,20.0325442 L15.0741818,11.6896508 C15.907597,10.8387971 17.2582701,10.8378209 18.0928636,11.6874691 L22.0558182,15.7236492 C22.4726972,16.1480491 23.1472119,16.1480491 23.5640909,15.7236492 L29.0374545,10.1449937 C29.5312768,9.6410773 30.2508348,9.44448344 30.925078,9.62926717 C31.5993212,9.8140509 32.1258161,10.3521392 32.3062371,11.0408393 C32.4866581,11.7295395 32.293595,12.4642216 31.7997727,12.9681381 L23.6303182,21.3088498 L23.6281818,21.3088498 Z" id="Path" fill="#191C20"></path>
            <path d="M27.6424091,32.4748876 C27.6424091,34.8158721 31.9749546,36.7052408 37.3201364,36.7052408 C42.6674546,36.7052408 47,34.8158722 47,32.4748876 C47,30.1360849 42.6674545,28.2314442 37.3222727,28.2314442 C31.9749545,28.2314442 27.6424091,30.1360849 27.6424091,32.4748876 Z M37.3201364,45.1790373 C34.0230356,45.2676978 30.7656812,44.4275789 27.9051818,42.7507841 C27.7271576,43.0598477 27.6314116,43.411099 27.6274545,43.7696469 C27.6274545,46.1084496 31.96,48 37.3051818,48 C42.6525,47.9978183 47,46.1084496 47,43.7696469 C46.9964153,43.4103573 46.9006562,43.0583058 46.7222728,42.7486024 C43.8677768,44.4270193 40.6149496,45.2680602 37.3222727,45.1790373 L37.3201364,45.1790373 Z M37.3201364,39.5240217 C34.0230356,39.6126822 30.7656812,38.7725633 27.9051818,37.0957685 C27.7307724,37.4063878 27.6352936,37.7566589 27.6274545,38.1146312 C27.6274545,40.4556157 31.96,42.3602564 37.3051818,42.3602564 C42.6525,42.3602564 47,40.4992501 47,38.1146312 C46.992161,37.7566589 46.8966821,37.4063878 46.7222728,37.0957685 C43.8675611,38.7734241 40.6147474,39.6137066 37.3222727,39.5240217 L37.3201364,39.5240217 Z" id="Shape" fill="#3CFF85"></path>
        </g>
    </g>
</svg>