<?xml version="1.0" encoding="UTF-8"?>
<svg width="20px" height="21px" viewBox="0 0 20 21" version="1.1" xmlns="http://www.w3.org/2000/svg" xmlns:xlink="http://www.w3.org/1999/xlink">
    <title>language</title>
    <g id="Page-1" stroke="none" stroke-width="1" fill="none" fill-rule="evenodd">
        <g id="language" fill="#7F7F7F" fill-rule="nonzero">
            <path d="M10,-7.40148683e-16 C4.53520476,-0.000614823536 0.0819718946,4.38581955 -3.70074342e-16,9.85 L-3.70074342e-16,10.15 C-3.70074342e-16,15.6728475 4.4771525,20.15 10,20.15 C15.5228475,20.15 20,15.6728475 20,10.15 L20,9.85 C19.9180281,4.38581955 15.4647952,-0.000614823536 10,-7.40148683e-16 L10,-7.40148683e-16 Z M12.7333333,9.28333333 L7.26666667,9.28333333 C7.41439329,6.67929494 8.36977614,4.18597871 10,2.15 C11.6302239,4.18597871 12.5856067,6.67929494 12.7333333,9.28333333 Z M8.65,1.53333333 C6.94378705,3.77082583 5.95590673,6.47296903 5.81666667,9.28333333 L1.46666667,9.28333333 C1.75733994,5.33942485 4.7394614,2.12205482 8.65,1.53333333 L8.65,1.53333333 Z M1.46666667,10.7166667 L5.81666667,10.7166667 C5.95590673,13.527031 6.94378705,16.2291742 8.65,18.4666667 C4.7394614,17.8779452 1.75733994,14.6605752 1.46666667,10.7166667 L1.46666667,10.7166667 Z M10,17.85 C8.36977614,15.8140213 7.41439329,13.3207051 7.26666667,10.7166667 L12.7333333,10.7166667 C12.5856067,13.3207051 11.6302239,15.8140213 10,17.85 L10,17.85 Z M11.35,18.4666667 C13.056213,16.2291742 14.0440933,13.527031 14.1833333,10.7166667 L18.5333333,10.7166667 C18.2426601,14.6605752 15.2605386,17.8779452 11.35,18.4666667 L11.35,18.4666667 Z M14.1833333,9.28333333 C14.0440933,6.47296903 13.056213,3.77082583 11.35,1.53333333 C15.2605386,2.12205482 18.2426601,5.33942485 18.5333333,9.28333333 L14.1833333,9.28333333 Z" id="Shape"></path>
        </g>
    </g>
</svg>