<?xml version="1.0" encoding="UTF-8"?>
<svg width="20px" height="20px" viewBox="0 0 20 20" version="1.1" xmlns="http://www.w3.org/2000/svg" xmlns:xlink="http://www.w3.org/1999/xlink">
    <title>language</title>
    <g id="Page-1" stroke="none" stroke-width="1" fill="none" fill-rule="evenodd">
        <g id="Medium" transform="translate(-1212.000000, -66.000000)" fill="#646464" fill-rule="nonzero">
            <g id="language" transform="translate(1212.000000, 66.000000)">
                <path d="M10,-7.34638891e-16 C4.53520476,-0.000610246686 0.0819718946,4.35317076 -3.70074342e-16,9.77667494 L-3.70074342e-16,10.0744417 C-3.70074342e-16,15.5561762 4.4771525,20 10,20 C15.5228475,20 20,15.5561762 20,10.0744417 L20,9.77667494 C19.9180281,4.35317076 15.4647952,-0.000610246686 10,-7.34638891e-16 L10,-7.34638891e-16 Z M12.7333333,9.21422663 L7.26666667,9.21422663 C7.41439329,6.62957314 8.36977614,4.15481758 10,2.13399504 C11.6302239,4.15481758 12.5856067,6.62957314 12.7333333,9.21422663 Z M8.65,1.52191894 C6.94378705,3.74275516 5.95590673,6.42478316 5.81666667,9.21422663 L1.46666667,9.21422663 C1.75733994,5.29967727 4.7394614,2.10625789 8.65,1.52191894 L8.65,1.52191894 Z M1.46666667,10.63689 L5.81666667,10.63689 C5.95590673,13.4263335 6.94378705,16.1083615 8.65,18.3291977 C4.7394614,17.7448587 1.75733994,14.5514394 1.46666667,10.63689 L1.46666667,10.63689 Z M10,17.7171216 C8.36977614,15.696299 7.41439329,13.2215435 7.26666667,10.63689 L12.7333333,10.63689 C12.5856067,13.2215435 11.6302239,15.696299 10,17.7171216 L10,17.7171216 Z M11.35,18.3291977 C13.056213,16.1083615 14.0440933,13.4263335 14.1833333,10.63689 L18.5333333,10.63689 C18.2426601,14.5514394 15.2605386,17.7448587 11.35,18.3291977 L11.35,18.3291977 Z M14.1833333,9.21422663 C14.0440933,6.42478316 13.056213,3.74275516 11.35,1.52191894 C15.2605386,2.10625789 18.2426601,5.29967727 18.5333333,9.21422663 L14.1833333,9.21422663 Z" id="Shape"></path>
            </g>
        </g>
    </g>
</svg>