<?xml version="1.0" encoding="UTF-8"?>
<svg viewBox="0 0 190 48" version="1.1" xmlns="http://www.w3.org/2000/svg" xmlns:xlink="http://www.w3.org/1999/xlink">
<g stroke="none" stroke-width="1" fill="none" fill-rule="evenodd">
<g transform="translate(61.044000, 12.516000)" fill="#FFFFFF" fill-rule="nonzero">
<path d="M9.828,14.832 L0,0 L3.924,0 L11.844,12.132 L10.08,12.132 L18.036,0 L21.888,0 L11.988,14.832 L9.828,14.832 Z M9.252,24.984 L9.252,12.6 L12.636,12.6 L12.636,24.984 L9.252,24.984 Z"></path>
<path d="M27.192,25.344 C25.512,25.344 24,24.948 22.656,24.156 C21.312,23.364 20.244,22.29 19.452,20.934 C18.66,19.578 18.264,18.06 18.264,16.38 C18.264,14.724 18.66,13.23 19.452,11.898 C20.244,10.566 21.312,9.504 22.656,8.712 C24,7.92 25.512,7.524 27.192,7.524 C28.848,7.524 30.354,7.914 31.71,8.694 C33.066,9.474 34.14,10.536 34.932,11.88 C35.724,13.224 36.12,14.724 36.12,16.38 C36.12,18.06 35.724,19.578 34.932,20.934 C34.14,22.29 33.066,23.364 31.71,24.156 C30.354,24.948 28.848,25.344 27.192,25.344 Z M27.192,22.212 C28.272,22.212 29.232,21.96 30.072,21.456 C30.912,20.952 31.572,20.262 32.052,19.386 C32.532,18.51 32.772,17.508 32.772,16.38 C32.772,15.276 32.526,14.292 32.034,13.428 C31.542,12.564 30.882,11.886 30.054,11.394 C29.226,10.902 28.272,10.656 27.192,10.656 C26.112,10.656 25.152,10.902 24.312,11.394 C23.472,11.886 22.812,12.564 22.332,13.428 C21.852,14.292 21.612,15.276 21.612,16.38 C21.612,17.508 21.852,18.51 22.332,19.386 C22.812,20.262 23.472,20.952 24.312,21.456 C25.152,21.96 26.112,22.212 27.192,22.212 Z"></path>
<path d="M46.068,25.344 C44.652,25.344 43.386,25.026 42.27,24.39 C41.154,23.754 40.284,22.872 39.66,21.744 C39.036,20.616 38.724,19.308 38.724,17.82 L38.724,7.884 L41.964,7.884 L41.964,17.676 C41.964,18.612 42.126,19.422 42.45,20.106 C42.774,20.79 43.248,21.312 43.872,21.672 C44.496,22.032 45.228,22.212 46.068,22.212 C47.34,22.212 48.336,21.81 49.056,21.006 C49.776,20.202 50.136,19.092 50.136,17.676 L50.136,7.884 L53.376,7.884 L53.376,17.82 C53.376,19.308 53.064,20.616 52.44,21.744 C51.816,22.872 50.958,23.754 49.866,24.39 C48.774,25.026 47.508,25.344 46.068,25.344 Z"></path>
<path d="M57.132,24.984 L57.132,7.884 L60.372,7.884 L60.372,24.984 L57.132,24.984 Z M60.372,15.228 L59.148,14.688 C59.148,12.504 59.652,10.764 60.66,9.468 C61.668,8.172 63.12,7.524 65.016,7.524 C65.88,7.524 66.66,7.674 67.356,7.974 C68.052,8.274 68.7,8.772 69.3,9.468 L67.176,11.664 C66.816,11.28 66.42,11.004 65.988,10.836 C65.556,10.668 65.052,10.584 64.476,10.584 C63.276,10.584 62.292,10.968 61.524,11.736 C60.756,12.504 60.372,13.668 60.372,15.228 Z"></path>
<path d="M74.46,15.264 L74.46,12.312 L81.264,12.312 C82.2,12.312 83.034,12.12 83.766,11.736 C84.498,11.352 85.074,10.812 85.494,10.116 C85.914,9.42 86.124,8.592 86.124,7.632 C86.124,6.672 85.914,5.844 85.494,5.148 C85.074,4.452 84.498,3.912 83.766,3.528 C83.034,3.144 82.2,2.952 81.264,2.952 L74.46,2.952 L74.46,0 L81.48,0 C83.016,0 84.39,0.312 85.602,0.936 C86.814,1.56 87.774,2.442 88.482,3.582 C89.19,4.722 89.544,6.072 89.544,7.632 C89.544,9.168 89.19,10.506 88.482,11.646 C87.774,12.786 86.814,13.674 85.602,14.31 C84.39,14.946 83.016,15.264 81.48,15.264 L74.46,15.264 Z M72.192,24.984 L72.192,0 L75.576,0 L75.576,24.984 L72.192,24.984 Z"></path>
<path d="M99.132,25.344 C97.572,25.344 96.156,24.954 94.884,24.174 C93.612,23.394 92.61,22.332 91.878,20.988 C91.146,19.644 90.78,18.132 90.78,16.452 C90.78,14.772 91.146,13.26 91.878,11.916 C92.61,10.572 93.606,9.504 94.866,8.712 C96.126,7.92 97.548,7.524 99.132,7.524 C100.428,7.524 101.586,7.794 102.606,8.334 C103.626,8.874 104.448,9.618 105.072,10.566 C105.696,11.514 106.044,12.612 106.116,13.86 L106.116,19.008 C106.044,20.232 105.702,21.324 105.09,22.284 C104.478,23.244 103.662,23.994 102.642,24.534 C101.622,25.074 100.452,25.344 99.132,25.344 Z M99.672,22.284 C101.28,22.284 102.576,21.738 103.56,20.646 C104.544,19.554 105.036,18.156 105.036,16.452 C105.036,15.276 104.814,14.25 104.37,13.374 C103.926,12.498 103.296,11.814 102.48,11.322 C101.664,10.83 100.716,10.584 99.636,10.584 C98.556,10.584 97.602,10.836 96.774,11.34 C95.946,11.844 95.298,12.534 94.83,13.41 C94.362,14.286 94.128,15.288 94.128,16.416 C94.128,17.568 94.362,18.582 94.83,19.458 C95.298,20.334 95.952,21.024 96.792,21.528 C97.632,22.032 98.592,22.284 99.672,22.284 Z M104.82,24.984 L104.82,20.376 L105.432,16.2 L104.82,12.06 L104.82,7.884 L108.096,7.884 L108.096,24.984 L104.82,24.984 Z"></path>
<path d="M117.828,25.128 L110.412,7.884 L114.012,7.884 L119.52,21.384 L118.368,21.384 L124.164,7.884 L127.764,7.884 L119.772,25.128 L117.828,25.128 Z M112.932,32.148 L117.972,21.816 L119.772,25.128 L116.532,32.148 L112.932,32.148 Z"></path>
</g>
<path d="M24,0 C37.254834,0 48,10.745166 48,24 C48,37.254834 37.254834,48 24,48 C10.745166,48 0,37.254834 0,24 C0,10.745166 10.745166,0 24,0 Z M23.9381432,7.68 L14.016,27.254009 L23.9381432,27.254009 L23.9381432,40.32 L33.984,20.7573098 L24,20.7573098 L23.9381432,7.68 Z" id="Combined-Shape" fill="#3CFF85"></path>
</g>
</svg>