<?xml version="1.0" encoding="UTF-8"?>
<svg width="228px" height="40px" viewBox="0 0 228 40" version="1.1" xmlns="http://www.w3.org/2000/svg" xmlns:xlink="http://www.w3.org/1999/xlink">
    <title>partner-onchainaml</title>
    <g id="partner-onchainaml" stroke="none" stroke-width="1" fill="none" fill-rule="evenodd">
        <g id="Group-4" transform="translate(1.066667, 4.000000)">
            <g id="Group">
                <path d="M18.2399666,0 C28.313622,0 36.4799333,8.35745566 36.4799333,18.6668997 C36.4799333,22.0565871 35.597108,25.2352533 34.0539298,27.9752188 L18.2399666,11.7921271 L2.37689479,27.8874757 C0.86411012,25.1674835 0,22.0204654 0,18.6668997 C0,8.35745566 8.16631122,0 18.2399666,0 Z" id="Combined-Shape" fill="#FFFFFF"></path>
                <path d="M18.2399666,11.6512449 L34.113339,27.8687142 C32.430453,31.1616625 29.4215278,32.4860636 25.0865634,31.8419173 C20.7515991,31.197771 18.4694002,28.2228683 18.2399666,22.9172093 L18.2399666,11.6512449 Z" id="Path-3" fill="#A8A9AA"></path>
            </g>
            <path d="M58.3128292,26.4013358 C56.5324249,26.4013358 54.9080354,25.973993 53.4396607,25.1193073 C51.971286,24.2646215 50.8103523,23.0718184 49.9568595,21.5408978 C49.1033668,20.0099772 48.6766204,18.2865176 48.6766204,16.3705188 C48.6766204,14.45452 49.1033668,12.7310604 49.9568595,11.2001398 C50.8103523,9.66921922 51.971286,8.47641608 53.4396607,7.62173036 C54.9080354,6.76704463 56.5324249,6.33970177 58.3128292,6.33970177 C60.1115881,6.33970177 61.745155,6.76704463 63.2135296,7.62173036 C64.6819043,8.47641608 65.8382494,9.66452315 66.6825648,11.1860516 C67.5268802,12.70758 67.9490379,14.4357357 67.9490379,16.3705188 C67.9490379,18.3053019 67.5268802,20.0334576 66.6825648,21.554986 C65.8382494,23.0765145 64.6819043,24.2646215 63.2135296,25.1193073 C61.745155,25.973993 60.1115881,26.4013358 58.3128292,26.4013358 Z M58.3128292,24.1753961 C59.652721,24.1753961 60.8595415,23.856063 61.9332905,23.2173967 C63.0070394,22.5787305 63.8513549,21.6676918 64.4662368,20.4842808 C65.0811187,19.3008698 65.3885596,17.9296158 65.3885596,16.3705188 C65.3885596,14.7926375 65.0811187,13.4166874 64.4662368,12.2426685 C63.8513549,11.0686497 63.0116281,10.1623071 61.9470565,9.52364089 C60.8824848,8.88497463 59.6710757,8.56564151 58.3128292,8.56564151 C56.9545826,8.56564151 55.7431735,8.88497463 54.6786018,9.52364089 C53.6140302,10.1623071 52.7743034,11.0686497 52.1594215,12.2426685 C51.5445397,13.4166874 51.2370987,14.7926375 51.2370987,16.3705188 C51.2370987,17.9296158 51.5445397,19.3008698 52.1594215,20.4842808 C52.7743034,21.6676918 53.6186189,22.5787305 54.6923679,23.2173967 C55.7661168,23.856063 56.9729373,24.1753961 58.3128292,24.1753961 Z M78.6039317,10.4816403 C80.4394,10.4816403 81.9261294,11.0498654 83.0641197,12.1863156 C84.2021101,13.3227659 84.7711053,14.9616962 84.7711053,17.1031066 L84.7711053,26.2041007 L82.293223,26.2041007 L82.293223,17.4694004 C82.293223,15.9290877 81.916952,14.7503728 81.16441,13.9332557 C80.411868,13.1161386 79.3840057,12.70758 78.0808232,12.70758 C76.759286,12.70758 75.7084804,13.1302268 74.9284063,13.9755204 C74.1483323,14.8208139 73.7582952,16.0511857 73.7582952,17.6666356 L73.7582952,26.2041007 L71.252881,26.2041007 L71.252881,10.7634048 L73.7582952,10.7634048 L73.7582952,12.9611681 C74.2538717,12.1722274 74.9284063,11.5617376 75.7818991,11.1296987 C76.6353919,10.6976597 77.5760694,10.4816403 78.6039317,10.4816403 Z M88.0749483,16.3705188 C88.0749483,14.45452 88.497106,12.7310604 89.3414214,11.2001398 C90.1857369,9.66921922 91.3374933,8.47172 92.7966906,7.60764213 C94.2558879,6.74356426 95.8756887,6.31152532 97.656093,6.31152532 C99.7485269,6.31152532 101.574818,6.82809361 103.134966,7.8612302 C104.695114,8.89436679 105.833104,10.3595423 106.548937,12.2567568 L103.547946,12.2567568 C103.015661,11.0733458 102.249353,10.1623071 101.249022,9.52364089 C100.248692,8.88497463 99.051049,8.56564151 97.656093,8.56564151 C96.3162011,8.56564151 95.1139694,8.88497463 94.0493977,9.52364089 C92.9848261,10.1623071 92.149688,11.0686497 91.5439835,12.2426685 C90.9382789,13.4166874 90.6354266,14.7926375 90.6354266,16.3705188 C90.6354266,17.9296158 90.9382789,19.2961738 91.5439835,20.4701926 C92.149688,21.6442115 92.9848261,22.550554 94.0493977,23.1892203 C95.1139694,23.8278865 96.3162011,24.1472196 97.656093,24.1472196 C99.051049,24.1472196 100.248692,23.8325826 101.249022,23.2033085 C102.249353,22.5740344 103.015661,21.6676918 103.547946,20.4842808 L106.548937,20.4842808 C105.833104,22.362711 104.695114,23.8137983 103.134966,24.8375427 C101.574818,25.8612872 99.7485269,26.3731594 97.656093,26.3731594 C95.8756887,26.3731594 94.2558879,25.9458165 92.7966906,25.0911308 C91.3374933,24.2364451 90.1857369,23.048338 89.3414214,21.5268096 C88.497106,20.0052812 88.0749483,18.2865176 88.0749483,16.3705188 Z M117.341491,10.4816403 C118.479481,10.4816403 119.507344,10.7305323 120.425078,11.2283163 C121.342812,11.7261002 122.063233,12.4727762 122.586342,13.4683442 C123.10945,14.4639122 123.371004,15.6754996 123.371004,17.1031066 L123.371004,26.2041007 L120.893122,26.2041007 L120.893122,17.4694004 C120.893122,15.9290877 120.516851,14.7503728 119.764309,13.9332557 C119.011767,13.1161386 117.983905,12.70758 116.680722,12.70758 C115.359185,12.70758 114.30838,13.1302268 113.528305,13.9755204 C112.748231,14.8208139 112.358194,16.0511857 112.358194,17.6666356 L112.358194,26.2041007 L109.85278,26.2041007 L109.85278,5.35352594 L112.358194,5.35352594 L112.358194,12.9611681 C112.853771,12.1722274 113.537483,11.5617376 114.40933,11.1296987 C115.281178,10.6976597 116.258565,10.4816403 117.341491,10.4816403 Z M126.674847,18.4273998 C126.674847,16.8495185 126.986877,15.4641763 127.610936,14.2713731 C128.234996,13.07857 129.093077,12.1534431 130.185181,11.4959926 C131.277284,10.838542 132.493282,10.5098167 133.833174,10.5098167 C135.154711,10.5098167 136.301879,10.8009734 137.274677,11.3832867 C138.247475,11.9656001 138.972485,12.6981879 139.449707,13.58105 L139.449707,10.7634048 L141.982653,10.7634048 L141.982653,26.2041007 L139.449707,26.2041007 L139.449707,23.3301025 C138.954131,24.231749 138.215355,24.978425 137.233379,25.5701305 C136.251404,26.161836 135.108825,26.4576887 133.805642,26.4576887 C132.46575,26.4576887 131.254341,26.1195713 130.171415,25.4433365 C129.088488,24.7671016 128.234996,23.8184944 127.610936,22.5975148 C126.986877,21.3765352 126.674847,19.9864969 126.674847,18.4273998 Z M139.449707,18.4555763 C139.449707,17.2909496 139.220274,16.2765973 138.761406,15.4125194 C138.302539,14.5484416 137.683069,13.8862949 136.902995,13.4260795 C136.122921,12.9658641 135.264839,12.7357565 134.32875,12.7357565 C133.392662,12.7357565 132.539169,12.9611681 131.768272,13.4119913 C130.997375,13.8628145 130.382494,14.5202651 129.923626,15.384343 C129.464759,16.2484208 129.235326,17.2627731 129.235326,18.4273998 C129.235326,19.6108108 129.464759,20.6392513 129.923626,21.5127214 C130.382494,22.3861914 130.997375,23.0530341 131.768272,23.5132495 C132.539169,23.9734649 133.392662,24.2035726 134.32875,24.2035726 C135.264839,24.2035726 136.122921,23.9734649 136.902995,23.5132495 C137.683069,23.0530341 138.302539,22.3861914 138.761406,21.5127214 C139.220274,20.6392513 139.449707,19.620203 139.449707,18.4555763 Z M146.96595,8.25570053 C146.488728,8.25570053 146.084925,8.08664182 145.754541,7.74852439 C145.424157,7.41040696 145.258964,6.99715233 145.258964,6.50876049 C145.258964,6.02036865 145.424157,5.60711401 145.754541,5.26899659 C146.084925,4.93087916 146.488728,4.76182044 146.96595,4.76182044 C147.424817,4.76182044 147.814854,4.93087916 148.136061,5.26899659 C148.457268,5.60711401 148.617871,6.02036865 148.617871,6.50876049 C148.617871,6.99715233 148.457268,7.41040696 148.136061,7.74852439 C147.814854,8.08664182 147.424817,8.25570053 146.96595,8.25570053 Z M148.177359,10.7634048 L148.177359,26.2041007 L145.671945,26.2041007 L145.671945,10.7634048 L148.177359,10.7634048 Z M159.382893,10.4816403 C161.218362,10.4816403 162.705091,11.0498654 163.843081,12.1863156 C164.981072,13.3227659 165.550067,14.9616962 165.550067,17.1031066 L165.550067,26.2041007 L163.072185,26.2041007 L163.072185,17.4694004 C163.072185,15.9290877 162.695914,14.7503728 161.943372,13.9332557 C161.19083,13.1161386 160.162967,12.70758 158.859785,12.70758 C157.538248,12.70758 156.487442,13.1302268 155.707368,13.9755204 C154.927294,14.8208139 154.537257,16.0511857 154.537257,17.6666356 L154.537257,26.2041007 L152.031843,26.2041007 L152.031843,10.7634048 L154.537257,10.7634048 L154.537257,12.9611681 C155.032833,12.1722274 155.707368,11.5617376 156.560861,11.1296987 C157.414354,10.6976597 158.355031,10.4816403 159.382893,10.4816403 Z M186.144022,21.8367506 L177.774286,21.8367506 L176.232493,26.2041007 L173.589418,26.2041007 L180.527489,6.6778192 L183.418351,6.6778192 L190.32889,26.2041007 L187.685815,26.2041007 L186.144022,21.8367506 Z M185.428189,19.7516931 L181.959154,9.83358186 L178.490119,19.7516931 L185.428189,19.7516931 Z M213.097874,6.70599565 L213.097874,26.2041007 L210.59246,26.2041007 L210.59246,11.6650513 L204.260094,26.2041007 L202.498045,26.2041007 L196.138147,11.6368748 L196.138147,26.2041007 L193.632733,26.2041007 L193.632733,6.70599565 L196.330871,6.70599565 L203.379069,22.8229264 L210.427268,6.70599565 L213.097874,6.70599565 Z M219.5679,24.1190432 L226.285714,24.1190432 L226.285714,26.2041007 L217.062486,26.2041007 L217.062486,6.56511339 L219.5679,6.56511339 L219.5679,24.1190432 Z" id="Combined-Shape" fill="#FFFFFF" fill-rule="nonzero"></path>
        </g>
    </g>
</svg>