<?xml version="1.0" encoding="UTF-8"?>
<svg width="205px" height="40px" viewBox="0 0 205 40" version="1.1" xmlns="http://www.w3.org/2000/svg" xmlns:xlink="http://www.w3.org/1999/xlink">
    <title>partner-ciphertrace</title>
    <g id="partner-ciphertrace" stroke="none" stroke-width="1" fill="none" fill-rule="evenodd">
        <g id="logo-ciphertrace.c5bfab5" transform="translate(0.000000, 4.000000)">
            <polygon id="Path" fill="#ED6522" fill-rule="nonzero" points="19.043457 3.42501187 33.1527854 3.42501187 33.1527854 28.5863589 19.043457 28.5863589"></polygon>
            <path d="M19.939493,16.0000848 C19.939493,10.8918415 22.3527959,6.35266075 26.1041014,3.42526613 C23.3563335,1.28008362 19.9036117,9.88765159e-05 16.1403458,9.88765159e-05 C7.2159521,9.88765159e-05 0,7.15857498 0,16.0000848 C0,24.8414815 7.2159521,32 16.1283853,32 C19.8916513,32 23.3563335,30.7199729 26.092141,28.5747762 C22.1990189,25.5453411 19.925824,20.9085975 19.9275326,16.0000848" id="Path" fill="#E01B24" fill-rule="nonzero"></path>
            <path d="M52.1846877,15.9999435 C52.1846877,24.8413403 44.9687,31.9998587 36.0563238,31.9998587 C32.2930578,31.9998587 28.8283756,30.7198316 26.0925681,28.574635 C29.8438736,25.6473251 32.2571765,21.0961804 32.2571765,15.9999435 C32.2571765,10.9037066 29.8438736,6.352576 26.0925681,3.42518138 C28.8403361,1.27999887 32.2930578,0 36.0563238,0 C44.9687,0 52.1846877,7.15849023 52.1846877,15.9999435 Z M50.6554605,25.919518 L50.6554605,25.4098802 L50.8704636,25.4098802 L50.8704636,25.3032349 L50.3329559,25.3032349 L50.3329559,25.4098802 L50.547959,25.4098802 L50.547959,25.919518 L50.6554605,25.919518 Z M51.6948794,25.3032349 L51.6948794,25.919518 L51.5754174,25.919518 L51.5754174,25.4454758 L51.3961532,25.8484682 L51.2766913,25.8484682 L51.0975695,25.4454758 L51.0975695,25.919518 L50.9781075,25.919518 L50.9781075,25.3032349 L51.1452689,25.3032349 L51.3364934,25.7299576 L51.5275757,25.3032349 L51.6948794,25.3032349 Z" id="Shape" fill="#F49A1B"></path>
            <path d="M101.967727,10.7374528 C101.633119,11.0455238 101.322575,11.4129207 101.071691,11.8277783 L101.071691,11.8159131 L101.071691,2.79667987 L99.5065823,2.79667987 L99.5065823,22.4351096 L101.071691,22.4351096 L101.071691,15.1343502 C101.071691,14.5062019 101.179192,13.9255142 101.406156,13.4040112 C101.633119,12.8825082 101.931846,12.4321963 102.326113,12.0529342 C102.72038,11.6736722 103.174307,11.3773251 103.699997,11.1758996 C104.225687,10.974474 104.787115,10.8678286 105.396528,10.8678286 C106.053498,10.8678286 106.638989,10.9626088 107.152719,11.1521692 C107.666448,11.353736 108.096454,11.6262115 108.45484,11.9818844 C108.813226,12.3374161 109.088031,12.7758628 109.267295,13.2973658 C109.446417,13.8070036 109.542101,14.3995565 109.542101,15.03957 L109.542101,22.4232445 L111.107067,22.4232445 L111.107067,14.5536626 C111.107067,13.7595429 110.975644,13.0484795 110.7128,12.4084659 C110.449955,11.7684524 110.079608,11.2352255 109.60176,10.7847723 C109.123912,10.3344604 108.550381,9.99079389 107.881451,9.7536315 C107.212378,9.51661037 106.471686,9.39809981 105.671191,9.39809981 C104.77786,9.39527476 103.895351,9.59387531 103.090727,9.97892871 C102.684499,10.1803543 102.314152,10.4292406 101.967727,10.7374528 Z M79.6269128,4.1951893 C79.4117674,3.9700051 79.1489225,3.86333147 78.8264179,3.86333147 C78.5039133,3.86333147 78.2410684,3.98185616 78.025923,4.1951893 C77.8228803,4.42037351 77.7153788,4.68111088 77.7153788,5.00111766 C77.7153788,5.32111031 77.8109199,5.58184768 78.025923,5.79518083 C78.2410684,5.99666292 78.5039133,6.10332243 78.8264179,6.10332243 C79.1257136,6.11528649 79.4166085,6.00341477 79.6294758,5.79443219 C79.8424855,5.58544961 79.9582454,5.29812859 79.9494175,5.00111766 C79.9494175,4.68111088 79.8419159,4.40852245 79.6269128,4.1951893 Z M72.5305295,9.90787887 C71.7061137,9.5640711 70.8220381,9.39824106 69.8543818,9.39824106 L69.8663422,9.41010624 C68.8867255,9.41010624 68.0026499,9.58780146 67.1901946,9.91974405 C66.3896996,10.2515454 65.6848882,10.7137225 65.0995387,11.3062753 C64.5140469,11.8989694 64.0601198,12.5981676 63.7374728,13.4041525 C63.4149682,14.2099961 63.2476644,15.0988959 63.2476644,16.0352565 C63.2476644,16.9714759 63.4149682,17.8485106 63.7374728,18.6544954 C64.3520114,20.2403335 65.6023042,21.5021391 67.1901946,22.1389038 C68.0026499,22.4707052 68.910504,22.6366765 69.8663422,22.6366765 C70.8220381,22.6366765 71.7180741,22.4707052 72.5305295,22.1270387 C73.3428425,21.7833721 74.0477963,21.2855995 74.6331458,20.645586 L73.6535291,19.5788496 C73.1637207,20.0647571 72.5901893,20.4440191 71.9450377,20.7403662 C71.3000284,21.0367132 70.5831141,21.1789541 69.8185005,21.1789541 C69.1136891,21.1789541 68.456577,21.0485784 67.8473066,20.7878269 C67.2380363,20.5270754 66.7123466,20.1715437 66.2584196,19.7210905 C65.8043502,19.2707786 65.4579247,18.7255453 65.2070403,18.0973969 C64.9561559,17.4692485 64.8247334,16.7819155 64.8247334,16.0352565 C64.8247334,15.2885976 64.9561559,14.6011233 65.2070403,13.9729749 C65.4579247,13.3448266 65.8043502,12.7997344 66.2584196,12.3374161 C67.1941814,11.3876366 68.4797859,10.8569522 69.8185005,10.8678286 C70.5368386,10.8609072 71.2489118,11.0021594 71.9092987,11.2826862 C72.5305295,11.5553029 73.1039185,11.9462889 73.6056873,12.4440615 L74.6211853,11.3893316 C74.0477963,10.7374528 73.3548029,10.2515454 72.5305295,9.90787887 Z M79.6150948,22.4231032 L78.0501286,22.4231032 L78.0501286,9.59952539 L79.6150948,9.59952539 L79.6150948,22.4231032 Z M92.7094947,9.89573118 C91.9209602,9.56392985 91.0727659,9.39795855 90.1647694,9.39795855 L90.1647694,9.38609337 C88.9939281,9.38609337 87.9784301,9.63497969 87.1182753,10.1210284 C86.2581206,10.6069358 85.5770877,11.2469494 85.0633584,12.0409278 L85.0633584,9.59952539 L83.4983923,9.59952539 L83.4983923,27.875013 L85.0633584,27.875013 L85.0633584,19.9817008 C85.5890481,20.7756792 86.2820415,21.4156928 87.1302358,21.9016002 C87.9784301,22.3876489 88.9939281,22.62467 90.1647694,22.62467 C91.0727659,22.62467 91.9209602,22.4586987 92.7094947,22.1268974 C93.4980292,21.7949548 94.1789198,21.3446429 94.7644116,20.7520901 C95.3497611,20.1712612 95.8036881,19.472063 96.1382956,18.6660781 C96.4727606,17.8602345 96.6400644,16.9713346 96.6400644,16.0231089 C96.6400644,15.0750243 96.4727606,14.1861244 96.1382956,13.3802808 C95.8036881,12.574296 95.3497611,11.8750978 94.7644116,11.2824037 C94.1789198,10.6898509 93.4980292,10.2276738 92.7094947,9.89573118 Z M89.9855053,10.8559634 C89.2567729,10.8559634 88.5758824,10.9863391 87.9664696,11.2470906 C87.3571993,11.5078421 86.8196916,11.875239 86.3775826,12.3375574 C85.935616,12.7997344 85.5890481,13.3448266 85.3381637,13.9729749 C85.0872793,14.6011233 84.9558569,15.2885976 84.9558569,16.0233914 C84.9558569,16.7581851 85.0872793,17.4456594 85.3381637,18.0619426 C85.5890481,18.690091 85.935616,19.2351831 86.3775826,19.6975014 C86.8196916,20.1596785 87.3452389,20.5270754 87.9664696,20.7759617 C88.5758824,21.0367132 89.2567729,21.167089 89.9855053,21.167089 C90.71438,21.167089 91.407231,21.0367132 92.0284617,20.7759617 C92.6496925,20.5152102 93.1753822,20.1478133 93.6174912,19.6856362 C94.0594578,19.2234592 94.4058833,18.6782258 94.6567677,18.0500774 C94.9076521,17.421929 95.0272564,16.7463199 95.0272564,16.0233914 C95.0272564,15.3004628 94.9076521,14.6248537 94.6567677,13.9967053 C94.4058833,13.3685569 94.0594578,12.8234648 93.6174912,12.3611465 C93.1634217,11.8989694 92.6377321,11.5315725 92.0284617,11.2589558 C91.4191914,10.9863391 90.7383008,10.8559634 89.9974657,10.8559634 L89.9855053,10.8559634 Z M120.514377,9.39824106 C121.372396,9.39894732 122.170898,9.56477736 122.910024,9.88414851 C123.650717,10.2040847 124.283908,10.6545378 124.821558,11.2352255 C125.359208,11.8159131 125.777254,12.5033874 126.087941,13.309231 C126.398485,14.1152159 126.553828,14.9922506 126.565789,15.9403351 L126.565789,16.2722777 C126.565789,16.3789231 126.565789,16.4737033 126.541868,16.5803486 L115.705997,16.5803486 C115.765799,17.3270076 115.932961,17.9907515 116.207766,18.5714392 C116.482571,19.1522681 116.852917,19.6500407 117.295026,20.0530331 C117.748953,20.4558843 118.262683,20.7640965 118.836072,20.9773873 C119.421564,21.1906781 120.042794,21.2855995 120.699906,21.2855995 C121.607761,21.2855995 122.420216,21.1196282 123.136988,20.7996921 C123.853902,20.4677495 124.498911,20.0293028 125.072443,19.460339 L125.908677,20.5270754 C125.502449,20.9300678 125.072443,21.2737343 124.654255,21.546351 C124.224248,21.8188264 123.7941,22.0322585 123.351991,22.1980885 C122.910024,22.3640598 122.456097,22.4707052 122.002028,22.5418963 C121.548101,22.6010809 121.082071,22.6366765 120.616183,22.6366765 C119.672448,22.6366765 118.800333,22.4707052 118.011798,22.150769 C117.211303,21.8306916 116.530413,21.3803797 115.944921,20.7996921 C115.359002,20.2007829 114.899949,19.4915558 114.594958,18.7136801 C114.272311,17.9078365 114.11711,17.0070714 114.11711,16.0233914 C114.11711,15.0397113 114.284271,14.1745418 114.606918,13.3566917 C114.929423,12.5389829 115.383492,11.8396435 115.956881,11.2589558 C116.530413,10.6782682 117.211303,10.2159498 117.987877,9.88414851 C118.774561,9.55305343 119.608801,9.39894732 120.514377,9.39824106 Z M118.681583,11.1045672 C119.219233,10.8794113 119.828503,10.7727659 120.485615,10.7727659 L120.485615,10.7609007 C121.094886,10.7609007 121.656457,10.8794113 122.182146,11.092702 C122.707694,11.3061341 123.173723,11.614205 123.567991,12.0053323 C123.962258,12.3964595 124.284763,12.8705018 124.535647,13.4157351 C124.786531,13.9726924 124.929914,14.5772517 124.989574,15.2408544 L115.742733,15.2408544 C115.814353,14.5889756 115.981657,13.9845576 116.244501,13.4394655 C116.495386,12.8942321 116.841811,12.4201899 117.248039,12.0290626 C117.654267,11.6379354 118.144075,11.3298644 118.681583,11.1045672 Z M135.514473,9.38609337 C135.980361,9.38609337 136.410509,9.42168892 136.816737,9.50460394 C137.210862,9.58766021 137.593169,9.70617078 137.939737,9.883866 L137.545469,11.4009143 C137.222822,11.223219 136.864437,11.1047085 136.458209,11.009787 C136.052124,10.926872 135.645896,10.8794113 135.251629,10.8794113 C134.713979,10.8794113 134.21221,10.9861979 133.758283,11.1876235 C133.304213,11.4009143 132.909946,11.6853961 132.587441,12.0646582 C132.264937,12.4439202 132.002092,12.8942321 131.822828,13.4276003 C131.643706,13.9609685 131.548022,14.5416561 131.548022,15.1935349 L131.548022,22.4349684 L129.995017,22.4349684 L129.995017,9.61139057 L131.536062,9.61139057 L131.536062,11.7920415 C131.95425,11.0335174 132.515821,10.4528297 133.196712,10.0261069 C133.877745,9.59952539 134.654319,9.38609337 135.514473,9.38609337 Z M144.236195,11.0219347 L150.197903,11.0219347 L150.197903,9.62339701 L144.236195,9.62339701 L144.236195,5.43970563 L142.671371,5.43970563 L142.671371,9.62339701 L139.708742,9.62339701 L139.708742,11.0456651 L142.671371,11.0456651 L142.671371,18.0619426 C142.671371,19.6144452 143.05439,20.7640965 143.819003,21.5226207 C144.583617,22.2692796 145.634427,22.6485417 146.984247,22.6485417 C147.760252,22.6485417 148.453672,22.5300311 149.087291,22.29301 C149.720909,22.0559888 150.269096,21.7477766 150.736122,21.3685145 L149.994291,20.206998 C149.612696,20.503345 149.171299,20.7403662 148.68149,20.9182026 C148.191682,21.0958979 147.664853,21.1789541 147.103852,21.1789541 C146.673846,21.1789541 146.279436,21.1196282 145.933438,20.9892525 C145.574624,20.8588767 145.275614,20.6693163 145.025014,20.4085648 C144.774414,20.1478133 144.583617,19.8158707 144.439807,19.4248847 C144.308812,19.0337575 144.236195,18.5597152 144.236195,18.0144819 L144.236195,11.0219347 Z M158.847861,9.38609337 C159.313464,9.38609337 159.74347,9.42168892 160.149271,9.50460394 C160.54368,9.58766021 160.926699,9.70617078 161.272698,9.883866 L160.878288,11.4009143 C160.53229,11.2194052 160.162086,11.087617 159.779067,11.009787 C159.373266,10.926872 158.966042,10.8794113 158.573056,10.8794113 C158.034836,10.8794113 157.533637,10.9861979 157.079425,11.1876235 C156.625214,11.4009143 156.230804,11.6853961 155.909011,12.0646582 C155.585795,12.4439202 155.335195,12.8942321 155.144398,13.4276003 C154.964991,13.9609685 154.869592,14.5416561 154.869592,15.1935349 L154.869592,22.4349684 L153.316159,22.4349684 L153.316159,9.61139057 L154.856778,9.61139057 L154.856778,11.7920415 C155.275393,11.0335174 155.836394,10.4528297 156.517,10.0261069 C157.19903,9.59952539 157.975034,9.38609337 158.835047,9.38609337 L158.847861,9.38609337 Z M173.411117,22.4232445 L174.963126,22.4232445 L174.963126,9.61139057 L173.411117,9.61139057 L173.411117,12.0765234 C172.884288,11.2825449 172.203682,10.6306662 171.34367,10.1447588 C170.483658,9.6588513 169.468444,9.40996499 168.285215,9.40996499 C167.376792,9.40996499 166.529594,9.57579503 165.740775,9.90773762 C164.951956,10.239539 164.27135,10.701716 163.697534,11.2944101 C163.123717,11.886963 162.669506,12.5861612 162.334898,13.392146 C162.001715,14.1979896 161.833699,15.0868895 161.833699,16.0351153 C161.833699,16.9831998 162.001715,17.8720997 162.334898,18.6780846 C162.669506,19.4839282 163.123717,20.1832676 163.697534,20.7639553 C164.279893,21.3524118 164.974737,21.8198152 165.740775,22.1387626 C166.529594,22.4705639 167.376792,22.6365352 168.285215,22.6365352 C169.468444,22.6365352 170.483658,22.3876489 171.34367,21.9017415 C172.203682,21.415834 172.884288,20.7639553 173.411117,19.9579704 L173.411117,22.4232445 Z M168.464622,10.8556809 C167.094867,10.8291255 165.776371,11.3754889 164.832351,12.360864 C164.390954,12.8230411 164.043532,13.3682744 163.792932,13.9964228 C163.542333,14.6245712 163.422728,15.300039 163.422728,16.0229676 C163.422728,16.7460374 163.542333,17.4215053 163.792932,18.0496537 C164.043532,18.677802 164.390954,19.2230354 164.832351,19.6852125 C165.286563,20.1473896 165.811968,20.5147865 166.434195,20.775538 C167.054999,21.0362894 167.724214,21.1666652 168.464622,21.1666652 C169.20503,21.1666652 169.874245,21.0362894 170.483658,20.775538 C171.701059,20.2709852 172.652199,19.2882939 173.112106,18.0615188 C173.362706,17.4333705 173.48231,16.7577614 173.48231,16.0229676 C173.48231,15.2881738 173.362706,14.6008408 173.112106,13.9726924 C172.861506,13.344544 172.514084,12.7993107 172.072687,12.3371336 C171.617051,11.8767928 171.078832,11.5067121 170.483658,11.2468081 C169.874245,10.9860566 169.193639,10.8556809 168.464622,10.8556809 Z M187.387741,9.90787887 C186.563326,9.5640711 185.679108,9.39824106 184.712306,9.39824106 L184.723696,9.41010624 C183.74408,9.41010624 182.859862,9.58780146 182.048261,9.91974405 C181.246627,10.2515454 180.541815,10.7137225 179.956608,11.3062753 C179.371401,11.8989694 178.917189,12.5981676 178.595397,13.4041525 C178.27218,14.2099961 178.105588,15.0988959 178.105588,16.0352565 C178.105588,16.9714759 178.27218,17.8485106 178.595397,18.6544954 C179.209081,20.2403335 180.459231,21.5021391 182.048261,22.1389038 C182.859862,22.4707052 183.768285,22.6366765 184.723696,22.6366765 C185.679108,22.6366765 186.57614,22.4707052 187.387741,22.1270387 C188.200766,21.7833721 188.905578,21.2855995 189.490785,20.645586 L188.511168,19.5788496 C188.02136,20.0647571 187.447544,20.4440191 186.802534,20.7403662 C186.157525,21.0367132 185.441323,21.1789541 184.676709,21.1789541 C183.970474,21.1789541 183.314074,21.0485784 182.704661,20.7878269 C182.095248,20.5270754 181.569843,20.1715437 181.115631,19.7210905 C180.66142,19.2707786 180.315421,18.7255453 180.064822,18.0973969 C179.814222,17.4692485 179.681803,16.7819155 179.681803,16.0352565 C179.681803,15.2885976 179.814222,14.6011233 180.064822,13.9729749 C180.315421,13.3448266 180.66142,12.7997344 181.115631,12.3374161 C182.051108,11.3876366 183.336855,10.8569522 184.676709,10.8678286 C185.394335,10.8609072 186.106266,11.0021594 186.766938,11.2826862 C187.387741,11.5553029 187.961558,11.9462889 188.462757,12.4440615 L189.479394,11.3893316 C188.905578,10.7374528 188.212157,10.2515454 187.387741,9.90787887 Z M197.80044,9.39824106 C198.657605,9.39894732 199.456391,9.56477736 200.195376,9.88414851 C200.935783,10.2040847 201.569402,10.6545378 202.107622,11.2352255 C202.644417,11.8159131 203.063033,12.5033874 203.373434,13.309231 C203.683836,14.1152159 203.851852,14.9922506 203.851852,15.9403351 L203.851852,16.2722777 C203.851852,16.3789231 203.851852,16.4737033 203.827646,16.5803486 L192.99206,16.5803486 C193.051862,17.3270076 193.218454,17.9907515 193.493259,18.5714392 C193.768065,19.1522681 194.138269,19.6500407 194.58109,20.0530331 C195.033878,20.4558843 195.547892,20.7640965 196.121708,20.9773873 C196.706915,21.1906781 197.327718,21.2855995 197.985542,21.2855995 C198.893966,21.2855995 199.705567,21.1196282 200.423193,20.7996921 C201.139396,20.4677495 201.784405,20.0293028 202.358221,19.460339 L203.194028,20.5270754 C202.788227,20.9300678 202.358221,21.2737343 201.939606,21.546351 C201.5096,21.8188264 201.079594,22.0322585 200.638196,22.1980885 C200.195376,22.3640598 199.741164,22.4707052 199.286952,22.5418963 C198.834164,22.6010809 198.367137,22.6366765 197.901535,22.6366765 C196.957514,22.6366765 196.086111,22.4707052 195.285901,22.150769 C194.484267,21.8306916 193.803661,21.3803797 193.229845,20.7996921 C192.657453,20.2188632 192.203241,19.5196649 191.880024,18.7136801 C191.558232,17.9078365 191.403031,17.0070714 191.403031,16.0233914 C191.403031,15.0397113 191.569623,14.1745418 191.892839,13.3566917 C192.214632,12.5389829 192.668844,11.8396435 193.24266,11.2589558 C193.816476,10.6782682 194.497082,10.2159498 195.273086,9.88414851 C196.060482,9.55305343 196.894865,9.39894732 197.80044,9.39824106 Z M195.966507,11.1045672 C196.503303,10.8794113 197.112715,10.7727659 197.770539,10.7727659 L197.770539,10.7609007 C198.367137,10.7609007 198.928139,10.8794113 199.454968,11.092702 C199.980372,11.3061341 200.445975,11.614205 200.840385,12.0053323 C201.234794,12.3964595 201.556587,12.8586366 201.808611,13.4157351 C202.05921,13.9726924 202.201596,14.5772517 202.261399,15.2408544 L193.014842,15.2408544 C193.087459,14.5889756 193.254051,13.9845576 193.517465,13.4394655 C194.00585,12.3820518 194.881524,11.5476753 195.966507,11.1045672 Z" id="Shape" fill="#FFFFFF"></path>
        </g>
    </g>
</svg>