<?xml version="1.0" encoding="UTF-8"?>
<svg width="108px" height="40px" viewBox="0 0 108 40" version="1.1" xmlns="http://www.w3.org/2000/svg" xmlns:xlink="http://www.w3.org/1999/xlink">
    <title>partner-corporater</title>
    <g id="partner-corporater" stroke="none" stroke-width="1" fill="none" fill-rule="evenodd">
        <g id="logo-corporater.26491de" fill-rule="nonzero">
            <path d="M5.41135276,26.0852383 C3.77536332,26.0852383 2.42252513,25.5464442 1.47868762,24.5004632 C0.471918755,23.4227412 0,21.9330553 0,19.9679235 C0,18.0978809 0.471918755,16.608195 1.47868762,15.4988658 C2.42252513,14.3577956 3.77536332,13.8507426 5.41135276,13.8507426 C5.85180584,13.8507426 6.22934084,13.8507426 6.57542344,13.8823497 C6.92149277,13.9774389 7.26757538,14.0091799 7.61364471,14.1042691 C7.83387788,14.1993583 8.14848154,14.3261885 8.43163279,14.4528848 C8.68333164,14.579715 8.96648289,14.7064113 9.12378472,14.8015005 L9.12378472,17.5908278 L8.87209914,17.5908278 C8.74624972,17.4957386 8.55748221,17.3371674 8.33724904,17.146989 C8.11702914,16.9568107 7.89679596,16.7983733 7.64511038,16.608195 C7.39341153,16.4180166 7.11026027,16.2913203 6.76419095,16.1644901 C6.44957402,16.0694009 6.16642276,15.9743117 5.82035344,15.9743117 C5.44281843,15.9743117 5.03381775,16.0694009 4.7506665,16.1962311 C4.4045839,16.3229274 4.08998024,16.5448468 3.80681571,16.8934625 C3.49221206,17.2104711 3.27197888,17.5908278 3.11467706,18.1296219 C2.92590956,18.668416 2.8629782,19.20721 2.8629782,19.9363164 C2.8629782,20.6652888 2.95736196,21.299172 3.11467706,21.806359 C3.33489696,22.2818049 3.55513014,22.6937687 3.83828139,22.9790363 C4.08998024,23.2960449 4.43604957,23.5178303 4.7821189,23.6446606 C5.1282015,23.7714908 5.47427083,23.8348389 5.82035344,23.8348389 C6.19788844,23.8348389 6.54395777,23.8030979 6.8900271,23.6446606 C7.20464403,23.5178303 7.48779528,23.3911341 7.70802846,23.2009557 C7.95971403,23.0741255 8.17994721,22.8839471 8.36871471,22.7255098 C8.55748221,22.5353314 8.71479732,22.4085012 8.84063347,22.2818049 L9.09233232,22.2818049 L9.09233232,25.0392573 L8.40018039,25.387873 C8.14848154,25.5147032 7.83387788,25.6097924 7.58217903,25.7366226 C7.2361097,25.8317118 6.8900271,25.9268009 6.63834152,25.9584081 C6.35519027,26.0852383 5.91473719,26.0852383 5.41135276,26.0852383 Z M18.1846115,19.9679235 C18.1846115,19.2706921 18.0902145,18.668416 17.9644846,18.1613629 C17.8386219,17.685917 17.6498278,17.2420782 17.3981024,16.9252036 C17.1778427,16.608195 16.92625,16.3546685 16.6115933,16.2278382 C16.2969365,16.1011419 16.0138782,16.0060528 15.6677558,16.0060528 C15.3216333,16.0060528 15.0071093,16.1011419 14.7553839,16.2278382 C14.4407272,16.3546685 14.1890018,16.5764539 13.9374091,16.9252036 C13.7171494,17.2420782 13.559821,17.6224349 13.371027,18.1613629 C13.2451643,18.6366749 13.1823657,19.238951 13.1823657,19.9679235 C13.1823657,20.6968959 13.2136986,21.3309131 13.371027,21.7746179 C13.4968897,22.2500639 13.6856837,22.6937687 13.9374091,23.0107773 C14.1576689,23.327652 14.4721928,23.5813124 14.7553839,23.7080087 C15.0700407,23.8348389 15.353099,23.9299281 15.6677558,23.9299281 C16.0138782,23.9299281 16.3284022,23.8348389 16.6115933,23.7080087 C16.92625,23.5178303 17.1778427,23.327652 17.4295681,23.0107773 C17.6498278,22.6620277 17.8071562,22.2818049 17.9644846,21.7746179 C18.1216802,21.3309131 18.1846115,20.6968959 18.1846115,19.9679235 Z M21.0475897,19.9679235 C21.0475897,21.9014482 20.5757374,23.3911341 19.6318999,24.4687222 C18.625131,25.5464442 17.3351711,26.1169793 15.6992214,26.1169793 C14.0632718,26.1169793 12.7103805,25.5464442 11.766543,24.4687222 C10.8227055,23.327652 10.3822392,21.8379661 10.3822392,19.9679235 C10.3822392,18.0978809 10.8227055,16.608195 11.766543,15.4671248 C12.7103805,14.3895367 14.0632718,13.8507426 15.6992214,13.8507426 C17.3351711,13.8507426 18.6565967,14.3895367 19.6318999,15.4671248 C20.5757374,16.5448468 21.0475897,18.0978809 21.0475897,19.9679235 Z M28.6926868,17.685917 C28.6926868,17.3689084 28.6612212,17.1153819 28.5040256,16.8934625 C28.4096285,16.6715431 28.2523001,16.5131058 27.9691091,16.4180166 C27.780315,16.3229274 27.6231194,16.2913203 27.4028597,16.2278382 C27.1825999,16.2278382 26.9308745,16.2278382 26.5848849,16.2278382 L25.672513,16.2278382 L25.672513,19.3657813 L26.4590222,19.3657813 C26.8364775,19.3657813 27.1825999,19.3657813 27.465791,19.3340402 C27.7173837,19.238951 28.0005747,19.1438619 28.1579031,18.9854245 C28.3466972,18.8585943 28.4725599,18.668416 28.5354912,18.4464965 C28.6612212,18.2564521 28.6926868,18.0027917 28.6926868,17.685917 Z M33.1602818,25.8633189 L29.7623871,25.8633189 L26.6792819,21.5526985 L25.672513,21.5526985 L25.672513,25.8633189 L22.9037991,25.8633189 L22.9037991,14.0725281 L27.371394,14.0725281 C27.9691091,14.0725281 28.5040256,14.1042691 28.9758779,14.1993583 C29.4163974,14.2944475 29.8567841,14.4528848 30.2343722,14.7381523 C30.6118275,14.9916789 30.95795,15.3404285 31.1782097,15.7523923 C31.3984694,16.1962311 31.5241994,16.7032841 31.5241994,17.3371674 C31.5241994,18.2564521 31.3355381,18.9854245 30.95795,19.5242186 C30.5803619,20.0947537 30.0455781,20.5701996 29.3849317,20.8870743 L33.1602818,25.8633189 Z M39.7356786,17.8760954 C39.7356786,17.5273458 39.6412816,17.2738192 39.5154189,16.9885517 C39.3895562,16.7666323 39.1694292,16.608195 38.9806352,16.5131058 C38.7289098,16.3862756 38.4457187,16.3229274 38.1941261,16.2913203 C37.9738663,16.2913203 37.6277439,16.2913203 37.2502886,16.2913203 L36.8727004,16.2913203 L36.8727004,19.7777451 L37.0614945,19.7777451 C37.3130871,19.7777451 37.5962782,19.7777451 37.7850723,19.7777451 C38.0367977,19.7777451 38.2255917,19.746138 38.3827873,19.746138 C38.5715814,19.714397 38.6974441,19.6510488 38.8547725,19.5559596 C39.0435665,19.4608704 39.1694292,19.4291294 39.2322278,19.3022992 C39.4210219,19.1121208 39.5468846,18.9219425 39.6098159,18.700157 C39.704213,18.5099786 39.7356786,18.2247111 39.7356786,17.8760954 Z M42.5986568,17.7810062 C42.5986568,18.3515413 42.5042598,18.8585943 42.3469314,19.3657813 C42.2210687,19.9045753 41.9694761,20.2849321 41.6548193,20.6335478 C41.4660253,20.8237261 41.2772312,21.0139045 41.0571043,21.2040828 C40.8368445,21.3942612 40.5851191,21.5210914 40.3333937,21.6477877 C40.0188697,21.7746179 39.7671443,21.8697071 39.4210219,21.9014482 C39.1064979,21.9965373 38.7603755,22.0281445 38.3513217,22.0281445 L36.9356318,22.0281445 L36.9356318,25.8633189 L34.1041193,25.8633189 L34.1041193,14.0725281 L38.3827873,14.0725281 C38.9806352,14.0725281 39.5468846,14.1042691 40.0188697,14.2627064 C40.4907221,14.3895367 40.8997759,14.6113221 41.2772312,14.8649826 C41.7177507,15.1818572 42.0009418,15.562214 42.2210687,16.0376599 C42.4727941,16.5131058 42.5986568,17.1153819 42.5986568,17.7810062 Z M51.6595766,19.9679235 C51.6595766,19.2706921 51.5651796,18.668416 51.4393169,18.1613629 C51.3134542,17.685917 51.0931944,17.2420782 50.8729347,16.9252036 C50.6528077,16.608195 50.338151,16.3546685 50.0864256,16.2278382 C49.7719016,16.1011419 49.4887105,16.0060528 49.1425881,16.0060528 C48.7965984,16.0060528 48.4819416,16.1011419 48.2302162,16.2278382 C47.9155595,16.3546685 47.6639668,16.5764539 47.4122414,16.9252036 C47.1919817,17.2420782 47.0346533,17.6224349 46.845992,18.1613629 C46.7201293,18.6366749 46.6257323,19.238951 46.6257323,19.9679235 C46.6257323,20.6968959 46.7201293,21.3309131 46.845992,21.7746179 C46.971722,22.2500639 47.160516,22.6937687 47.4122414,23.0107773 C47.6325012,23.327652 47.9470251,23.5813124 48.1987506,23.7080087 C48.5134073,23.8348389 48.859397,23.9299281 49.1425881,23.9299281 C49.4887105,23.9299281 49.8033673,23.8348389 50.0864256,23.7080087 C50.4010823,23.5178303 50.6528077,23.327652 50.8729347,23.0107773 C51.1246601,22.6620277 51.3134542,22.2818049 51.4393169,21.7746179 C51.5966452,21.3309131 51.6595766,20.6968959 51.6595766,19.9679235 Z M54.5225548,19.9679235 C54.5225548,21.9014482 54.0505697,23.3911341 53.0438008,24.4687222 C52.0999633,25.5464442 50.7785377,26.1169793 49.1425881,26.1169793 C47.4437071,26.1169793 46.1537472,25.5464442 45.2099096,24.4687222 C44.2660721,23.327652 43.7942198,21.8379661 43.7942198,19.9679235 C43.7942198,18.0978809 44.2660721,16.608195 45.2099096,15.4671248 C46.1537472,14.3895367 47.4751728,13.8507426 49.1425881,13.8507426 C50.7785377,13.8507426 52.0999633,14.3895367 53.0438008,15.4671248 C54.0505697,16.5448468 54.5225548,18.0978809 54.5225548,19.9679235 Z M60.8462263,14.0725281 C61.4439414,14.0725281 61.9788579,14.1042691 62.4507102,14.1993583 C62.8912297,14.2944475 63.3316164,14.4528848 63.7092045,14.7381523 C64.0867926,14.9916789 64.4013166,15.3404285 64.653042,15.7523923 C64.8733017,16.1962311 64.9991644,16.7032841 64.9991644,17.3371674 C64.9991644,18.2564521 64.7789047,18.9854245 64.4327823,19.5242186 C64.0553269,20.0947537 63.5204104,20.5701996 62.859764,20.8870743 L66.4573396,25.6290781 L70.127273,14.0725281 L73.1475796,14.0725281 L76.9229296,25.8633189 L74.0599514,25.8633189 L73.3678393,23.5178303 L69.8442147,23.5178303 L69.1519698,25.8633189 L63.2373521,25.8633189 L60.1541142,21.5526985 L59.1473453,21.5526985 L59.1473453,25.8633189 L56.3787641,25.8633189 L56.3787641,14.0725281 L60.8462263,14.0725281 Z M85.8894524,14.0725281 L85.8894524,16.3546685 L82.648886,16.3546685 L82.648886,25.8633189 L79.8488392,25.8633189 L79.8488392,16.3546685 L76.57694,16.3546685 L76.57694,14.0725281 L85.8894524,14.0725281 Z M71.606027,17.4322566 L70.4419298,21.3309131 L72.7386586,21.3309131 L71.606027,17.4322566 Z M60.877692,16.2278382 L59.1473453,16.2278382 L59.1473453,19.3657813 L59.9338545,19.3657813 C60.3114426,19.3657813 60.6574322,19.3657813 60.9406233,19.3340402 C61.1923487,19.238951 61.4124757,19.1438619 61.6327354,18.9854245 C61.8215295,18.8585943 61.9473922,18.668416 62.0103235,18.4464965 C62.1361862,18.2564521 62.1676519,18.0027917 62.1676519,17.685917 C62.1676519,17.3689084 62.1361862,17.1153819 61.9788579,16.8934625 C61.8844608,16.6715431 61.7271324,16.5131058 61.4439414,16.4180166 C61.2552801,16.3229274 61.0979517,16.2913203 60.877692,16.2278382 Z M87.2423436,25.8633189 L87.2423436,14.0725281 L94.7301124,14.0725281 L94.7301124,16.3546685 L90.0109248,16.3546685 L90.0109248,18.3831484 L94.3839899,18.3831484 L94.3839899,20.6652888 L90.0109248,20.6652888 L90.0109248,23.6446606 L94.7301124,23.6446606 L94.7301124,25.8633189 L87.2423436,25.8633189 Z M102.532538,17.685917 C102.532538,17.3689084 102.501072,17.1153819 102.343744,16.8934625 C102.249347,16.6715431 102.092018,16.5131058 101.80896,16.4180166 C101.620166,16.3229274 101.462838,16.2913203 101.242578,16.2278382 C101.022318,16.2278382 100.770726,16.2278382 100.424603,16.2278382 L99.543697,16.2278382 L99.543697,19.3657813 L100.330206,19.3657813 C100.707794,19.3657813 101.053784,19.3657813 101.336975,19.3340402 C101.5887,19.238951 101.80896,19.1438619 102.029087,18.9854245 C102.217881,18.8585943 102.343744,18.668416 102.406675,18.4464965 C102.501072,18.2564521 102.532538,18.0027917 102.532538,17.685917 Z M107,25.8633189 L103.633704,25.8633189 L100.550466,21.5526985 L99.543697,21.5526985 L99.543697,25.8633189 L96.7751158,25.8633189 L96.7751158,14.0725281 L101.242578,14.0725281 C101.840426,14.0725281 102.375209,14.1042691 102.847195,14.1993583 C103.287581,14.2944475 103.728101,14.4528848 104.105556,14.7381523 C104.483144,14.9916789 104.797668,15.3404285 105.049394,15.7523923 C105.269653,16.1962311 105.395516,16.7032841 105.395516,17.3371674 C105.395516,18.2564521 105.175256,18.9854245 104.829134,19.5242186 C104.451679,20.0947537 103.916762,20.5701996 103.256116,20.8870743 L107,25.8633189 Z" id="Shape" fill="#FFFFFF"></path>
            <path d="M55.0574713,36.9888872 L55.0574713,40 L51.911302,40 L51.911302,36.9888872 C46.2797426,36.4817002 41.4346924,33.1537128 38.7605082,28.4309947 L42.5358583,28.4309947 C45.052714,31.7591161 49.0168581,33.8826852 53.5157859,33.8826852 C57.9833809,33.8826852 61.9475249,31.727375 64.4958464,28.4309947 L68.2711964,28.4309947 C65.5340809,33.1537128 60.7204964,36.4500931 55.0574713,36.9888872 Z M64.4643807,11.5372362 C61.9475249,8.20918174 57.9833809,6.08557243 53.4843203,6.08557243 C49.0168581,6.08557243 45.052714,8.2408826 42.5043926,11.5372362 L38.7290425,11.5372362 C41.4032267,6.81457164 46.248277,3.51821807 51.8798363,2.97939722 L51.8798363,0 L55.0260056,0 L55.0260056,3.01108469 C60.657565,3.51821807 65.5026153,6.8462725 68.1767994,11.5689236 L64.4643807,11.5689236 L64.4643807,11.5372362 Z" id="Shape" fill="#A1C9ED"></path>
        </g>
    </g>
</svg>