<?xml version="1.0" encoding="UTF-8"?>
<svg width="77px" height="40px" viewBox="0 0 77 40" version="1.1" xmlns="http://www.w3.org/2000/svg" xmlns:xlink="http://www.w3.org/1999/xlink">
    <title>partner-cda</title>
    <g id="partner-cda" stroke="none" stroke-width="1" fill="none" fill-rule="evenodd">
        <g id="logo-CDA.d0b9902" transform="translate(1.066667, 5.066667)" fill="#FFFFFF">
            <path d="M68.2681443,22.6550127 L56.4347517,22.6550127 L53.3554824,29.3657414 L48.8622629,29.3657414 L62.5393061,0 L75.7333333,29.3657414 L71.1684135,29.3657414 L68.2681443,22.6550127 Z M21.8048385,3.22104959 L21.8048385,8.16007246 C19.3941035,6.14391508 16.8996346,5.1358197 14.3217494,5.1358197 C11.4812806,5.1358197 9.08834536,6.1558371 7.1429772,8.19580512 C5.1856757,10.2240515 4.20700824,12.7054682 4.20700824,15.6402224 C4.20700824,18.5392438 5.1856757,20.9847609 7.1429772,22.9771076 C9.1002787,24.9694544 11.4991806,25.9656277 14.3396494,25.9656277 C15.8076339,25.9656277 17.0549018,25.7270203 18.0812691,25.2498055 C18.654036,25.0111981 19.2448532,24.6891032 19.8535538,24.2835207 C20.4741208,23.8779382 21.1246047,23.3887012 21.8048385,22.8161437 L21.8048385,27.8447653 C19.4178365,29.1927552 16.9116683,29.8666667 14.2859494,29.8666667 C10.3355464,29.8666667 6.96396041,28.4887883 4.17119151,25.7330314 C1.39038937,22.9532302 0,19.6008714 0,15.675955 C0,12.1566211 1.16365594,9.0189923 3.49092436,6.26321878 C6.35527658,2.88701594 10.0610294,1.19891451 14.608183,1.19891451 C17.0906683,1.19891451 19.4895368,1.87297624 21.8048385,3.22104959 Z M26.7526613,29.3654075 L26.7526613,1.73560583 L32.5530327,1.73560583 C35.3339685,1.73560583 37.5299368,2.0099793 39.1412717,2.55877631 C40.8714387,3.09560121 42.4409902,4.00827034 43.849425,5.29671689 C46.7017269,7.89742064 48.128045,11.3154007 48.128045,15.5505567 C48.128045,19.7975681 46.6422274,23.2334144 43.670425,25.8580958 C42.1785905,27.170186 40.6150558,28.0832058 38.9798207,28.5958193 C37.4522196,29.1089337 35.2861683,29.3654075 32.4816666,29.3654075 L26.7526613,29.3654075 Z M32.8032316,25.4465022 L30.9234801,25.4465022 L30.9234801,5.65459459 L32.8032316,5.65459459 C36.3596674,5.65459459 39.0508525,6.4956648 40.876787,8.17777181 C42.9056216,10.0627536 43.9204568,12.5202929 43.9204568,15.5505567 C43.9204568,18.5569432 42.8940894,20.9966161 40.8413546,22.8695757 C39.8383859,23.7762504 38.7167524,24.4384736 37.4754512,24.8559113 C36.2344843,25.2496386 34.6769663,25.4465022 32.8032316,25.4465022 Z M62.4664359,9.34142119 L66.5660558,18.7362744 L58.1697655,18.7362744 L62.4664359,9.34142119 Z" id="Shape"></path>
        </g>
    </g>
</svg>