<?xml version="1.0" encoding="UTF-8"?>
<svg width="134px" height="40px" viewBox="0 0 134 40" version="1.1" xmlns="http://www.w3.org/2000/svg" xmlns:xlink="http://www.w3.org/1999/xlink">
    <title>partner-corporater</title>
    <g id="partner-corporater" stroke="none" stroke-width="1" fill="none" fill-rule="evenodd">
        <g id="logo-certik" transform="translate(-0.000000, 4.000000)" fill="#FFFFFF" fill-rule="nonzero">
            <path d="M0.943163488,4.15589776 C1.02679386,4.14933596 1.11087711,4.15954676 1.19055081,4.18595405 C1.27023246,4.21235334 1.34391553,4.25442093 1.40733351,4.30970817 C1.47075944,4.36499542 1.52264905,4.43241402 1.56001496,4.50804287 L1.53552253,4.46314419 C1.54292386,4.4752896 1.54991345,4.48767121 1.55648166,4.5002672 L7.22662477,15.6421818 L21.9219293,15.6426893 C21.9885617,15.6426893 22.0541083,15.6532611 22.1163679,15.6734778 L22.1813375,15.5495437 L27.4457767,4.51696532 C27.5202225,4.36603571 27.6507608,4.25078793 27.8091071,4.1962849 C27.8157844,4.19398657 27.8224882,4.19180412 27.8292157,4.18973734 C27.8594618,4.18088278 27.8900498,4.17338783 27.9211334,4.16820516 C28.0036832,4.15444937 28.0881399,4.15727414 28.1695775,4.17653545 C28.2510149,4.19579677 28.3279237,4.2311025 28.3957751,4.2804201 C28.4636264,4.3297377 28.5211491,4.39209089 28.5649268,4.46389469 C28.6087044,4.53569049 28.6380219,4.61551251 28.6510519,4.69876746 L28.8182967,5.71704026 C28.9620241,6.73319248 29.0290809,7.75887532 29.0186728,8.78527836 C29.0178782,11.0026898 28.7524318,13.211939 28.2280535,15.3655729 C27.5148993,18.3059837 26.2730763,21.0899514 24.5640802,23.5797581 C22.5842349,26.4450282 19.716363,29.2611648 15.5949888,31.4984217 L14.8121557,31.9233389 C14.7198334,31.9736727 14.6164674,32 14.5115123,32 C14.4065572,32 14.3032706,31.9736727 14.2108688,31.9233389 L14.2907543,31.9599759 C14.2496405,31.9450445 14.2099948,31.9258044 14.1724938,31.9024531 L14.2380683,31.936 L14.2108688,31.9233389 L13.4269234,31.4984217 C9.30117951,29.2622851 6.43440404,26.4450282 4.45788765,23.5797581 C2.74802549,21.0897914 1.5054399,18.3054236 0.791649976,15.3644527 C0.26728372,13.2108187 0.00184428366,11.0015695 0.00104738773,8.78415804 C-0.00934801229,7.75775501 0.0576508335,6.73207216 0.201467109,5.71591996 L0.360783449,4.7378846 C0.364762619,4.69118807 0.373844113,4.64496113 0.387935987,4.60005225 C0.413214193,4.51950204 0.454112512,4.44480143 0.508260916,4.38028764 C0.562410112,4.31576585 0.628732033,4.26271121 0.703387595,4.2241966 C0.778039979,4.18568198 0.859541059,4.16246758 0.943163488,4.15589776 Z M21.4545839,16.9192727 L7.8765011,16.9192727 L14.525019,29.9816033 L21.4545839,16.9192727 Z M1.34302269,6.89081479 C1.2876498,7.52012092 1.26325989,8.15200841 1.27000205,8.78415804 C1.27120176,10.8974608 1.52437314,13.0030014 2.02406581,15.0554874 C2.70001311,17.8444964 3.87728183,20.4852247 5.49763422,22.8469959 C7.20250249,25.3152394 9.59690971,27.7465745 12.9878137,29.7795783 L1.34302269,6.89081479 Z M27.6782828,6.98571763 L23.3152657,16.1161799 L23.3031096,16.1406666 L16.0836305,29.7445123 C19.4438575,27.718647 21.8214047,25.3010643 23.5154828,22.8469959 C25.1358114,20.4852247 26.3131198,17.8444964 26.9890114,15.0554874 C27.4888392,13.0026013 27.7419708,10.8967406 27.7430831,8.78303773 C27.7494626,8.18303632 27.7278298,7.58326791 27.6782828,6.98571763 Z M48.8024284,10.0829549 L48.8024284,11.4101622 L39.0291316,11.4101622 C38.8602182,11.4110424 38.6984555,11.4790612 38.5790403,11.5993344 C38.4596251,11.7196075 38.392171,11.8824524 38.3912971,12.0525793 L38.3912971,19.953318 C38.3924094,20.1232849 38.4600224,20.2860497 38.5793582,20.4062429 C38.6986939,20.5265161 38.8602977,20.5945348 39.0291316,20.5957351 L48.8024284,20.5957351 L48.8024284,21.9340655 L39.0291316,21.9340655 C38.7712328,21.9352246 38.5157176,21.8849708 38.2772051,21.7861434 C38.0387718,21.6872362 37.8221084,21.5418361 37.6397678,21.3581855 C37.4574271,21.1745348 37.3130643,20.9563146 37.2148625,20.7161684 C37.1167403,20.4759421 37.0668449,20.2185911 37.0679956,19.9589196 L37.0679956,12.0581809 C37.0668449,11.7984293 37.1167403,11.5410783 37.2148625,11.3009321 C37.3130643,11.0607058 37.4574271,10.8424856 37.6397678,10.658835 C37.8221084,10.4751844 38.0387718,10.3297843 38.2772051,10.230957 C38.5157176,10.1320497 38.7712328,10.0817959 39.0291316,10.0829549 L48.8024284,10.0829549 Z M67.1543137,10.0762744 L67.1543137,11.4146434 L57.741964,11.4146434 L57.741964,15.325962 L65.3072313,15.325962 L65.3072313,16.6754541 L57.7408517,16.6754541 L57.7408517,20.5934945 L67.1532014,20.5934945 L67.1532014,21.9318636 L56.4120296,21.9318636 L56.4120296,10.0762744 L67.1543137,10.0762744 Z M14.5703444,0.00309963483 L14.692979,0.0278967133 L24.5116424,3.04700797 C24.6725311,3.09695775 24.807201,3.20906067 24.8861755,3.35878195 C24.9651501,3.50850324 24.9820731,3.68363953 24.9331312,3.84587628 C24.8842686,4.008113 24.7735137,4.14422255 24.6252577,4.22442865 C24.4769223,4.30463478 24.3030829,4.32239968 24.1417969,4.27383428 L14.5080959,1.31160143 L5.08476586,4.21137706 C5.00356669,4.2340153 4.91938017,4.2427057 4.83594048,4.23472751 C4.75250872,4.22674129 4.67145258,4.20223855 4.59744375,4.16262762 C4.52342697,4.1230087 4.45791148,4.06906582 4.40465531,4.00387984 C4.35139914,3.93869386 4.31145107,3.86356115 4.28709927,3.78277887 C4.26274746,3.7020046 4.25447659,3.61718121 4.26275541,3.53317404 C4.27104217,3.44917488 4.29571178,3.36764039 4.33535794,3.29326788 C4.37501205,3.21889537 4.42884821,3.15314125 4.49379165,3.09977453 C4.55874305,3.04641581 4.63350666,3.00650081 4.71381598,2.98231814 L14.3231334,0.0278967133 C14.443661,-0.00929890444 14.5725309,-0.00929890444 14.692979,0.0278967133 L14.5703444,0.00309963483 Z M86.5361973,12.0681836 L86.5361973,15.5412214 C86.5377146,15.8008929 86.4876604,16.0581639 86.3891407,16.2983101 C86.2906212,16.5383763 86.1468146,16.7565965 85.9640767,16.9401671 C85.7821333,17.1238177 85.5652314,17.2692179 85.3268777,17.3681251 C85.088524,17.4670324 84.832691,17.5174463 84.575269,17.516406 L82.778082,17.516406 L86.4709756,21.9273824 L84.7222539,21.9273824 L81.0452506,17.516406 L76.7264401,17.516406 C76.5128751,17.5054431 76.2999459,17.4835169 76.0886055,17.4506279 L76.0886055,21.9273824 L74.7597836,21.9273824 L74.7597836,10.0929679 L84.5649403,10.0929679 C84.8231568,10.0919587 85.0781953,10.1423726 85.316549,10.2412799 C85.5556973,10.3401871 85.7718047,10.4855872 85.9545426,10.6692379 C86.1364859,10.8528885 86.2810871,11.0710287 86.3788122,11.3110949 C86.4773317,11.5512411 86.5273859,11.808512 86.5265915,12.0681836 L86.5361973,12.0681836 L86.5361973,12.0681836 Z M76.7308893,16.1669139 L84.575269,16.1669139 C84.6571038,16.1679542 84.7381441,16.15251 84.8144173,16.1213814 C84.889896,16.0903328 84.9590186,16.0443201 85.0170178,15.985984 C85.0750173,15.9276479 85.1203046,15.8582688 85.1512905,15.7819277 C85.1822765,15.7055066 85.1973722,15.6236441 85.1966352,15.5412214 L85.1966352,12.0681836 C85.1973722,11.9845606 85.1822765,11.9014177 85.152085,11.8237162 C85.121099,11.7460148 85.0750173,11.6751953 85.0170178,11.6154188 C84.9606076,11.5542019 84.8922794,11.5056285 84.8160063,11.4729795 C84.7397331,11.4402505 84.6571038,11.4242461 84.5744745,11.4257665 L76.729777,11.4257665 C76.5608637,11.4266467 76.3991804,11.4946655 76.2796858,11.6149386 C76.1602706,11.7352118 76.0928165,11.8981367 76.0919424,12.0681836 L76.0919424,15.5412214 C76.0901946,15.6247644 76.1060848,15.7076672 76.1385803,15.7845684 C76.1709964,15.8614697 76.2193029,15.9306087 76.2801625,15.9873444 C76.3396714,16.0459206 76.4101447,16.0920132 76.4875303,16.1228217 C76.5649158,16.1537103 76.6476244,16.1686743 76.7308893,16.1669139 L76.7308893,16.1669139 Z M93.5643821,10.0762744 L105.326343,10.0762744 L105.326343,11.4146434 L100.122287,11.4146434 L100.122287,21.9329039 L98.7930681,21.9329039 L98.7930681,11.4146434 L93.5643821,11.4146434 L93.5643821,10.0762744 Z M112.455503,21.9273824 L112.455503,10.0762744 L113.784722,10.0762744 L113.784722,21.9273824 L112.455503,21.9273824 Z M131.445144,10.0762744 L133.1454,10.0762744 L128.226574,16.0018284 L133.16129,21.9273824 L131.445144,21.9273824 L127.065791,16.6765744 L123.274378,16.6765744 L123.274378,21.9273824 L121.936419,21.9273824 L121.936419,10.0762744 L123.276762,10.0762744 L123.276762,15.325962 L127.068175,15.325962 L131.445144,10.0762744 Z" id="Shape"></path>
        </g>
    </g>
</svg>