<?xml version="1.0" encoding="UTF-8"?>
<svg width="144px" height="40px" viewBox="0 0 144 40" version="1.1" xmlns="http://www.w3.org/2000/svg" xmlns:xlink="http://www.w3.org/1999/xlink">
    <title>partner-amlbot</title>
    <g id="partner-amlbot" stroke="none" stroke-width="1" fill="none" fill-rule="evenodd">
        <g id="amlbot" transform="translate(1.000000, 5.000000)">
            <path d="M35.2844127,26.2910155 L29.1626059,26.2910155 L36.0600074,5.1337362 L43.8134666,5.1337362 L50.7108681,26.2910155 L44.5890613,26.2910155 L40.018444,10.9600428 L39.85503,10.9600428 L35.2844127,26.2910155 L35.2844127,26.2910155 Z M34.1421731,17.9442272 L45.6500086,17.9442272 L45.6500086,22.2417995 L34.1421731,22.2417995 L34.1421731,17.9442272 Z M52.7216079,5.13457524 L59.7824236,5.13457524 L64.6383934,17.1160929 L64.8830997,17.1160929 L69.7390695,5.13457524 L76.7990557,5.13457524 L76.7990557,26.2918545 L71.2496129,26.2918545 L71.2496129,14.0594634 L71.0861988,14.0594634 L66.4334597,26.1248852 L63.0872038,26.1248852 L58.4352943,13.9780763 L58.2718802,13.9780763 L58.2718802,26.2918545 L52.7224374,26.2918545 L52.7224374,5.1337362 L52.7216079,5.13457524 Z M79.4866782,26.2910155 L79.4866782,5.1337362 L85.1588889,5.1337362 L85.1588889,21.6628607 L93.6066504,21.6628607 L93.6066504,26.2910155 L79.4866782,26.2910155 Z M95.9002542,26.2910155 L95.9002542,5.1337362 L104.960196,5.1337362 C106.551203,5.1337362 107.887548,5.35104803 108.969233,5.78483267 C110.057555,6.21861731 110.877114,6.8319569 111.42791,7.62317337 C111.985343,8.41522887 112.264059,9.34908245 112.264059,10.423056 C112.264059,11.2016869 112.094009,11.9106772 111.754738,12.5508662 C111.419029,13.1940602 110.936088,13.7467024 110.346225,14.1626655 C109.740681,14.5905769 109.033935,14.8859196 108.224331,15.0512109 L108.224331,15.2576152 C109.121864,15.2920159 109.938105,15.5227524 110.673053,15.9498247 C111.401106,16.3634834 112.006768,16.9662553 112.427474,17.6958708 C112.862968,18.4325495 113.0803,19.3009578 113.0803,20.2994176 C113.0803,21.4564564 112.780846,22.4859607 112.182767,23.3879307 C111.591324,24.2907397 110.747709,24.998891 109.652752,25.5165799 C108.557795,26.0325906 107.251312,26.2910155 105.734962,26.2910155 L95.9002542,26.2910155 L95.9002542,26.2910155 Z M101.572465,21.7039737 L104.225248,21.7039737 C105.177529,21.7039737 105.89174,21.5252578 106.36788,21.1669869 C106.843191,20.8020037 107.082091,20.2650169 107.082091,19.5560266 C107.082091,19.0593138 106.970107,18.6397929 106.744479,18.2949467 C106.520511,17.9509395 106.201148,17.6891584 105.786392,17.5096035 C105.378271,17.3308876 104.884711,17.2411101 104.30654,17.2411101 L101.572465,17.2411101 L101.572465,21.7048127 L101.572465,21.7039737 Z M101.572465,13.6877679 L103.899249,13.6877679 C104.395298,13.6877679 104.833281,13.6080589 105.214857,13.450319 C105.595604,13.2909011 105.89174,13.0643598 106.102436,12.768178 C106.319768,12.4652839 106.428435,12.0969445 106.428435,11.6631599 C106.428435,11.0087072 106.197001,10.5094773 105.734962,10.1646311 C105.272923,9.81391164 104.687287,9.63771285 103.980541,9.63771285 L101.572465,9.63771285 L101.572465,13.6877679 Z M122.722561,26.5796459 C121.022059,26.5796459 119.566263,26.2381559 118.356004,25.5560148 C117.170958,24.8936475 116.202857,23.8957627 115.570499,22.6848136 C114.924308,21.4514221 114.601627,20.0225338 114.601627,18.3973098 C114.601627,16.7720857 114.924308,15.3465536 115.570499,14.1207135 C116.198819,12.906573 117.167917,11.9073685 118.356004,11.2486732 C119.566263,10.5606589 121.022059,10.2158127 122.722561,10.2158127 C124.423063,10.2158127 125.878029,10.5598198 127.089118,11.2486732 C128.276958,11.9074194 129.245776,12.9066322 129.873793,14.1207135 C130.519984,15.3457146 130.843494,16.7720857 130.843494,18.3973098 C130.843494,20.0225338 130.519984,21.4514221 129.873793,22.6848136 C129.241906,23.8960426 128.274063,24.8942498 127.089118,25.5568539 C125.878029,26.2381559 124.423063,26.5796459 122.722561,26.5796459 L122.722561,26.5796459 Z M122.763207,22.3642996 C123.221515,22.3712588 123.664399,22.1969475 123.997523,21.8784944 C124.344259,21.5554633 124.613021,21.0939903 124.803809,20.4940754 C124.993768,19.8958385 125.089162,19.1826529 125.089162,18.3561967 C125.089162,17.5230282 124.993768,16.8098426 124.803809,16.217479 C124.613021,15.6184032 124.344259,15.1569301 123.997523,14.83306 C123.664267,14.5149127 123.221399,14.3409086 122.763207,14.3480938 C122.259693,14.3480938 121.827516,14.5100289 121.467508,14.83306 C121.107499,15.1569301 120.831271,15.6184032 120.641312,16.217479 C120.450524,16.8098426 120.35513,17.5230282 120.35513,18.3561967 C120.35513,19.1826529 120.450524,19.8949995 120.641312,20.4949144 C120.831271,21.0939903 121.107499,21.5554633 121.467508,21.8793334 C121.827516,22.2023646 122.259693,22.3642996 122.763207,22.3642996 L122.763207,22.3642996 Z M142.472439,10.422217 L142.472439,14.5544981 L132.147489,14.5544981 L132.147489,10.422217 L142.472439,10.422217 Z M134.147445,6.61967931 L139.77901,6.61967931 L139.77901,21.1854458 C139.77901,21.4061138 139.816338,21.5915421 139.891823,21.7434087 C139.96648,21.8877239 140.081782,21.9984774 140.23856,22.0739912 C140.394508,22.1427926 140.59525,22.1771933 140.839957,22.1771933 C141.010007,22.1771933 141.207431,22.1570563 141.4314,22.1151042 C141.662834,22.0739912 141.832884,22.0395904 141.94238,22.0119021 L142.758621,26.020005 C142.506449,26.0955187 142.14644,26.1886524 141.676936,26.2994059 C141.214067,26.4093204 140.663271,26.481478 140.024545,26.5158787 C138.732164,26.5846801 137.647161,26.4504335 136.769536,26.1131386 C135.891911,25.7691315 135.232448,25.2279495 134.790318,24.4912707 C134.348187,23.754592 134.134173,22.8316459 134.147445,21.7224326 L134.147445,6.61967931 L134.147445,6.61967931 Z" id="Shape" fill="#FFFFFF" fill-rule="nonzero"></path>
            <path d="M13.0327233,1.40251709 C11.7527846,-0.510498333 8.94405316,-0.456799655 7.73711157,1.50404115 L0.475553742,13.2984524 C-0.170313593,14.3474856 -0.157377159,15.6798694 0.508734266,16.7158699 L8.10790393,28.54636 C9.35217361,30.4845467 12.1600755,30.4845467 13.4043452,28.54636 L20.9802885,16.7519487 C21.6697096,15.6789081 21.6566375,14.2925521 20.947108,13.2330072 L13.0318938,1.40251709 L13.0327233,1.40251709 Z M13.8995645,8.39089666 C13.6266547,13.3328532 9.78517946,17.3141067 4.93501626,17.7487304 L10.7565393,26.8120605 L18.3333121,15.0184882 L13.8995645,8.39005762 L13.8995645,8.39089666 Z" id="Shape" fill="#0057FF"></path>
        </g>
    </g>
</svg>