<?xml version="1.0" encoding="UTF-8"?>
<svg width="192px" height="40px" viewBox="0 0 192 40" version="1.1" xmlns="http://www.w3.org/2000/svg" xmlns:xlink="http://www.w3.org/1999/xlink">
    <title>partner-usdtblacklist</title>
    <g id="partner-usdtblacklist" stroke="none" stroke-width="1" fill="none" fill-rule="evenodd">
        <g id="LOGO" transform="translate(0.000000, 9.000000)" fill-rule="nonzero">
            <path d="M15.7645624,14.0981912 C15.7645624,15.3109388 15.5617435,16.4052541 15.1561056,17.381137 C14.7504678,18.3570198 14.1973252,19.1860465 13.496678,19.8682171 C12.7960308,20.5503876 11.966317,21.0762274 11.0075366,21.4457364 C10.0487562,21.8152455 9.00700438,22 7.88228121,22 C6.75755804,22 5.71580626,21.8152455 4.75702585,21.4457364 C3.79824545,21.0762274 2.96392212,20.5503876 2.25405585,19.8682171 C1.54418959,19.1860465 0.991047053,18.3570198 0.594628232,17.381137 C0.198209411,16.4052541 0,15.3109388 0,14.0981912 L0,1.36434109 L3.48479801,1.36434109 L3.48479801,13.9844961 C3.48479801,14.4771748 3.55855035,14.9935401 3.70605503,15.5335917 C3.8535597,16.0736434 4.09786433,16.5710594 4.43896889,17.0258398 C4.78007346,17.4806202 5.23180653,17.8548665 5.79416812,18.1485788 C6.3565297,18.4422911 7.0525674,18.5891473 7.88228121,18.5891473 C8.71199502,18.5891473 9.40803272,18.4422911 9.9703943,18.1485788 C10.5327559,17.8548665 10.984489,17.4806202 11.3255935,17.0258398 C11.6666981,16.5710594 11.9110027,16.0736434 12.0585074,15.5335917 C12.2060121,14.9935401 12.2797644,14.4771748 12.2797644,13.9844961 L12.2797644,1.36434109 L15.7645624,1.36434109 L15.7645624,14.0981912 Z M29.6484402,5.68475452 C29.2796785,5.13522825 28.7864597,4.73255814 28.1687839,4.47674419 C27.5511081,4.22093023 26.9011656,4.09302326 26.2189564,4.09302326 C25.8133186,4.09302326 25.4215093,4.14039621 25.0435285,4.23514212 C24.6655478,4.32988803 24.3244432,4.48148148 24.0202148,4.68992248 C23.7159864,4.89836348 23.4716818,5.16838932 23.287301,5.5 C23.1029201,5.83161068 23.0107297,6.2248062 23.0107297,6.67958656 C23.0107297,7.36175711 23.2412058,7.8828596 23.7021579,8.24289406 C24.16311,8.60292851 24.7346906,8.91559001 25.4168998,9.18087855 C26.0991089,9.4461671 26.8458513,9.70198105 27.6571271,9.94832041 C28.4684028,10.1946598 29.2151452,10.535745 29.8973543,10.9715762 C30.5795635,11.4074074 31.1511441,11.9853575 31.6120962,12.7054264 C32.0730483,13.4254953 32.3035244,14.3824289 32.3035244,15.5762274 C32.3035244,16.6563307 32.1099245,17.5990525 31.7227247,18.4043928 C31.335525,19.209733 30.8146491,19.8776916 30.1600971,20.4082687 C29.505545,20.9388458 28.7449741,21.3367786 27.8783841,21.6020672 C27.0117941,21.8673557 26.0991089,22 25.1403285,22 C23.9234149,22 22.7525965,21.791559 21.6278734,21.374677 C20.5031502,20.957795 19.5351507,20.2566753 18.723875,19.2713178 L21.3513021,16.6563307 C21.775378,17.3195521 22.3331301,17.8359173 23.0245583,18.2054264 C23.7159864,18.5749354 24.4489003,18.7596899 25.2232999,18.7596899 C25.6289377,18.7596899 26.0345756,18.7028424 26.4402135,18.5891473 C26.8458513,18.4754522 27.214613,18.3049096 27.5464985,18.0775194 C27.8783841,17.8501292 28.1457363,17.5611542 28.3485552,17.2105943 C28.5513742,16.8600345 28.6527836,16.4573643 28.6527836,16.002584 C28.6527836,15.2635659 28.4223076,14.6950904 27.9613555,14.2971576 C27.5004033,13.8992248 26.9288227,13.5628768 26.2466136,13.2881137 C25.5644044,13.0133506 24.817662,12.7527993 24.0063863,12.5064599 C23.1951106,12.2601206 22.4483681,11.9237726 21.766159,11.497416 C21.0839499,11.0710594 20.5123692,10.502584 20.0514171,9.79198966 C19.590465,9.08139535 19.3599889,8.12919897 19.3599889,6.93540052 C19.3599889,5.89319552 19.5674174,4.99310939 19.9822743,4.23514212 C20.3971312,3.47717485 20.9410547,2.84711456 21.6140448,2.34496124 C22.2870349,1.84280792 23.0568249,1.46856158 23.9234149,1.22222222 C24.7900049,0.97588286 25.6750329,0.852713178 26.5784991,0.852713178 C27.6110318,0.852713178 28.6112979,1.01378122 29.5792974,1.33591731 C30.5472968,1.6580534 31.4184963,2.18863049 32.1928959,2.92764858 L29.6484402,5.68475452 Z M35.926608,1.36434109 L43.6429465,1.36434109 C44.9336124,1.36434109 46.1781831,1.56804479 47.3766586,1.9754522 C48.5751341,2.3828596 49.635324,3.00344531 50.5572283,3.8372093 C51.4791325,4.6709733 52.2166559,5.71791559 52.7697984,6.97803618 C53.322941,8.23815676 53.5995122,9.72093023 53.5995122,11.4263566 C53.5995122,13.1507321 53.2814553,14.6429802 52.6453413,15.9031008 C52.0092274,17.1632214 51.1887327,18.2054264 50.183857,19.0297158 C49.1789814,19.8540052 48.0634773,20.4698536 46.8373447,20.877261 C45.611212,21.2846684 44.408127,21.4883721 43.2280896,21.4883721 L35.926608,21.4883721 L35.926608,1.36434109 Z M42.011176,18.248062 C43.099023,18.248062 44.1269462,18.120155 45.0949457,17.8643411 C46.0629451,17.6085271 46.9064875,17.2105943 47.6255728,16.6705426 C48.3446581,16.130491 48.9116292,15.4293712 49.3264861,14.5671835 C49.741343,13.7049957 49.9487715,12.6580534 49.9487715,11.4263566 C49.9487715,10.213609 49.7643906,9.17140396 49.3956289,8.2997416 C49.0268672,7.42807924 48.5152104,6.72222222 47.8606584,6.18217054 C47.2061064,5.64211886 46.4317068,5.24418605 45.5374597,4.98837209 C44.6432126,4.73255814 43.6613846,4.60465116 42.5919757,4.60465116 L39.4114061,4.60465116 L39.4114061,18.248062 L42.011176,18.248062 Z M71.3300905,1.40741329 L71.3300905,5.24898801 L65.7231507,5.24898801 L65.7231507,7.77123405 C70.2728897,7.98465487 73.7087922,8.91594571 73.7087922,10.0218536 C73.7087922,11.1277615 70.2728897,12.0590523 65.7231507,12.2724731 L65.7231507,21.5000132 L61.664255,21.5000132 L61.664255,12.291875 C57.0956374,12.0784542 53.6786135,11.1471634 53.6786135,10.0412555 C53.6786135,8.9353476 57.0956374,7.98465487 61.664255,7.77123405 L61.664255,5.24898801 L56.0384366,5.24898801 L56.0384366,1.40741329 L71.3300905,1.40741329 Z M65.7231507,8.06226244 L65.7231507,10.8755369 C65.6098792,10.8949388 64.9868859,10.9337425 63.7220207,10.9337425 C62.6836986,10.9337425 61.9285552,10.8949388 61.664255,10.8755369 L61.664255,8.06226244 C57.6242378,8.25628136 54.6225428,8.97415139 54.6225428,9.82783466 C54.6225428,10.6815179 57.6242378,11.4187899 61.664255,11.5934069 C61.9082244,11.6113163 62.5543411,11.6292258 63.4689686,11.6318751 L63.7031421,11.6322107 C65.0057645,11.6322107 65.6098792,11.5934069 65.7231507,11.5934069 C69.7442894,11.4187899 72.7459844,10.6815179 72.7459844,9.82783466 C72.7459844,8.97415139 69.7442894,8.23687947 65.7231507,8.06226244 Z" id="USDT" fill="#1FD69A"></path>
            <path d="M81.4778963,1.36434109 L89.1112634,1.36434109 C89.8487868,1.36434109 90.5770911,1.4543497 91.2961764,1.63436693 C92.0152617,1.81438415 92.6559851,2.10809647 93.2183467,2.51550388 C93.7807083,2.92291128 94.2370509,3.44875108 94.5873745,4.09302326 C94.9376981,4.73729543 95.1128599,5.51421189 95.1128599,6.42377261 C95.1128599,7.56072351 94.7994125,8.49870801 94.1725176,9.2377261 C93.5456227,9.97674419 92.725128,10.5073213 91.7110333,10.8294574 L91.7110333,10.8863049 C92.3194901,10.9621016 92.8864612,11.1373816 93.4119466,11.4121447 C93.937432,11.6869078 94.3845556,12.0374677 94.7533173,12.4638243 C95.122079,12.8901809 95.4124788,13.3828596 95.6245168,13.9418605 C95.8365548,14.5008613 95.9425737,15.1024978 95.9425737,15.74677 C95.9425737,16.8458226 95.7305358,17.7601206 95.3064598,18.4896641 C94.8823839,19.2192076 94.3246318,19.8066322 93.6332036,20.251938 C92.9417755,20.6972438 92.1489378,21.0146425 91.2546907,21.2041344 C90.3604436,21.3936262 89.4523679,21.4883721 88.5304637,21.4883721 L81.4778963,21.4883721 L81.4778963,1.36434109 Z M84.9626943,9.5503876 L88.1432639,9.5503876 C89.3048633,9.5503876 90.1760628,9.31826012 90.7568624,8.85400517 C91.3376621,8.38975022 91.6280619,7.7786391 91.6280619,7.02067183 C91.6280619,6.14900947 91.3284431,5.5 90.7292053,5.07364341 C90.1299675,4.64728682 89.1665776,4.43410853 87.8390355,4.43410853 L84.9626943,4.43410853 L84.9626943,9.5503876 Z M84.9626943,18.4186047 L88.170921,18.4186047 C88.6134351,18.4186047 89.0882158,18.3901809 89.5952631,18.3333333 C90.1023104,18.2764858 90.5678721,18.1438415 90.991948,17.9354005 C91.416024,17.7269595 91.7663476,17.4285099 92.0429188,17.0400517 C92.3194901,16.6515935 92.4577757,16.1257537 92.4577757,15.4625323 C92.4577757,14.4013781 92.1212807,13.66236 91.4482906,13.245478 C90.7753005,12.828596 89.7289392,12.620155 88.3092067,12.620155 L84.9626943,12.620155 L84.9626943,18.4186047 Z M99.1508005,0 L102.469656,0 L102.469656,21.4883721 L99.1508005,21.4883721 L99.1508005,0 Z M114.583477,19.6124031 L114.500506,19.6124031 C114.021116,20.3893196 113.412659,20.9530577 112.675136,21.3036176 C111.937612,21.6541774 111.126336,21.8294574 110.241308,21.8294574 C109.632852,21.8294574 109.038223,21.744186 108.457424,21.5736434 C107.876624,21.4031008 107.360358,21.1472868 106.908625,20.8062016 C106.456892,20.4651163 106.092739,20.0387597 105.816168,19.5271318 C105.539597,19.0155039 105.401311,18.4186047 105.401311,17.7364341 C105.401311,16.997416 105.530378,16.3673557 105.788511,15.8462532 C106.046644,15.3251507 106.392358,14.8893196 106.825653,14.5387597 C107.258948,14.1881998 107.761386,13.9086994 108.332967,13.7002584 C108.904547,13.4918174 109.499176,13.3354866 110.116851,13.2312661 C110.734527,13.1270457 111.356813,13.0607235 111.983707,13.0322997 C112.610602,13.003876 113.200621,12.9896641 113.753764,12.9896641 L114.583477,12.9896641 L114.583477,12.620155 C114.583477,11.7674419 114.297687,11.127907 113.726106,10.7015504 C113.154526,10.2751938 112.426221,10.0620155 111.541193,10.0620155 C110.840546,10.0620155 110.185994,10.1899225 109.577537,10.4457364 C108.969081,10.7015504 108.443595,11.047373 108.001081,11.4832041 L106.258682,9.69250646 C106.996206,8.91559001 107.858186,8.35658915 108.844624,8.01550388 C109.831061,7.6744186 110.849765,7.50387597 111.900736,7.50387597 C112.841078,7.50387597 113.633916,7.61283376 114.279249,7.83074935 C114.924582,8.04866494 115.459286,8.32816537 115.883362,8.66925065 C116.307438,9.01033592 116.634714,9.40353144 116.86519,9.84883721 C117.095666,10.294143 117.261609,10.744186 117.363019,11.1989664 C117.464428,11.6537468 117.524352,12.0943152 117.54279,12.5206718 C117.561228,12.9470284 117.570447,13.3212748 117.570447,13.6434109 L117.570447,21.4883721 L114.583477,21.4883721 L114.583477,19.6124031 Z M114.389877,15.377261 L113.698449,15.377261 C113.237497,15.377261 112.721231,15.3962102 112.14965,15.4341085 C111.57807,15.4720069 111.038756,15.5620155 110.531708,15.7041344 C110.024661,15.8462532 109.595975,16.0546942 109.245652,16.3294574 C108.895328,16.6042205 108.720166,16.9879414 108.720166,17.4806202 C108.720166,17.8027562 108.789309,18.0727821 108.927595,18.2906977 C109.065881,18.5086133 109.245652,18.6933678 109.466909,18.8449612 C109.688166,18.9965547 109.93708,19.1055125 110.213651,19.1718346 C110.490223,19.2381568 110.766794,19.2713178 111.043365,19.2713178 C112.186526,19.2713178 113.030069,18.9918174 113.573992,18.4328165 C114.117916,17.8738157 114.389877,17.1111111 114.389877,16.1447028 L114.389877,15.377261 Z M130.209754,11.9379845 C129.822554,11.5211025 129.416917,11.1894918 128.992841,10.9431525 C128.568765,10.6968131 128.13547,10.5736434 127.692956,10.5736434 C127.084499,10.5736434 126.540575,10.6873385 126.061185,10.9147287 C125.581795,11.1421189 125.171548,11.4453058 124.830443,11.8242894 C124.489338,12.203273 124.231205,12.6391042 124.056043,13.1317829 C123.880882,13.6244617 123.793301,14.1360896 123.793301,14.6666667 C123.793301,15.1972438 123.880882,15.7088717 124.056043,16.2015504 C124.231205,16.6942291 124.489338,17.1300603 124.830443,17.5090439 C125.171548,17.8880276 125.581795,18.1912145 126.061185,18.4186047 C126.540575,18.6459948 127.084499,18.7596899 127.692956,18.7596899 C128.209222,18.7596899 128.688612,18.6507321 129.131126,18.4328165 C129.57364,18.2149009 129.951621,17.8975022 130.265068,17.4806202 L132.477639,19.9250646 C132.145753,20.2661499 131.763163,20.5598622 131.329868,20.8062016 C130.896573,21.0525409 130.458668,21.2515073 130.016154,21.4031008 C129.57364,21.5546942 129.149564,21.663652 128.743926,21.7299742 C128.338289,21.7962963 127.987965,21.8294574 127.692956,21.8294574 C126.697299,21.8294574 125.756957,21.6589147 124.871929,21.3178295 C123.986901,20.9767442 123.22172,20.4935401 122.576387,19.8682171 C121.931054,19.2428941 121.419397,18.4896641 121.041417,17.6085271 C120.663436,16.7273902 120.474445,15.74677 120.474445,14.6666667 C120.474445,13.5865633 120.663436,12.6059432 121.041417,11.7248062 C121.419397,10.8436693 121.931054,10.0904393 122.576387,9.46511628 C123.22172,8.83979328 123.986901,8.35658915 124.871929,8.01550388 C125.756957,7.6744186 126.697299,7.50387597 127.692956,7.50387597 C128.541108,7.50387597 129.393869,7.66968131 130.25124,8.00129199 C131.108611,8.33290267 131.859963,8.85874246 132.505296,9.57881137 L130.209754,11.9379845 Z M134.468952,0 L137.787807,0 L137.787807,13.501292 L142.904375,7.84496124 L147.163573,7.84496124 L141.466205,14.0413437 L147.523116,21.4883721 L143.125632,21.4883721 L137.843121,14.5245478 L137.787807,14.5245478 L137.787807,21.4883721 L134.468952,21.4883721 L134.468952,0 Z M149.625057,1.36434109 L153.109855,1.36434109 L153.109855,18.248062 L161.434651,18.248062 L161.434651,21.4883721 L149.625057,21.4883721 L149.625057,1.36434109 Z M163.730192,7.84496124 L167.049047,7.84496124 L167.049047,21.4883721 L163.730192,21.4883721 L163.730192,7.84496124 Z M163.260021,3.2118863 C163.260021,2.66236003 163.45823,2.1838932 163.854649,1.77648579 C164.251068,1.36907838 164.753506,1.16537468 165.361963,1.16537468 C165.970419,1.16537468 166.482076,1.35960379 166.896933,1.74806202 C167.31179,2.13652024 167.519219,2.62446167 167.519219,3.2118863 C167.519219,3.79931094 167.31179,4.28725237 166.896933,4.67571059 C166.482076,5.06416882 165.970419,5.25839793 165.361963,5.25839793 C164.753506,5.25839793 164.251068,5.05469423 163.854649,4.64728682 C163.45823,4.23987941 163.260021,3.76141258 163.260021,3.2118863 Z M177.945955,11.625323 C177.300622,10.6968131 176.434033,10.2325581 175.346186,10.2325581 C174.903671,10.2325581 174.470376,10.3462532 174.046301,10.5736434 C173.622225,10.8010336 173.410187,11.1705426 173.410187,11.6821705 C173.410187,12.0990525 173.585348,12.4022394 173.935672,12.5917313 C174.285996,12.7812231 174.72851,12.9422911 175.263214,13.0749354 C175.797919,13.2075797 176.374109,13.3449612 176.991785,13.4870801 C177.60946,13.629199 178.185651,13.8471146 178.720355,14.1408269 C179.255059,14.4345392 179.697574,14.8372093 180.047897,15.3488372 C180.398221,15.8604651 180.573383,16.5615848 180.573383,17.4521964 C180.573383,18.2670112 180.40283,18.953919 180.061726,19.5129199 C179.720621,20.0719208 179.278107,20.5219638 178.734184,20.8630491 C178.19026,21.2041344 177.577194,21.4504737 176.894985,21.6020672 C176.212775,21.7536606 175.530566,21.8294574 174.848357,21.8294574 C173.815824,21.8294574 172.866263,21.6778639 171.999673,21.374677 C171.133083,21.0714901 170.358684,20.5219638 169.676474,19.7260982 L171.889045,17.5943152 C172.313121,18.086994 172.769463,18.4896641 173.258072,18.8023256 C173.746682,19.1149871 174.34131,19.2713178 175.041957,19.2713178 C175.281652,19.2713178 175.530566,19.2428941 175.7887,19.1860465 C176.046833,19.129199 176.286528,19.0344531 176.507785,18.9018088 C176.729042,18.7691645 176.908813,18.6033592 177.047099,18.4043928 C177.185384,18.2054264 177.254527,17.9732989 177.254527,17.7080103 C177.254527,17.2342808 177.079365,16.8837209 176.729042,16.6563307 C176.378718,16.4289406 175.936204,16.244186 175.4015,16.1020672 C174.866795,15.9599483 174.290605,15.827304 173.672929,15.7041344 C173.055253,15.5809647 172.479063,15.3819983 171.944359,15.1072351 C171.409654,14.832472 170.96714,14.4487511 170.616817,13.9560724 C170.266493,13.4633936 170.091331,12.7812231 170.091331,11.9095607 C170.091331,11.1515935 170.243446,10.4931094 170.547674,9.93410853 C170.851902,9.37510767 171.252931,8.91559001 171.750759,8.55555556 C172.248587,8.1955211 172.820168,7.93023256 173.465501,7.75968992 C174.110834,7.58914729 174.765386,7.50387597 175.429157,7.50387597 C176.314185,7.50387597 177.189994,7.66020672 178.056584,7.97286822 C178.923174,8.28552972 179.623821,8.8208441 180.158526,9.57881137 L177.945955,11.625323 Z M181.596696,10.744186 L181.596696,7.84496124 L184.334752,7.84496124 L184.334752,3.89405685 L187.653607,3.89405685 L187.653607,7.84496124 L191.304348,7.84496124 L191.304348,10.744186 L187.653607,10.744186 L187.653607,16.7131783 C187.653607,17.3953488 187.778064,17.9354005 188.026978,18.3333333 C188.275892,18.7312661 188.769111,18.9302326 189.506635,18.9302326 C189.801644,18.9302326 190.12431,18.8970715 190.474634,18.8307494 C190.824958,18.7644272 191.101529,18.6554694 191.304348,18.503876 L191.304348,21.374677 C190.954024,21.5452196 190.525339,21.663652 190.018291,21.7299742 C189.511244,21.7962963 189.064121,21.8294574 188.676921,21.8294574 C187.791893,21.8294574 187.068198,21.7299742 186.505836,21.5310078 C185.943475,21.3320413 185.500961,21.0288544 185.178294,20.621447 C184.855628,20.2140396 184.634371,19.707149 184.514523,19.1007752 C184.394676,18.4944014 184.334752,17.7932817 184.334752,16.997416 L184.334752,10.744186 L181.596696,10.744186 Z" id="BlackList" fill="#FFFFFF"></path>
        </g>
    </g>
</svg>