<?xml version="1.0" encoding="UTF-8"?>
<svg width="144px" height="40px" viewBox="0 0 144 40" version="1.1" xmlns="http://www.w3.org/2000/svg" xmlns:xlink="http://www.w3.org/1999/xlink">
    <title>partner-cryptosafe</title>
    <defs>
        <linearGradient x1="100.010215%" y1="-0.0151002702%" x2="-0.0200470531%" y2="-0.0151002702%" id="linearGradient-1">
            <stop stop-color="#F7D23D" offset="1%"></stop>
            <stop stop-color="#F4C829" offset="19%"></stop>
            <stop stop-color="#F2C018" offset="43%"></stop>
            <stop stop-color="#F0BB0E" offset="69%"></stop>
            <stop stop-color="#F0B90B" offset="100%"></stop>
        </linearGradient>
        <linearGradient x1="96.176978%" y1="62.4961694%" x2="51.8257407%" y2="-5.82154349%" id="linearGradient-2">
            <stop stop-color="#F7D23D" offset="1%"></stop>
            <stop stop-color="#F4C829" offset="19%"></stop>
            <stop stop-color="#F2C018" offset="43%"></stop>
            <stop stop-color="#F0BB0E" offset="69%"></stop>
            <stop stop-color="#F0B90B" offset="100%"></stop>
        </linearGradient>
    </defs>
    <g id="partner-cryptosafe" stroke="none" stroke-width="1" fill="none" fill-rule="evenodd">
        <g id="logo-CryptoSafeAlliance.790e9bd" transform="translate(0.000000, 4.000000)">
            <path d="M17.482357,22.0946805 L5.82355351,22.0946805 L0,11.8114045 L5.82355351,1.52339357 L17.482357,1.52339357 L23.3082468,11.8114045 L17.482357,22.0946805 Z M11.6518689,5.1714044 L6.01315163,8.49026595 L6.01081532,8.49264847 L6.01081532,15.1303414 L11.6542201,18.4492784 L17.2929225,15.1256669 L17.2929225,8.49026595 L11.6518689,5.1714044 Z" id="Shape" fill="url(#linearGradient-1)"></path>
            <path d="M11.6552469,23.6188883 L1.50368969,17.7135631 L1.50605576,5.90529509 L11.6552469,0 L21.8043785,5.90529509 L21.8043785,17.7135631 L11.6552469,23.6188883 Z M16.7275955,8.85436887 L11.6529701,5.90291258 L6.57837455,8.85436887 L6.57837455,14.7596941 L11.6529701,17.7111504 L16.7275955,14.7596941 L16.7275955,8.85436887 Z" id="Shape" fill="url(#linearGradient-2)"></path>
            <path d="M34.4128541,17.5235649 C32.8512478,17.5466361 31.3475283,16.9140627 30.2461896,15.7709068 C29.1449997,14.6277509 28.5406845,13.0718767 28.5717857,11.4599078 L28.5717857,11.4262811 C28.5717857,8.07839206 31.0161297,5.33377747 34.522229,5.33377747 C36.6734184,5.33377747 37.9607689,6.07641411 39.0199946,7.15311586 L37.4183585,9.05415349 C36.5382994,8.22980253 35.6420201,7.72510095 34.5012469,7.72510095 C32.5783312,7.72510095 31.190832,9.37380285 31.190832,11.3926544 L31.190832,11.4262811 C31.190832,13.4450875 32.543361,15.1273256 34.5012469,15.1273256 C35.8049665,15.1273256 36.5964839,14.5889973 37.4999061,13.7478783 L39.096929,15.4133784 C37.9165725,16.7088345 36.612853,17.5235649 34.4128541,17.5235649 Z" id="Path" fill="#FFFFFF" fill-rule="nonzero"></path>
            <path d="M45.7890387,13.8654962 L48.2083826,17.5217554 L51.1278752,17.524168 L48.3628468,13.4434288 C49.7984116,12.9046481 50.7821908,11.7458098 50.7821908,9.90125899 L50.7821908,9.86861247 C50.7821908,7.51809337 49.1854655,6.0956552 46.5240085,6.0956552 L41.3534755,6.0956552 L41.3534755,17.5217554 L43.8374028,17.5217554 L43.8374028,13.8654962 L45.7890387,13.8654962 Z M46.3051098,8.36397746 C47.5147818,8.36397746 48.2567457,8.91895318 48.2567457,9.99627317 L48.2567457,10.0289197 C48.2567457,10.9919995 47.5631449,11.6449298 46.3534729,11.6449298 L43.837254,11.6449298 L43.837254,8.36397746 L46.3051098,8.36397746 Z" id="Shape" fill="#FFFFFF"></path>
            <polygon id="Path" fill="#FFFFFF" fill-rule="nonzero" points="58.7734069 12.9699412 58.7734069 17.524168 56.263438 17.524168 56.263438 13.0189486 51.8793629 6.0956552 54.8129923 6.0956552 57.5347171 10.6847603 60.3054001 6.0956552 63.157482 6.0956552"></polygon>
            <path d="M67.1710216,14.0956051 L69.0774194,14.0956051 C71.6357514,14.0956051 73.6888753,12.7241498 73.6841217,10.0816216 L73.6841217,10.0489751 C73.6841217,7.71430422 72.0384297,6.0956552 69.3171514,6.0956552 L64.6616479,6.0956552 L64.6616479,17.524168 L67.1710216,17.524168 L67.1710216,14.0956051 Z M69.1100086,8.36433936 C70.3646211,8.36433936 71.1491445,8.96841303 71.1491445,10.0949365 L71.1491445,10.1322576 C71.1491445,11.1118793 70.4135794,11.8628246 69.1588181,11.8628246 L67.1708728,11.8628246 L67.1708728,8.36433936 L69.1100086,8.36433936 Z" id="Shape" fill="#FFFFFF"></path>
            <polygon id="Path" fill="#FFFFFF" fill-rule="nonzero" points="81.3738415 8.41586506 81.3738415 17.524168 78.7792 17.524168 78.7792 8.41586506 75.1879817 8.41586506 75.1879817 6.0956552 84.9625302 6.0956552 84.9625302 8.41586506"></polygon>
            <path d="M85.7135714,11.4638284 C85.7135714,14.8138285 88.2253261,17.524168 91.7159493,17.524168 C95.2064236,17.524168 97.7460056,14.7729638 97.7436264,11.4302017 L97.7436264,11.3964243 C97.7436264,8.04648442 95.2296379,5.33377747 91.7412469,5.33377747 C88.2530046,5.33377747 85.7135714,8.08015633 85.7135714,11.4302017 L85.7135714,11.4638284 Z M91.7162469,7.72591522 C93.7201149,7.72591522 95.1443701,9.40934458 95.1443701,11.4294478 L95.1443701,11.4630744 C95.1443701,13.4832379 93.7524065,15.1329049 91.7485385,15.1329049 C89.7446705,15.1329049 88.3224986,13.4496112 88.3224986,11.4294478 L88.3224986,11.3958211 C88.3224986,9.37567268 89.7123789,7.72591522 91.7162469,7.72591522 Z" id="Shape" fill="#FFFFFF"></path>
            <path d="M104.085734,17.5240749 C102.30389,17.5312553 100.581718,16.8564601 99.2477906,15.6282574 L100.729337,13.7833144 C101.755081,14.6634887 102.822789,15.2342373 104.132312,15.2342373 C105.160436,15.2342373 105.779186,14.8109635 105.779186,14.1170176 L105.779186,14.0832402 C105.779186,13.4230718 105.386031,13.0845433 103.480973,12.576675 C101.18529,11.9673236 99.7035939,11.307306 99.7035939,8.94962432 L99.7035939,8.90851835 C99.7035939,6.7588545 101.364456,5.33462191 103.692729,5.33462191 C105.230526,5.30965071 106.728441,5.84327425 107.928292,6.84349418 L106.623531,8.80695979 C105.61624,8.08154361 104.620853,7.63902874 103.660139,7.63902874 C102.699574,7.63902874 102.194813,8.09604983 102.194813,8.67154837 L102.194813,8.70540122 C102.194813,9.48401689 102.683205,9.73792085 104.653294,10.2626326 C106.967727,10.8888576 108.270256,11.7521431 108.270256,13.8172427 L108.270256,13.8510201 C108.258649,16.2038313 106.532757,17.5240749 104.085734,17.5240749 Z" id="Path" fill="#FFFFFF" fill-rule="nonzero"></path>
            <path d="M117.408495,14.9772873 L118.446441,17.524168 L121.052541,17.524168 L116.187663,6.0956552 L113.887366,6.0956552 L109.022488,17.524168 L111.570701,17.524168 L112.608498,14.9772873 L117.408495,14.9772873 Z M113.501057,12.7745144 L115.009092,9.09548564 L116.512514,12.7745144 L113.501057,12.7745144 Z" id="Shape" fill="#FFFFFF"></path>
            <polygon id="Path" fill="#FFFFFF" fill-rule="nonzero" points="125.913699 8.37435196 125.913699 10.8069774 131.566226 10.8069774 131.566226 13.092686 125.913699 13.092686 125.913699 17.524168 123.307599 17.524168 123.307599 6.0956552 132.330065 6.0956552 132.330065 8.383686"></polygon>
            <polygon id="Path" fill="#FFFFFF" fill-rule="nonzero" points="133.834529 17.5217554 133.834529 6.0956552 142.770089 6.0956552 142.770089 8.33424123 136.420985 8.33424123 136.420985 10.6521138 141.999703 10.6521138 141.999703 12.8883626 136.420985 12.8883626 136.420985 15.2879193 142.857143 15.2879193 142.857143 17.524168"></polygon>
            <path d="M36.9573468,29.4530397 L37.9949951,31.9999204 L40.6006485,31.9999204 L35.7368117,20.5715282 L33.434432,20.5715282 L28.5705952,31.9999204 L31.1183618,31.9999204 L32.15601,29.4530397 L36.9573468,29.4530397 Z M33.047825,27.2507192 L34.5580921,23.5716904 L36.0588354,27.2507192 L33.047825,27.2507192 Z" id="Shape" fill="#FFFFFF"></path>
            <polygon id="Path" fill="#FFFFFF" fill-rule="nonzero" points="42.1048144 31.9976585 42.1048144 20.5715282 44.6369559 20.5715282 44.6369559 29.7146642 50.3754946 29.7146642 50.3754946 31.9999204"></polygon>
            <polygon id="Path" fill="#FFFFFF" fill-rule="nonzero" points="52.6321898 31.9976585 52.6321898 20.5715282 55.1637361 20.5715282 55.1637361 29.7146642 60.9028701 29.7146642 60.9028701 31.9999204"></polygon>
            <polygon id="Path" fill="#FFFFFF" fill-rule="nonzero" points="62.4065895 31.9999204 62.4065895 20.5715282 64.6622431 20.5715282 64.6622431 31.9999204"></polygon>
            <path d="M75.3018209,29.4530397 L76.3394692,31.9999204 L78.9475035,31.9999204 L74.083518,20.5715282 L71.781287,20.5715282 L66.9173015,31.9999204 L69.465068,31.9999204 L70.5027163,29.4530397 L75.3018209,29.4530397 Z M71.3943825,27.2507192 L72.9021198,23.5716904 L74.405244,27.2507192 L71.3943825,27.2507192 Z" id="Shape" fill="#FFFFFF"></path>
            <polygon id="Path" fill="#FFFFFF" fill-rule="nonzero" points="88.7550877 31.9952458 83.0281562 24.7391238 83.0281562 31.9999204 80.4509254 31.9999204 80.4509254 20.5784646 82.851817 20.5784646 88.40732 27.6132237 88.40732 20.5715282 90.9772592 20.5715282 90.9772592 31.992984"></polygon>
            <path d="M99.0777014,31.9993172 C97.5154998,32.0237456 96.0107387,31.3917753 94.9088047,30.2483179 C93.8070196,29.1048604 93.2025556,27.5482322 93.234252,25.9356601 L93.234252,25.9020335 C93.234252,22.5541444 95.6787448,19.8095751 99.1824632,19.8095751 C101.333653,19.8095751 102.621003,20.5522268 103.680229,21.6288833 L102.080825,23.5299209 C101.200915,22.7056906 100.304635,22.200989 99.163862,22.200989 C97.2409464,22.200989 95.8556792,23.8496004 95.8556792,25.8684068 L95.8556792,25.9020335 C95.8556792,27.9208398 97.2083571,29.6032287 99.163862,29.6032287 C100.467582,29.6032287 101.259099,29.0649005 102.162372,28.2236306 L103.759395,29.8891308 C102.58142,31.1845868 101.2777,31.9993172 99.0777014,31.9993172 Z" id="Path" fill="#FFFFFF" fill-rule="nonzero"></path>
            <polygon id="Path" fill="#FFFFFF" fill-rule="nonzero" points="105.262817 31.9976585 105.262817 20.5715282 114.208051 20.5715282 114.208051 22.8100388 107.852102 22.8100388 107.852102 25.128017 113.439301 25.128017 113.439301 27.3642657 107.852102 27.3642657 107.852102 29.7636716 114.285432 29.7636716 114.285432 31.9999204"></polygon>
        </g>
    </g>
</svg>