<?xml version="1.0" encoding="UTF-8"?>
<svg width="446px" height="380px" viewBox="0 0 446 380" version="1.1" xmlns="http://www.w3.org/2000/svg" xmlns:xlink="http://www.w3.org/1999/xlink">
    <title>slogan</title>
    <g id="slogan" stroke="none" stroke-width="1" fill="none" fill-rule="evenodd">
        <path d="M203.429674,12.8694737 C203.934937,9.52210527 201.379148,7.71157897 197.871779,6.49052633 L199.008621,1.95789475 L196.2402,1.26315791 L195.134937,5.69894737 C194.408621,5.51578949 193.650726,5.3473684 192.894937,5.17263157 L194.002305,0.694736839 L191.223358,5.68434189e-14 L190.086516,4.55789475 C189.486516,4.41684214 188.897042,4.28 188.318095,4.13684213 L184.497042,3.18947371 L183.7602,6.15157894 C183.7602,6.15157894 185.812832,6.62526316 185.770727,6.64842106 C186.897042,6.93473685 187.097042,7.67157897 187.065463,8.26105262 L183.95599,20.7242105 C183.798095,21.0736843 183.450726,21.5789474 182.663358,21.3852632 C182.694937,21.4273684 180.642305,20.88 180.642305,20.88 L179.252832,24.0589474 L182.852832,24.9557895 L184.810727,25.4652632 L183.673884,30.0757895 L186.452832,30.7642105 L187.589674,26.1957895 C188.347569,26.4063158 189.073884,26.5957895 189.8002,26.7705263 L188.726516,31.3052632 L191.505463,32 L192.652832,27.3894737 C197.368621,28.288421 200.926516,27.9305263 202.421253,23.6547368 C203.621253,20.2084211 202.358095,18.2231579 199.859148,16.9263158 C201.657042,16.52 203.017042,15.3263158 203.39599,12.8631579 L203.417042,12.8631579 L203.429674,12.8694737 Z M197.092832,21.7536842 C196.242305,25.2063158 190.446516,23.3326316 188.566516,22.8694737 L190.082305,16.7642105 C191.968621,17.248421 197.991779,18.1747368 197.092832,21.7536842 Z M197.95599,12.8273684 C197.177042,15.9642105 192.351779,14.3747368 190.787569,13.9852632 L192.164411,8.4273684 C193.730727,8.80631575 198.768621,9.53052628 197.953884,12.8147368 L197.953884,12.8273684 L197.95599,12.8273684 Z" id="Shape" fill="#FFFFFF" fill-rule="nonzero"></path>
        <g id="Group-9" transform="translate(218.909850, 246.340951)" fill="#FFFFFF" fill-rule="nonzero">
            <polygon id="Path" points="26.703032 0 3.18944465 0 3.18944465 5.67663543 12.1079207 5.67663543 12.1079207 14.0202465 17.784556 14.0202465 17.784556 5.67663543 26.703032 5.67663543"></polygon>
            <path d="M15.0001242,14.9089901 C7.62248471,14.9089901 1.64115849,13.7413811 1.64115849,12.3008667 C1.64115849,10.8606005 7.62223637,9.69274324 15.0001242,9.69274324 C22.3777636,9.69274324 28.3588415,10.8606005 28.3588415,12.3008667 C28.3588415,13.7413812 22.3777636,14.9089901 15.0001242,14.9089901 M30,12.7356781 C30,10.8782313 23.2843864,9.37265648 15.0001242,9.37265648 C6.71611029,9.37265648 0,10.8782313 0,12.7356781 C0,14.3713735 5.20755559,15.7341633 12.108169,16.0361225 L12.108169,28.0136743 L17.7843077,28.0136743 L17.7843077,16.0408407 C24.738062,15.7483176 30,14.3798164 30,12.7356781" id="Shape"></path>
        </g>
        <path d="M170,230.906879 L159.002453,246.777051 L159.002453,237.592171 L170,230.906879 Z M159.002453,210.777051 L170,229.304578 L159.002453,235.930708 L159.002453,210.777051 Z M148,230.906879 L159.002453,237.592171 L159.002453,246.777051 L148,230.906879 Z M159.002453,210.777051 L159.002453,235.930708 L148,229.304578 L159.002453,210.777051 Z" id="Combined-Shape" fill="#FFFFFF" fill-rule="nonzero"></path>
        <g id="Group-13" transform="translate(120.000000, 45.777051)" fill="#FFFFFF" fill-rule="nonzero">
            <path d="M12.9299541,29.9988815 C12.8215883,30.0035357 12.7130764,29.9936492 12.6075502,29.9695071 C11.6304043,29.7940073 10.8323251,29.1171299 10.5294973,28.2070416 L0.261470749,3.52665 C-0.156682312,2.67578764 -0.0686391906,1.67481628 0.492195727,0.903513862 C1.00353335,0.30645861 1.77543178,-0.0270441896 2.57941661,0.0017190353 C2.75017097,0.00221664219 2.92068787,0.0139941625 3.08976199,0.0369683449 L22.9076644,2.5793248 C23.4870418,2.66986509 24.0247265,2.92572246 24.4509243,3.31368541 L29.2335021,7.91078289 C30.1678279,8.84107079 30.2585828,10.286682 29.4474194,11.3182161 L15.1134377,28.8518102 C14.6111602,29.540144 13.8039054,29.9642273 12.9299541,29.9988815 L12.9299541,29.9988815 Z M2.58552854,2.20480089 C2.48480037,2.19567899 2.38356442,2.21616525 2.2952123,2.26354971 C2.28922433,2.41830919 2.32115126,2.57225587 2.3884191,2.71297841 L12.6564456,27.3874952 C12.7756281,27.6812394 12.9131463,27.7840499 12.9314821,27.7840499 C12.9498178,27.7840499 13.0980319,27.7267698 13.2966693,27.4756184 L27.629123,9.93908689 C27.6852393,9.86659083 27.7103861,9.77621035 27.6994101,9.68646686 C27.6975748,9.60006314 27.6615054,9.51758941 27.5985634,9.45587761 L22.8159856,4.85878014 C22.7461549,4.81327892 22.6693317,4.7785872 22.5883165,4.75596967 L2.79944575,2.22536297 C2.72900794,2.21182175 2.65736116,2.20493494 2.58552854,2.20480089 Z" id="Shape"></path>
            <path d="M12.473088,29.8079478 C11.8448894,29.7543145 11.3802253,29.2222835 11.4340615,28.6182836 L12.9162022,13.0204641 L1.13547538,2.95972358 C0.68283288,2.54988561 0.652164225,1.86806804 1.06631673,1.42220654 C1.48046924,0.976345039 2.1887263,0.928695623 2.66345553,1.31475582 L14.8720168,11.7426766 C15.1451397,11.9751981 15.2869522,12.3187061 15.2540119,12.667971 L13.7260317,28.8239045 C13.6586596,29.3836674 13.1662766,29.8064707 12.5800466,29.8079478 L12.473088,29.8079478 Z" id="Path"></path>
            <path d="M13.0980319,13.0674631 C12.8584562,12.6420144 12.9393475,12.1156788 13.2966693,11.7749885 L22.4645501,2.96266105 C22.9160832,2.55823571 23.6197179,2.57016907 24.0561275,2.98965356 C24.492537,3.40913805 24.5049519,4.08548407 24.0842091,4.51950553 L17.5902935,10.7571646 L27.6902422,8.81845261 C28.1002627,8.72119617 28.5327025,8.84858635 28.8156216,9.14997223 C29.0985406,9.45135811 29.1860811,9.8778886 29.0434366,10.2599732 C28.900792,10.6420579 28.5510834,10.9177652 28.1333564,10.9774728 L14.320416,13.6358582 C14.249927,13.6485848 14.178154,13.6535126 14.1064988,13.6505455 C13.6839777,13.6505829 13.2960002,13.4262594 13.0980319,13.0674631 L13.0980319,13.0674631 Z" id="Path"></path>
        </g>
        <g id="Group-11" transform="translate(294.661526, 223.085385)" fill="#FFFFFF" fill-rule="nonzero">
            <path d="M16.3136909,0.359544985 C16.3845627,0.0708718318 16.6732359,-0.0726004269 16.961909,0.0708718318 C20.9798967,1.3748272 24.1193043,4.54128197 25.3887443,8.57030752 C27.5494713,15.4120335 23.803635,22.6876334 16.961909,24.8483604 C16.8893086,24.9192323 16.7458363,24.9192323 16.6732359,24.9192323 C16.3845627,24.8483604 16.2410905,24.6322877 16.2410905,24.3436146 L16.2410905,23.3358515 C16.2410905,22.974578 16.3845628,22.7585052 16.6732359,22.615033 C19.6573569,21.539141 22.0069245,19.1895734 23.0828164,16.2054524 C25.1726716,10.6584341 22.2911261,4.39232583 16.6732359,2.3767997 C16.4571632,2.23159885 16.2410905,1.94465429 16.2410905,1.65598118 L16.2416713,0.569408607 C16.2439945,0.474599367 16.2556106,0.417625326 16.3136909,0.359544985 Z M9.3267641,0 C9.61543725,0.0708718318 9.75890951,0.286944558 9.75890951,0.57561767 L9.75890951,1.58338075 C9.75890951,1.94465429 9.61543721,2.16072702 9.3267641,2.30419928 C6.37434673,3.38456279 3.99754707,5.68876202 2.91718356,8.71377982 C0.82732841,14.2607981 3.70887391,20.5269064 9.3267641,22.5424326 C9.54283683,22.6876334 9.75890951,22.974578 9.75890951,23.1906506 L9.75832871,24.2782742 C9.7560055,24.3725856 9.74438943,24.4303894 9.68630909,24.4870868 C9.61543725,24.77576 9.3267641,24.9192322 9.03809099,24.77576 C5.02742466,23.5018354 1.88518027,20.359591 0.611255725,16.3489247 C-1.54947125,9.50719873 2.19636503,2.23159881 9.03809099,0.0708718318 C9.11069142,0 9.25416368,0 9.3267641,0 Z M13.5047458,3.74410773 C13.8642908,3.81670816 14.0803635,4.03278088 14.0803635,4.321454 L14.0803635,6.05003556 C15.7046764,6.18662141 17.0343734,7.39788672 17.321454,9.00245293 L17.321454,9.07505336 C17.3243291,9.20962451 17.2720168,9.33951192 17.1766758,9.43452641 C17.0813348,9.5295409 16.9512686,9.58140733 16.8167082,9.57807061 L15.6654728,9.57807061 C15.4384532,9.57599082 15.2368774,9.43240257 15.160727,9.21852562 C14.801182,8.13816215 14.0803635,7.70601674 12.7839273,7.70601674 C11.3440188,7.70601674 10.6232003,8.35423484 10.6232003,9.36199792 C10.6232003,10.3714896 11.0553457,10.9471072 13.2160727,11.2357803 C16.2410905,11.5953253 17.7535994,12.4596161 17.7535994,14.9798881 C17.7535994,16.9245424 16.3136909,18.4370513 14.1529639,18.7983248 L14.1529639,20.5269064 C14.0803635,20.8864514 13.8642908,21.1025241 13.5756177,21.1025241 L12.4952542,21.1025241 C12.1357092,21.0299237 11.9196365,20.813851 11.9196365,20.5269064 L11.9196365,18.7983248 C9.54283679,18.4370513 8.38987289,17.1406151 8.10292833,15.3411616 L8.10292833,15.2685612 C8.09959161,15.1340007 8.15145804,15.0039346 8.24647253,14.9085936 C8.34148702,14.8132526 8.47137443,14.7609403 8.60594558,14.7638154 L9.83150994,14.7638154 C10.0475826,14.7638154 10.2636554,14.9090162 10.3345272,15.1959608 C10.5505999,16.2763243 11.198818,17.0697432 13.0726004,17.0697432 C14.4399085,17.0697432 15.4494001,16.2780529 15.4494001,15.1250889 C15.4494001,13.972125 14.801182,13.5399796 12.7839273,13.1804346 C9.75890951,12.8191611 8.31900106,11.8839985 8.31900106,9.50719877 C8.31900102,7.70601674 9.68630909,6.26610825 11.8470361,5.97743513 L11.8470361,4.321454 C11.9196365,3.96018042 12.1357092,3.74410773 12.4243823,3.74410773 Z" id="Combined-Shape"></path>
        </g>
        <g id="Path-2" transform="translate(317.000000, 15.777051)" fill="#FFFFFF" fill-rule="nonzero">
            <path d="M22.7154047,8.06788512 C22.1671018,7.75456919 21.462141,7.75456919 20.8355091,8.06788512 L16.4490862,10.6527415 L13.4725849,12.2976501 L9.16449086,14.8825065 C8.61618799,15.1958225 7.91122715,15.1958225 7.2845953,14.8825065 L3.91644909,12.845953 C3.36814621,12.5326371 2.97650131,11.9060052 2.97650131,11.2010444 L2.97650131,7.2845953 C2.97650131,6.65796345 3.28981723,6.03133159 3.91644909,5.63968668 L7.2845953,3.68146214 C7.83289817,3.36814621 8.53785901,3.36814621 9.16449086,3.68146214 L12.5326371,5.71801567 C13.0809399,6.03133159 13.4725849,6.65796345 13.4725849,7.36292428 L13.4725849,9.94778068 L16.4490862,8.22454308 L16.4490862,5.5613577 C16.4490862,4.93472585 16.1357702,4.30809399 15.5091384,3.91644909 L9.24281984,0.234986945 C8.69451697,-0.0783289817 7.98955614,-0.0783289817 7.36292428,0.234986945 L0.939947781,3.99477807 C0.313315927,4.30809399 0,4.93472585 0,5.5613577 L0,12.924282 C0,13.5509138 0.313315927,14.1775457 0.939947781,14.5691906 L7.2845953,18.2506527 C7.83289817,18.5639687 8.53785901,18.5639687 9.16449086,18.2506527 L13.4725849,15.7441253 L16.4490862,14.0208877 L20.7571802,11.5143603 C21.305483,11.2010444 22.0104439,11.2010444 22.6370757,11.5143603 L26.0052219,13.4725849 C26.5535248,13.7859008 26.9451697,14.4125326 26.9451697,15.1174935 L26.9451697,19.0339426 C26.9451697,19.6605744 26.6318538,20.2872063 26.0052219,20.6788512 L22.7154047,22.6370757 C22.1671018,22.9503916 21.462141,22.9503916 20.8355091,22.6370757 L17.4673629,20.6788512 C16.9190601,20.3655352 16.5274151,19.7389034 16.5274151,19.0339426 L16.5274151,16.5274151 L13.5509138,18.2506527 L13.5509138,20.8355091 C13.5509138,21.462141 13.8642298,22.0887728 14.4908616,22.4804178 L20.8355091,26.1618799 C21.383812,26.4751958 22.0887728,26.4751958 22.7154047,26.1618799 L29.0600522,22.4804178 C29.6083551,22.1671018 30,21.54047 30,20.8355091 L30,13.3942559 C30,12.767624 29.6866841,12.1409922 29.0600522,11.7493473 L22.7154047,8.06788512 Z" id="Path"></path>
        </g>
        <g id="Path-3" transform="translate(263.000000, 5.777051)" fill="#FFFFFF" fill-rule="nonzero">
            <polygon id="Path" points="6.26709535 16.2426183 7.39418636 10.8766312 13.0903269 6.97168159 13.7580432 3.7825203 8.060756 7.70343517 9.67888755 0 5.30300825 0 2.9526821 11.2187807 0.556400861 12.8680488 0 15.9458947 2.29087557 14.375306 1.11262531 20 15.129993 20 15.9087601 16.2426183"></polygon>
        </g>
        <polygon id="Path" fill="#E9BDBD" fill-rule="nonzero" points="11.4237641 340.112771 15.7288529 344.659016 35.7187149 329.861515 29.365017 323.151589"></polygon>
        <path d="M18.4784476,342.627493 L13.6046685,338.052911 L12.4078384,336.932343 L1.56319402e-12,346.844033 L3.22765476,350.252633 L7.02685538,347.818199 L5.28149917,352.421887 L13.8390162,361.458978 C14.6806092,362.348591 16.0033571,362.588127 17.1038933,362.050213 C18.2044295,361.512299 18.8270893,360.321897 18.6407755,359.112001 L16.7938987,347.173662 L20.0483877,344.098439 L18.4784476,342.627493 Z" id="Path" fill="#3B424C" fill-rule="nonzero"></path>
        <path d="M106.037892,174.584105 L104.672953,189.472517 C104.672953,189.472517 102.290492,200.689583 103.940157,199.780418 C105.589823,198.871253 102.632043,202.963307 103.411032,206.511799 C104.190022,210.06029 96.7570001,236.522258 100.123599,233.781 C103.490198,231.039742 98.1780224,249.977243 94.8182964,259.319977 C93.7896314,262.208064 92.7325925,265.131326 91.6687435,268.03344 C91.4589133,268.621095 91.2487331,269.20124 91.0320649,269.788895 C89.6531137,273.565132 88.2741555,277.285361 86.9515882,280.795936 C86.762615,281.285596 86.5804519,281.774907 86.3986667,282.257735 C86.3914857,282.271392 86.3914857,282.285393 86.3846687,282.285393 C82.0311328,293.73326 78.3006064,302.740351 76.8099021,304.230151 C76.0331103,305.006299 63.7079512,313.901731 51.284715,322.810827 C38.2456501,332.16075 25.1013273,341.531485 25.1013273,341.531485 L12.8250702,328.664162 C12.8250702,328.664162 13.1189725,328.58016 13.67195,328.412499 C14.6938049,328.1185 16.5836486,327.566014 19.0613178,326.831873 C29.3916902,323.789784 16.2685533,319.055408 25.6474947,315.670808 C28.2929722,314.719831 30.0567358,313.978522 30.4555531,313.58685 C32.7862782,311.314077 35.914981,305.894387 37.3916804,308.16716 C38.8683797,310.439933 45.5666388,293.55155 47.4982035,291.880118 C48.5340565,290.978002 51.9146185,286.761252 54.8122981,283.054681 C57.3036434,279.865763 59.4453814,277.047678 59.4453814,277.047678 C59.4453814,277.047678 59.4874174,275.537046 59.5502965,273.131445 C59.6415495,269.572045 59.7744886,264.040353 59.9146017,258.501835 C59.9074278,258.49466 59.9074278,258.49466 59.9146017,258.49466 C59.9634758,256.410702 60.0123429,254.326744 60.0615809,252.347683 C60.0964429,250.816225 60.131298,249.340769 60.166503,247.976965 C60.2574061,243.893078 60.3202851,240.802163 60.3202851,240.032847 C60.3202851,237.508418 60.3202851,239.473535 62.3150719,237.948888 C62.6129557,237.715131 62.8958089,237.462859 63.1619517,237.193572 C63.5884347,236.810061 63.981813,236.391322 64.3379108,235.941799 C64.4848899,235.627317 63.5679501,236.053801 62.377979,235.816146 C61.7336242,235.686857 61.137686,235.381813 60.6562235,234.934827 C58.1505232,232.68323 60.8523916,225.760076 60.8523916,225.760076 C55.1551025,214.375041 55.5682748,205.039119 58.2345953,197.843141 C60.2285159,192.679365 63.3932336,188.047662 67.4802826,184.311672 C69.0357972,182.83057 70.7304948,181.502636 72.5408931,180.34627 L72.7158683,179.402468 L74.640595,168.989579 C75.6640963,168.427789 76.7285501,167.943936 77.824898,167.542137 C81.2435456,166.316525 84.9117717,165.951445 88.5052136,166.479179 C92.0766146,166.995537 95.5343482,168.114018 98.7310069,169.786938 C101.343957,171.098544 103.795947,172.708341 106.037892,174.584105 Z" id="Path" fill="#3B424C" fill-rule="nonzero"></path>
        <polygon id="Path" fill="#E9BDBD" fill-rule="nonzero" points="52.2825633 363.309044 58.5193778 363.888776 63.7749317 339.591781 54.5691387 338.736519"></polygon>
        <path d="M70.2449041,372.832684 L60.9780518,365.077394 L61.3980621,360.615849 L59.2426551,360.545848 L52.5656031,360.329018 L52.5584291,360.329018 L50.9207666,360.273017 L48.1420141,375.895948 L52.8243074,376.329258 L54.0631315,371.993716 L55.79204,376.609256 L58.2696883,376.840086 L68.1872313,377.763063 C68.2712963,377.769888 68.3622064,377.777051 68.4462715,377.777051 C69.2438253,377.778067 70.003415,377.43683 70.5319754,376.840072 C70.93795,376.39595 71.1863118,375.830647 71.238714,375.231445 C71.321936,374.317288 70.9504389,373.420605 70.2449041,372.832684 L70.2449041,372.832684 Z" id="Path" fill="#3B424C" fill-rule="nonzero"></path>
        <path d="M86.9516022,280.795957 C84.5788481,293.698455 74.535204,323.950675 68.4602835,341.657515 C65.695543,349.748469 63.7639502,355.22416 63.7639502,355.22416 L60.6143974,354.231182 L60.6072234,354.231182 L55.2810706,352.552553 L53.3423458,351.93724 L53.3351648,351.93724 L50.9835967,351.189099 C50.9835967,351.189099 51.2566489,336.741143 51.284673,322.810848 C51.305523,316.971499 51.277499,311.216152 51.1657458,306.656605 C51.0396447,301.684575 50.8226336,298.125167 50.4658452,297.418656 C48.9888099,294.523395 51.4596481,294.215738 54.0702635,293.488423 C56.6877169,292.754282 54.644063,291.649309 53.6290671,289.299709 C52.9435214,287.733076 54.2941127,285.642293 55.2530606,284.453331 C55.5176469,284.118751 55.800363,283.798891 56.0999403,283.495186 C56.0999403,283.495186 55.6378939,283.334344 54.8122281,283.054702 C57.3035734,279.865784 59.4453114,277.047699 59.4453114,277.047699 C59.4453114,277.047699 59.4873474,275.537067 59.5502265,273.131466 C59.6414795,269.572066 59.7744186,264.040374 59.9145318,258.501856 C59.9073578,258.494681 59.9073578,258.494681 59.9145318,258.494681 C59.9634058,256.410723 60.0122729,254.326765 60.0615109,252.347704 C64.0647535,255.417794 67.956243,258.42505 71.4837702,261.208316 C71.4925089,261.214981 71.4976755,261.225305 71.4977682,261.236289 C79.9734669,267.928613 86.3357946,273.29947 87.2315345,275.005763 C87.6375048,275.77475 87.4973847,277.831037 86.9516022,280.795957 Z" id="Path" fill="#3B424C" fill-rule="nonzero"></path>
        <path d="M295.611823,52.9822421 C298.037924,52.7555408 300.203637,54.5000475 300.496654,56.9170279 C300.521577,57.1537463 300.52684,57.3921204 300.512387,57.6297066 L314.945626,63.7880339 L314.394916,72.205071 L295.535989,61.6330742 C293.5179,61.3531692 291.942023,59.7495903 291.698784,57.7284149 C291.573708,56.5976233 291.903338,55.4635015 292.615159,54.5755452 C293.32698,53.6875889 294.362682,53.1185354 295.494422,52.993571 C295.533509,52.9892632 295.572643,52.9854869 295.611823,52.9822421 Z" id="Path" fill="#E9BDBD" fill-rule="nonzero"></path>
        <path d="M393.808827,104.939474 C393.452533,103.307637 392.789934,101.758055 391.856104,100.372759 C391.596687,99.9785569 391.313888,99.6002224 391.009224,99.2397851 C389.875644,97.8903313 388.818619,96.65253 387.838828,95.5475567 C387.243843,94.8550671 386.662869,94.2117534 386.117073,93.6176086 C382.94667,90.141867 380.867818,88.3027529 379.916044,88.1487498 C379.454005,88.0719231 378.999132,88.015922 378.557936,87.9599348 C376.297614,87.6802788 374.659615,87.4774495 374.610741,85.0926741 C374.605816,84.7510037 374.629135,84.4095104 374.680458,84.0716744 C374.765429,83.5043893 374.889438,82.9436315 375.051602,82.3933888 C375.144745,82.0814999 375.217238,81.763823 375.268613,81.4424185 C375.338666,81.0299277 375.310642,80.7219284 375.086457,80.5330995 C374.806567,80.3026123 374.337689,80.3374451 373.455632,80.6871026 C373.315862,80.7431037 373.154899,80.8059301 372.986755,80.8827569 C372.930707,80.9039321 372.875002,80.9319327 372.81178,80.9599333 C372.700027,81.0087594 372.573926,81.0647605 372.44816,81.127587 C371.391135,81.6312475 369.760311,81.694074 367.898806,81.505217 C362.404516,80.945905 354.971495,78.1766393 354.880585,78.1414707 L308.070999,59.9664741 L307.63732,60.665789 L306.608319,62.3300743 L306.251531,62.9033866 L305.845532,63.5607006 L304.074595,66.413961 L303.178876,67.8545915 L318.296792,79.2464301 L319.941286,80.4842173 L321.355442,81.5543578 L350.219169,103.309951 L360.983557,110.407927 L363.384342,111.988211 L373.616966,118.729703 C376.588263,120.691266 380.226814,121.369863 383.706255,120.611377 C387.185696,119.85289 390.210713,117.721696 392.09428,114.701818 C393.911179,111.792976 394.525942,108.292616 393.808827,104.939474 L393.808827,104.939474 Z" id="Path" fill="#E4E4E4" fill-rule="nonzero"></path>
        <polygon id="Path" fill="#FFB6B6" fill-rule="nonzero" points="71.1063908 149.41661 72.4180046 161.5721 71.6467141 177.510884 106.981198 173.317093 110.300826 149.41661 106.070627 149.458569"></polygon>
        <path d="M101.162224,114.155838 L87.8641117,103.666115 L87.8641117,103.666115 L80.8835267,103.260583 L70.5255153,109.890612 L67.9891944,122.819118 L61.99078,137.377601 L70.7887969,176.66636 C70.7887969,176.66636 71.6139797,179.485654 69.4516297,179.824297 C67.2892797,180.162941 67.5485579,184.318689 67.5485579,184.318689 C67.5485579,184.318689 67.9888934,187.920377 65.8891915,188.237544 C63.7894896,188.554712 58.1905855,188.554712 63.0898899,194.848545 C67.9891944,201.142379 106.739704,177.338058 106.739704,177.338058 L112.367941,147.831043 C112.367941,147.831043 123.282989,133.183033 111.528319,124.793871 L101.162224,114.155838 Z" id="Path" fill="#1B1E22" fill-rule="nonzero" opacity="0.14"></path>
        <path d="M101.162224,110.155838 C93.8455533,103.850596 89.4128493,100.354022 87.8641117,99.6661154 C85.5410052,98.6342556 83.6172311,98.6342556 80.8835267,99.2605827 C79.0610571,99.6781341 75.6083867,101.888144 70.5255153,105.890612 L67.9891944,118.819118 L61.99078,133.377601 L70.7887969,172.66636 C70.7887969,172.66636 71.6139797,175.485654 69.4516297,175.824297 C67.2892797,176.162941 67.5485579,180.318689 67.5485579,180.318689 C67.5485579,180.318689 67.9888934,183.920377 65.8891915,184.237544 C63.7894896,184.554712 58.1905855,184.554712 63.0898899,190.848545 C67.9891944,197.142379 106.981198,173.317093 106.981198,173.317093 L112.367941,143.831043 C112.367941,143.831043 123.282989,129.183033 111.528319,120.793871 L101.162224,110.155838 Z" id="Path" fill="#E4E4E4" fill-rule="nonzero"></path>
        <path d="M43.1097496,199.359444 C41.9235901,197.880523 41.4539725,195.952606 41.8272614,194.094457 C42.2005503,192.236308 43.3784005,190.638802 45.043876,189.731795 L61.7708012,133.643431 L72.2300183,138.904796 L54.0140475,192.664903 C55.3836466,195.626469 54.3198589,199.143507 51.5378844,200.85146 C48.75591,202.559413 45.1350849,201.918426 43.1097426,199.359444 L43.1097496,199.359444 Z" id="Path" fill="#E9BDBD" fill-rule="nonzero"></path>
        <polygon id="Path-9" fill="#1B1E22" opacity="0.12" points="53.5552442 161.197263 52.87927 163.449755 63.4156245 164.932049 64.2393943 162.551426"></polygon>
        <path d="M72.9276162,105.37165 C72.9276162,105.37165 69.9377387,103.783982 67.8926571,110.654274 C66.2554285,116.154449 52.9703206,148.915852 52.8008817,156.881034 C50.5519277,157.357214 48.9113483,159.294912 48.8141147,161.589828 L65.2399567,163.789173 C68.1102492,161.370306 68.8632443,158.103317 67.7527119,157.133675 L71.3191186,147.401269 L86.1979002,116.436028 L75.1092345,106.480945 L72.9276162,105.37165 Z" id="Path" fill="#E4E4E4" fill-rule="nonzero"></path>
        <path d="M160.695933,180.923191 C161.125362,179.077187 160.714385,177.135946 159.573589,175.621815 C158.432793,174.107684 156.679363,173.176199 154.785111,173.078004 L116.413919,129.291616 L108.274306,138.995861 L147.966574,179.598521 C148.013438,182.860629 150.494806,185.572164 153.742416,185.910123 C156.990026,186.248081 159.977363,184.105638 160.695996,180.923191 L160.695933,180.923191 Z" id="Path" fill="#E9BDBD" fill-rule="nonzero"></path>
        <polygon id="Path-10" fill="#1B1E22" opacity="0.12" points="127.773255 158.988909 137.085207 152.837696 135.219719 150.750557 125.548104 156.663306"></polygon>
        <path d="M93.1319838,109.061753 C93.1319838,109.061753 95.1406986,106.338341 99.9581146,111.649358 C103.814847,115.901234 129.972807,139.7007 133.572942,146.80939 C135.806831,146.267009 138.124727,147.305292 139.205652,149.332517 L125.347031,158.412897 C121.712118,157.472088 119.619184,154.851727 120.200844,153.497602 L112.772924,146.263239 L85.9553917,124.771895 L91.6450099,111.004582 L93.1319838,109.061753 Z" id="Path" fill="#E4E4E4" fill-rule="nonzero"></path>
        <path d="M236.286199,34 C262.510805,34.0148538 287.617986,44.6110432 305.912314,63.3848804 C308.274081,65.7937328 310.503053,68.3290765 312.589366,70.9796912 C314.655095,73.5733866 316.582497,76.2741187 318.363547,79.0706379 C333.383934,102.647087 337.515179,131.544699 329.701734,158.380044 C328.840856,161.344958 327.833055,164.247387 326.69916,167.093507 C325.558406,169.946768 324.291544,172.744027 322.891743,175.457313 C306.204442,207.900478 272.793494,228.328541 236.286199,228.409528 C210.481584,228.418371 185.731316,218.180026 167.484696,199.948679 C149.238077,181.717331 138.991155,156.987778 139.000006,131.204761 C139.000006,77.6020068 182.645724,34 236.286199,34 Z M246.862305,150.548828 L244.695313,150.548828 L247.429688,158.328125 C247.447917,158.382812 247.40804,158.533203 247.310059,158.779297 C247.212077,159.025391 247.10612,159.187174 246.992188,159.264648 C246.873698,159.34668 246.727865,159.399089 246.554688,159.421875 C246.38151,159.444661 246.199219,159.451497 246.007813,159.442383 L245.761719,159.428711 L245.761719,160.987305 C245.971354,161.000977 246.128581,161.008952 246.233398,161.01123 C246.338216,161.013509 246.477214,161.014648 246.650391,161.014648 C247.511719,161.014648 248.085938,160.844889 248.373047,160.505371 C248.660156,160.165853 249.049805,159.289714 249.541992,157.876953 L252.098633,150.548828 L250.027344,150.548828 L248.489258,156.044922 L246.862305,150.548828 Z M196.296875,150.548828 L194.129883,150.548828 L196.864258,158.328125 C196.882487,158.382812 196.842611,158.533203 196.744629,158.779297 C196.646647,159.025391 196.54069,159.187174 196.426758,159.264648 C196.308268,159.34668 196.162435,159.399089 195.989258,159.421875 C195.816081,159.444661 195.633789,159.451497 195.442383,159.442383 L195.196289,159.428711 L195.196289,160.987305 C195.405924,161.000977 195.563151,161.008952 195.667969,161.01123 C195.772786,161.013509 195.911784,161.014648 196.084961,161.014648 C196.946289,161.014648 197.520508,160.844889 197.807617,160.505371 C198.094727,160.165853 198.484375,159.289714 198.976563,157.876953 L201.533203,150.548828 L199.461914,150.548828 L197.923828,156.044922 L196.296875,150.548828 Z M206.708008,150.384766 C206.111003,150.384766 205.596029,150.551107 205.163086,150.883789 C204.926107,151.070638 204.702799,151.325846 204.493164,151.649414 L204.493164,150.548828 L202.626953,150.548828 L202.626953,160.932617 L204.554688,160.932617 L204.554688,157.049805 C204.759766,157.364258 204.969401,157.603516 205.183594,157.767578 C205.575521,158.063802 206.067708,158.211914 206.660156,158.211914 C207.589844,158.211914 208.349772,157.867839 208.939941,157.179688 C209.530111,156.491536 209.825195,155.491211 209.825195,154.178711 C209.825195,152.93457 209.524414,151.991211 208.922852,151.348633 C208.316732,150.706055 207.578451,150.384766 206.708008,150.384766 Z M183.602539,147.732422 C182.335612,147.732422 181.291992,148.147135 180.47168,148.976562 C179.52832,149.929036 179.056641,151.284831 179.056641,153.043945 C179.056641,154.670898 179.471354,155.951497 180.300781,156.885742 C181.130208,157.81543 182.269531,158.280273 183.71875,158.280273 C184.889974,158.280273 185.851563,157.936198 186.603516,157.248047 C187.350911,156.559896 187.815755,155.666667 187.998047,154.568359 L185.913086,154.568359 C185.77181,155.087891 185.594076,155.477539 185.379883,155.737305 C184.992513,156.220378 184.429688,156.461914 183.691406,156.461914 C182.971354,156.461914 182.377767,156.180501 181.910645,155.617676 C181.443522,155.05485 181.209961,154.208333 181.209961,153.078125 C181.209961,151.947917 181.43099,151.074056 181.873047,150.456543 C182.315104,149.83903 182.918945,149.530273 183.68457,149.530273 C184.436523,149.530273 185.003906,149.749023 185.386719,150.186523 C185.600911,150.432617 185.776367,150.797201 185.913086,151.280273 L188.018555,151.280273 C187.986654,150.651367 187.754232,150.02474 187.321289,149.400391 C186.537435,148.288411 185.297852,147.732422 183.602539,147.732422 Z M219.245117,150.30957 C217.964518,150.30957 217.009766,150.703776 216.380859,151.492188 C215.751953,152.280599 215.4375,153.212565 215.4375,154.288086 C215.4375,155.381836 215.751953,156.31722 216.380859,157.094238 C217.009766,157.871257 217.964518,158.259766 219.245117,158.259766 C220.525716,158.259766 221.480469,157.871257 222.109375,157.094238 C222.738281,156.31722 223.052734,155.381836 223.052734,154.288086 C223.052734,153.212565 222.738281,152.280599 222.109375,151.492188 C221.480469,150.703776 220.525716,150.30957 219.245117,150.30957 Z M289.552734,150.336914 C288.572917,150.336914 287.812988,150.584147 287.272949,151.078613 C286.73291,151.573079 286.462891,152.164388 286.462891,152.852539 C286.462891,153.435872 286.636068,153.882487 286.982422,154.192383 C287.328776,154.506836 287.923503,154.76888 288.766602,154.978516 C289.937826,155.25651 290.614583,155.452474 290.796875,155.566406 C290.979167,155.680339 291.070313,155.84668 291.070313,156.06543 C291.070313,156.293294 290.95752,156.464193 290.731934,156.578125 C290.506348,156.692057 290.202148,156.749023 289.819336,156.749023 C289.167643,156.749023 288.721029,156.619141 288.479492,156.359375 C288.342773,156.213542 288.253906,155.967448 288.212891,155.621094 L286.237305,155.621094 C286.237305,156.386719 286.516439,157.016764 287.074707,157.51123 C287.632975,158.005697 288.497721,158.25293 289.668945,158.25293 C290.817383,158.25293 291.666178,158.019368 292.215332,157.552246 C292.764486,157.085124 293.039063,156.482422 293.039063,155.744141 C293.039063,155.183594 292.847656,154.716471 292.464844,154.342773 C292.077474,153.973633 291.496419,153.697917 290.72168,153.515625 C289.55957,153.260417 288.882813,153.080404 288.691406,152.975586 C288.5,152.875326 288.404297,152.713542 288.404297,152.490234 C288.404297,152.3125 288.494303,152.157552 288.674316,152.025391 C288.854329,151.893229 289.15625,151.827148 289.580078,151.827148 C290.095052,151.827148 290.459635,151.95931 290.673828,152.223633 C290.78776,152.369466 290.858398,152.567708 290.885742,152.818359 L292.833984,152.818359 C292.747396,151.906901 292.412435,151.264323 291.829102,150.890625 C291.241211,150.521484 290.482422,150.336914 289.552734,150.336914 Z M268.634766,150.350586 C267.591146,150.350586 266.74235,150.694661 266.088379,151.382812 C265.434408,152.070964 265.107422,153.059896 265.107422,154.349609 C265.107422,155.725911 265.469727,156.719401 266.194336,157.330078 C266.918945,157.940755 267.755208,158.246094 268.703125,158.246094 C269.851563,158.246094 270.744792,157.883789 271.382813,157.15918 C271.792969,156.703451 272.023112,156.254557 272.073242,155.8125 L270.083984,155.8125 C269.979167,156.03125 269.858398,156.202148 269.72168,156.325195 C269.471029,156.55306 269.145182,156.666992 268.744141,156.666992 C268.365885,156.666992 268.042318,156.573568 267.773438,156.386719 C267.33138,156.085938 267.09668,155.561849 267.069336,154.814453 L272.168945,154.814453 C272.17806,154.171875 272.157552,153.679688 272.107422,153.337891 C272.020833,152.754557 271.831706,152.241862 271.540039,151.799805 C271.216471,151.298503 270.806315,150.931641 270.30957,150.699219 C269.812826,150.466797 269.254557,150.350586 268.634766,150.350586 Z M240.607422,150.371094 C239.354167,150.371094 238.470052,150.699219 237.955078,151.355469 C237.63151,151.77474 237.449219,152.310221 237.408203,152.961914 L239.288086,152.961914 C239.333659,152.674805 239.424805,152.44694 239.561523,152.27832 C239.75293,152.050456 240.078776,151.936523 240.539063,151.936523 C240.949219,151.936523 241.260254,151.994629 241.472168,152.11084 C241.684082,152.227051 241.790039,152.437826 241.790039,152.743164 C241.790039,152.993815 241.651042,153.178385 241.373047,153.296875 C241.218099,153.365234 240.960612,153.422201 240.600586,153.467773 L239.9375,153.549805 C239.185547,153.645508 238.615885,153.805013 238.228516,154.02832 C237.522135,154.438477 237.168945,155.101562 237.168945,156.017578 C237.168945,156.723958 237.388835,157.269694 237.828613,157.654785 C238.268392,158.039876 238.825521,158.232422 239.5,158.232422 C240.028646,158.232422 240.502604,158.111654 240.921875,157.870117 C241.272786,157.665039 241.582682,157.416667 241.851563,157.125 C241.865234,157.29362 241.883464,157.44401 241.90625,157.576172 C241.929036,157.708333 241.970052,157.849609 242.029297,158 L244.148438,158 L244.148438,157.712891 C244.020833,157.653646 243.92513,157.578451 243.861328,157.487305 C243.797526,157.396159 243.758789,157.222982 243.745117,156.967773 C243.736003,156.630534 243.731445,156.343424 243.731445,156.106445 L243.731445,152.688477 C243.731445,151.79069 243.414714,151.180013 242.78125,150.856445 C242.147786,150.532878 241.423177,150.371094 240.607422,150.371094 Z M213.43457,148.539062 L211.506836,148.539062 L211.506836,150.617188 L210.467773,150.617188 L210.467773,152.004883 L211.506836,152.004883 L211.506836,156.591797 C211.506836,157.056641 211.616211,157.400716 211.834961,157.624023 C212.115994,157.91645 212.599573,158.075955 213.285699,158.102539 L213.497613,158.106527 L213.72168,158.102539 L214.644531,158.068359 L214.644531,156.612305 C214.580729,156.616862 214.515788,156.62028 214.449707,156.622559 C214.383626,156.624837 214.320964,156.625977 214.261719,156.625977 C213.865234,156.625977 213.628255,156.588379 213.550781,156.513184 C213.473307,156.437988 213.43457,156.247721 213.43457,155.942383 L213.43457,152.004883 L214.644531,152.004883 L214.644531,150.617188 L213.43457,150.617188 L213.43457,148.539062 Z M284.234375,148.539062 L282.306641,148.539062 L282.306641,150.617188 L281.267578,150.617188 L281.267578,152.004883 L282.306641,152.004883 L282.306641,156.591797 C282.306641,157.056641 282.416016,157.400716 282.634766,157.624023 C282.915799,157.91645 283.399378,158.075955 284.085503,158.102539 L284.297418,158.106527 L284.521484,158.102539 L285.444336,158.068359 L285.444336,156.612305 C285.380534,156.616862 285.315592,156.62028 285.249512,156.622559 C285.183431,156.624837 285.120768,156.625977 285.061523,156.625977 C284.665039,156.625977 284.42806,156.588379 284.350586,156.513184 C284.273112,156.437988 284.234375,156.247721 284.234375,155.942383 L284.234375,152.004883 L285.444336,152.004883 L285.444336,150.617188 L284.234375,150.617188 L284.234375,148.539062 Z M261.573242,150.384766 C261.081055,150.384766 260.63444,150.487305 260.233398,150.692383 C259.855143,150.897461 259.538411,151.21875 259.283203,151.65625 C259.13737,151.291667 258.923177,150.993164 258.640625,150.760742 C258.289714,150.510091 257.829427,150.384766 257.259766,150.384766 C256.658203,150.384766 256.168294,150.530599 255.790039,150.822266 C255.575846,150.986328 255.347982,151.262044 255.106445,151.649414 L255.106445,150.5625 L253.212891,150.5625 L253.212891,158 L255.188477,158 L255.188477,153.515625 C255.188477,153.110026 255.240885,152.804688 255.345703,152.599609 C255.537109,152.239583 255.910807,152.05957 256.466797,152.05957 C256.945313,152.05957 257.266602,152.239583 257.430664,152.599609 C257.52181,152.80013 257.567383,153.121419 257.567383,153.563477 L257.567383,158 L259.529297,158 L259.529297,153.563477 C259.529297,153.230794 259.581706,152.945964 259.686523,152.708984 C259.891602,152.26237 260.263021,152.039062 260.800781,152.039062 C261.265625,152.039062 261.584635,152.21224 261.757813,152.558594 C261.848958,152.740885 261.894531,152.973307 261.894531,153.255859 L261.894531,158 L263.890625,158 L263.904297,153.303711 C263.904297,152.820638 263.88151,152.453776 263.835938,152.203125 C263.763021,151.82487 263.621745,151.505859 263.412109,151.246094 C263.152344,150.927083 262.862956,150.703776 262.543945,150.576172 C262.224935,150.448568 261.901367,150.384766 261.573242,150.384766 Z M232.930664,147.923828 L228.541992,147.923828 L228.541992,158 L230.633789,158 L230.633789,154.376953 L232.773438,154.376953 C233.889974,154.376953 234.749023,154.130859 235.350586,153.638672 C235.952148,153.146484 236.25293,152.305664 236.25293,151.116211 C236.25293,150.027018 235.952148,149.222656 235.350586,148.703125 C234.749023,148.183594 233.942383,147.923828 232.930664,147.923828 Z M277.610352,150.371094 C276.995117,150.371094 276.486979,150.521484 276.085938,150.822266 C275.86263,150.990885 275.625651,151.266602 275.375,151.649414 L275.375,150.5625 L273.495117,150.5625 L273.495117,158 L275.436523,158 L275.436523,153.966797 C275.436523,153.50651 275.500326,153.128255 275.62793,152.832031 C275.874023,152.271484 276.327474,151.991211 276.988281,151.991211 C277.526042,151.991211 277.890625,152.182617 278.082031,152.56543 C278.186849,152.775065 278.239258,153.075846 278.239258,153.467773 L278.239258,158 L280.235352,158 L280.235352,152.982422 C280.235352,152.048177 279.990397,151.379395 279.500488,150.976074 C279.010579,150.572754 278.380534,150.371094 277.610352,150.371094 Z M193.494141,150.371094 C192.910807,150.371094 192.436849,150.523763 192.072266,150.829102 C191.848958,151.011393 191.586914,151.350911 191.286133,151.847656 L191.286133,150.548828 L189.426758,150.548828 L189.426758,158 L191.388672,158 L191.388672,154.438477 C191.388672,153.841471 191.463867,153.399414 191.614258,153.112305 C191.883138,152.601888 192.409505,152.34668 193.193359,152.34668 C193.252604,152.34668 193.330078,152.348958 193.425781,152.353516 C193.521484,152.358073 193.630859,152.367188 193.753906,152.380859 L193.753906,150.384766 C193.667318,150.380208 193.611491,150.37679 193.586426,150.374512 C193.561361,150.372233 193.530599,150.371094 193.494141,150.371094 Z M241.783203,154.376953 L241.783203,155.101562 C241.769531,155.753255 241.5861,156.202148 241.23291,156.448242 C240.87972,156.694336 240.49349,156.817383 240.074219,156.817383 C239.809896,156.817383 239.586589,156.742188 239.404297,156.591797 C239.217448,156.445964 239.124023,156.206706 239.124023,155.874023 C239.124023,155.500326 239.274414,155.224609 239.575195,155.046875 C239.75293,154.942057 240.046875,154.85319 240.457031,154.780273 L240.894531,154.698242 C241.113281,154.657227 241.285319,154.612793 241.410645,154.564941 C241.53597,154.51709 241.660156,154.454427 241.783203,154.376953 Z M219.238281,151.957031 C219.807943,151.957031 220.245443,152.158691 220.550781,152.562012 C220.85612,152.965332 221.008789,153.54069 221.008789,154.288086 C221.008789,155.035482 220.85612,155.611979 220.550781,156.017578 C220.245443,156.423177 219.807943,156.625977 219.238281,156.625977 C218.66862,156.625977 218.22998,156.423177 217.922363,156.017578 C217.614746,155.611979 217.460938,155.035482 217.460938,154.288086 C217.460938,153.54069 217.614746,152.965332 217.922363,152.562012 C218.22998,152.158691 218.66862,151.957031 219.238281,151.957031 Z M206.147461,152.086914 C206.735352,152.086914 207.160319,152.307943 207.422363,152.75 C207.684408,153.192057 207.81543,153.700195 207.81543,154.274414 C207.81543,154.97168 207.673014,155.529948 207.388184,155.949219 C207.103353,156.36849 206.689779,156.578125 206.147461,156.578125 C205.773763,156.578125 205.450195,156.475586 205.176758,156.270508 C204.716471,155.919596 204.486328,155.311198 204.486328,154.445312 C204.486328,153.898438 204.554688,153.447266 204.691406,153.091797 C204.955729,152.421875 205.441081,152.086914 206.147461,152.086914 Z M268.634766,151.957031 C269.049479,151.957031 269.396973,152.090332 269.677246,152.356934 C269.95752,152.623535 270.113607,153.014323 270.145508,153.529297 L267.117188,153.529297 C267.18099,153.046224 267.337077,152.663411 267.585449,152.380859 C267.833822,152.098307 268.183594,151.957031 268.634766,151.957031 Z M232.595703,149.673828 C233.092448,149.673828 233.478678,149.785482 233.754395,150.008789 C234.030111,150.232096 234.167969,150.605794 234.167969,151.129883 C234.167969,151.653971 234.03125,152.036784 233.757813,152.27832 C233.479818,152.519857 233.092448,152.640625 232.595703,152.640625 L230.633789,152.640625 L230.633789,149.673828 L232.595703,149.673828 Z M269.557129,102.013672 L253.883301,102.013672 L253.883301,138 L261.354004,138 L261.354004,125.060547 L268.995605,125.060547 C272.983236,125.060547 276.05127,124.181641 278.199707,122.423828 C280.348145,120.666016 281.422363,117.663086 281.422363,113.415039 C281.422363,109.525065 280.348145,106.652344 278.199707,104.796875 C276.05127,102.941406 273.17041,102.013672 269.557129,102.013672 Z M235.572754,102.428711 C230.836426,102.428711 227.540527,104.194661 225.685059,107.726562 C224.708496,109.582031 224.163249,112.015299 224.049316,115.026367 L230.812012,115.026367 C230.893392,113.04069 231.153809,111.592122 231.593262,110.680664 C232.358236,109.101888 233.798665,108.3125 235.914551,108.3125 C237.460775,108.3125 238.648926,108.808919 239.479004,109.801758 C240.309082,110.794596 240.724121,112.039714 240.724121,113.537109 C240.724121,115.376302 239.999837,117.06901 238.55127,118.615234 C237.607259,119.608073 235.532064,121.251953 232.325684,123.546875 C228.631022,126.183594 226.287272,128.681966 225.294434,131.041992 C224.269043,133.141602 223.723796,135.460938 223.658691,138 L247.901855,138 L247.901855,131.87207 L232.447754,131.87207 C232.887207,131.139648 233.428385,130.496745 234.071289,129.943359 C234.714193,129.389974 235.906413,128.494792 237.647949,127.257812 L240.431152,125.280273 C242.774902,123.620117 244.459473,122.114583 245.484863,120.763672 C247.047363,118.729167 247.828613,116.401693 247.828613,113.78125 C247.828613,110.363281 246.721842,107.616699 244.508301,105.541504 C242.294759,103.466309 239.316243,102.428711 235.572754,102.428711 Z M208.399902,102.013672 L192.726074,102.013672 L192.726074,138 L200.196777,138 L200.196777,125.060547 L207.838379,125.060547 C211.826009,125.060547 214.894043,124.181641 217.04248,122.423828 C219.190918,120.666016 220.265137,117.663086 220.265137,113.415039 C220.265137,109.525065 219.190918,106.652344 217.04248,104.796875 C214.894043,102.941406 212.013184,102.013672 208.399902,102.013672 Z M268.36084,108.263672 C270.134928,108.263672 271.514323,108.662435 272.499023,109.459961 C273.483724,110.257487 273.976074,111.592122 273.976074,113.463867 C273.976074,115.335612 273.487793,116.702799 272.51123,117.56543 C271.518392,118.42806 270.134928,118.859375 268.36084,118.859375 L261.354004,118.859375 L261.354004,108.263672 L268.36084,108.263672 Z M207.203613,108.263672 C208.977702,108.263672 210.357096,108.662435 211.341797,109.459961 C212.326497,110.257487 212.818848,111.592122 212.818848,113.463867 C212.818848,115.335612 212.330566,116.702799 211.354004,117.56543 C210.361165,118.42806 208.977702,118.859375 207.203613,118.859375 L200.196777,118.859375 L200.196777,108.263672 L207.203613,108.263672 Z" id="Combined-Shape" fill="#3CFF85" fill-rule="nonzero"></path>
        <polygon id="Path" fill="#E9BDBD" fill-rule="nonzero" points="370.468589 363.531426 364.035803 363.476879 361.187907 338.106436 370.682759 338.186858"></polygon>
        <path d="M372.175108,360.566673 L370.495417,360.455021 L363.643389,359.986536 L361.438429,359.83968 L361.396736,364.434059 L351.122076,371.399235 C350.080523,372.106204 349.620187,373.407829 349.985954,374.611682 C350.35172,375.815534 351.458572,376.641797 352.717696,376.650922 L365.50488,376.756098 L367.744702,372.224538 L368.56353,376.784071 L373.392774,376.825729 L372.175108,360.566673 Z" id="Path" fill="#3B424C" fill-rule="nonzero"></path>
        <polygon id="Path" fill="#E9BDBD" fill-rule="nonzero" points="438.198674 358.834827 432.050047 360.723677 421.67052 337.395933 430.746132 334.608464"></polygon>
        <polygon id="Path-12" fill="#1B1E22" opacity="0.1" points="423.822051 342.212866 432.916039 341.690925 432.135103 339.131964 422.539042 339.398502"></polygon>
        <path d="M438.931232,355.496641 L437.293576,355.895474 L430.624013,357.510933 L428.475101,358.03542 L429.825685,362.43411 L422.133616,372.168516 C421.452476,373.034377 421.325507,374.212667 421.806569,375.203554 C422.287631,376.19444 423.29239,376.824211 424.394624,376.825715 C424.679275,376.825138 424.962298,376.782802 425.234638,376.700062 L437.461713,372.944658 L438.224493,367.944627 L440.387081,372.042514 L445,370.623058 L438.931232,355.496641 Z" id="Path" fill="#3B424C" fill-rule="nonzero"></path>
        <path d="M357.52919,150.20315 L345.252828,185.849941 L344.847439,188.702446 C341.754179,191.637016 345.640013,192.603783 344.183002,193.377673 C342.725991,194.151563 341.746109,196.320949 343.709611,196.70858 C345.673112,197.09621 352.003559,336.133026 360.353716,341.531548 C368.703874,346.930069 373.785706,350.834917 372.252027,342.930177 C371.634099,339.745316 372.508107,322.669572 373.772148,303.413365 C373.915411,301.230985 376.17868,298.921057 374.215354,296.799245 C372.252027,294.677433 374.457225,293.281202 374.580562,291.520327 C376.341778,266.375197 378.375304,241.55015 378.375304,241.55015 C378.375304,241.55015 391.389438,286.206416 394.768894,282.749465 C398.148351,279.292514 396.810736,287.803819 397.843432,290.347171 C398.706409,292.472612 395.024302,296.647298 400.43578,296.711355 C405.847258,296.775413 418.556018,340.181961 419.84527,340.132904 C422.399495,340.035587 429.579628,340.31046 433.843283,339.433589 C435.948864,339.000566 426.602524,306.137217 418.798016,277.759021 C418.175629,275.495934 414.788341,275.443268 416.966852,271.074054 C419.145363,266.70484 408.305967,238.434136 409.236128,237.126634 C411.705027,233.656179 412.645169,232.147659 410.210354,231.920375 C407.77554,231.693091 407.056168,233.027614 406.924671,229.661085 C406.793173,226.294555 406.37289,217.992982 406.37289,217.992982 C406.37289,217.992982 404.609308,185.160997 392.258757,167.021658 L391.205483,156.243937 L357.52919,150.20315 Z" id="Path" fill="#3B424C" fill-rule="nonzero"></path>
        <path d="M386.199018,85.1445656 L369.91898,87.4606963 L368.936613,99.2392979 L360.902979,111.795622 C360.902979,111.795622 343.045784,124.351819 355.499746,144.186717 C350.760383,161.273153 346.048351,177.659589 341.556073,188.584334 C338.05657,210.263094 369.407219,212.340891 405.247031,204.668575 C405.247031,204.668575 404.752901,195.399045 401.500463,190.942717 C398.248025,186.486389 400.018507,185.513419 400.018507,185.513419 L397.745979,177.188027 C399.031976,165.153874 394.689723,164.073825 392.648806,158.513796 L398.844781,100.824183 L386.199018,85.1445656 Z" id="Path" fill="#1B1E22" fill-rule="nonzero" opacity="0.12"></path>
        <path d="M388.199018,82.1445656 L371.91898,84.4606963 L370.936613,96.2392979 C367.735092,99.4881727 365.509461,102.089262 364.259722,104.042565 C363.724209,104.879556 363.204233,106.35068 362.699793,108.455938 C362.699793,108.455938 345.045784,121.351819 357.499746,141.186717 C352.760383,158.273153 348.048351,174.659589 343.556073,185.584334 C340.05657,207.263094 371.407219,209.340891 407.247031,201.668575 C407.247031,201.668575 406.752901,192.399045 403.500463,187.942717 C400.248025,183.486389 402.018507,182.513419 402.018507,182.513419 L399.745979,174.188027 C401.031976,162.153874 396.689723,161.073825 394.648806,155.513796 L400.844781,97.8241831 L388.199018,82.1445656 Z" id="Path" fill="#E4E4E4" fill-rule="nonzero"></path>
        <path d="M310.045314,182.979946 C310.404053,180.571827 312.61648,178.886855 315.035507,179.179442 C315.271521,179.211758 315.50445,179.263547 315.731909,179.334277 L325.16223,166.799821 L333.211395,169.343174 L318.435051,185.118317 C317.681321,187.009634 315.746645,188.155937 313.724181,187.909528 C312.595299,187.760984 311.571712,187.17045 310.878599,186.26784 C310.185486,185.365229 309.879624,184.224479 310.028299,183.096542 C310.033446,183.0576 310.039117,183.018734 310.045314,182.979946 Z" id="Path" fill="#E9BDBD" fill-rule="nonzero"></path>
        <polygon id="Path-11" fill="#1B1E22" opacity="0.12" points="319.290184 174.604427 323.792516 179.414878 325.598381 177.457704 321.060674 172.247343"></polygon>
        <path d="M393.808827,104.939474 C393.577804,104.65265 393.325937,104.372994 393.060059,104.100163 C389.276507,100.203971 383.487857,99.0267195 378.481073,101.135201 C378.243219,101.23286 378.005014,101.344863 377.774334,101.456886 C369.410389,105.561605 364.896233,108.296038 364.350121,109.57584 C364.161148,110.009492 364.000171,110.435997 363.839194,110.848467 C363.685062,111.254126 363.53811,111.638609 363.384328,111.988266 C362.740469,113.484898 361.998525,114.415043 360.108667,113.995384 C359.482035,113.84227 358.877586,113.609668 358.310049,113.303244 C358.051001,113.177242 357.813119,113.044414 357.588955,112.918411 C356.777301,112.471094 356.189154,112.149438 355.790336,112.443094 C355.405524,112.729582 355.391512,113.456898 355.741462,115.142358 C355.857226,115.845789 355.838208,116.564789 355.685421,117.261128 C355.222612,119.29254 354.497981,121.255372 353.529671,123.100477 C352.078808,125.992742 350.447146,128.790873 348.644365,131.478269 L331.993729,155.198972 L330.86698,156.800403 L329.63498,158.555865 L319.808375,172.556148 L320.389348,173.150285 L322.825003,175.633063 L323.363926,176.185522 L323.853996,176.688832 L325.120852,177.982635 L326.31048,179.192449 L352.857837,157.583691 L355.818416,155.170915 L361.123719,150.849373 L371.99298,142.00316 L392.563158,122.981663 C395.186884,120.574788 396.71584,117.203665 396.797416,113.645741 C396.797416,113.526913 396.804638,113.414911 396.804638,113.296083 C396.812225,110.24666 395.752485,107.290548 393.808827,104.939474 L393.808827,104.939474 Z" id="Path" fill="#E4E4E4" fill-rule="nonzero"></path>
        <ellipse id="Oval" fill="#E9BDBD" fill-rule="nonzero" cx="378.425347" cy="63.5393575" rx="18.1916983" ry="18.1764721"></ellipse>
        <path d="M402.533361,88.743615 C404.97485,92.234928 406.60801,96.2254271 407.314382,100.425669 C405.346817,101.683379 403.056423,102.343967 400.720716,102.327697 C400.641404,102.021792 400.562091,101.71615 400.471503,101.410493 C399.794673,99.0438113 398.787811,96.7840965 397.480547,94.6978472 C397.659726,96.9474965 397.354528,99.209396 396.585494,101.331317 C395.35123,100.77083 394.02853,100.429887 392.676933,100.323835 C391.575846,100.323756 390.489825,100.579517 389.504676,101.070913 C388.360471,97.2787944 387.306785,93.7922694 386.559081,91.2905685 C386.536404,97.5617932 377.337008,103.029267 367.299257,102.236888 C366.936709,102.010477 370.573449,91.6981292 370.222238,91.4603902 C369.417836,90.9283934 368.63611,90.351067 367.854384,89.7850766 C371.139913,84.7137504 374.708601,79.280249 374.096846,78.4652675 C374.142137,79.4727494 370.539426,84.3175955 366.619528,88.8907788 C364.444237,87.2947186 376.804566,61.3270331 370.698052,59.221564 C370.596055,60.1384706 369.247858,60.1384706 367.605191,59.9460541 C367.171857,58.4331864 366.5273,56.9888855 365.690536,55.6557577 C365.799344,56.9986493 365.637528,58.3497072 365.214659,59.6290267 C363.592501,59.6294847 361.97488,59.8002248 360.388432,60.1384356 C360.021399,59.561337 359.616433,59.0092171 359.176204,58.4857169 C359.219582,59.123725 359.200614,59.7644389 359.119568,60.3987696 C357.499417,60.7496788 356.162565,61.1571765 355.970015,61.4855048 C354.701137,61.0213486 356.865006,58.9272084 356.072011,57.8404801 C354.05536,55.1237679 357.046315,51.1618277 358.938286,48.3544633 C362.824233,42.6040394 371.355224,40.6117404 377.393707,44.0642717 C377.665668,43.1247073 379.059149,42.5021353 380.849201,42.0833086 C381.607691,41.9162294 382.384024,41.843982 383.16035,41.8682273 C390.864268,42.0040553 401.559134,48.3544633 401.978319,56.0406675 C402.012334,56.8104104 402.06897,57.6480636 402.125599,58.5423055 C402.669387,67.1454164 402.001017,75.0806257 407.880882,81.3744451 C410.010799,83.6496729 410.033405,94.4261634 409.217734,99.9729048 C407.099107,97.7428877 405.592291,89.0719293 402.533361,88.743615 Z" id="Path" fill="#3B424C" fill-rule="nonzero"></path>
        <path d="M68.7963548,71.0972794 C67.1984046,75.0736605 62.6903307,82.8933709 62.0797164,87.1591914 L62.3545463,86.8891509 C62.8788266,87.783998 63.4745799,88.6350777 64.1359964,89.4340905 C65.3214863,88.1901017 66.7532805,87.2064375 68.3401805,86.5457524 C67.4736266,88.322286 66.9717603,90.2541658 66.8641601,92.2275315 C68.5654296,97.5558839 76.4304019,95.1830388 81.0385477,94.6012298 C85.6402964,99.8606018 91.7626492,101.233021 99.779857,98.2093307 C102.022108,98.4399927 104.532182,98.5799676 106.103396,97.2561646 C107.67461,95.9323616 106.738906,93.4807666 107.584253,91.6264984 C113.605757,78.4185812 108.048707,73.6532542 103.327275,67.664294 C102.288266,66.3463373 102.292605,64.3795423 101.028333,63.1220833 C99.2741367,61.3790691 96.5851465,60.8429464 94.1060005,60.4134901 C95.4157355,60.4824333 96.6666457,59.8639295 97.4062419,58.7817089 C98.0567086,57.688589 98.039365,56.3234876 97.3613363,55.2472179 C96.4746952,53.7785099 94.6322488,52.9244297 92.8547461,52.7110758 C91.1035446,52.5922565 89.344471,52.7433415 87.6392546,53.1590289 C86.5346742,53.3041888 85.465031,53.645791 84.48096,54.1676647 C83.5301725,54.6745141 82.9939189,55.7176102 83.135373,56.7850392 C83.4354168,57.7602023 84.1644053,58.5452729 85.1152029,58.9171802 C85.8308381,59.2194831 86.5835291,59.4253592 87.3534852,59.5293954 C83.8169696,59.0708509 80.224547,59.6991141 77.0541604,61.3305996 C73.0809085,63.4482088 70.3997781,67.1230243 68.7963548,71.0972794 Z" id="Path" fill="#3B424C" fill-rule="nonzero"></path>
        <ellipse id="Oval" fill="#E9BDBD" fill-rule="nonzero" cx="90.3105793" cy="79.1993592" rx="14.2029156" ry="14.191028"></ellipse>
        <path d="M76.6438296,71.5903663 C77.4673607,74.0771299 79.8206786,74.8784467 81.9958088,75.3782191 C82.6816414,75.5379356 83.3717155,75.6867568 84.0681376,75.819193 C84.3250711,75.4982075 84.5983613,75.1836417 84.8837738,74.886307 C86.0692605,73.642318 87.5010558,72.6586577 89.0879579,71.9979829 C88.4017358,73.4012764 87.9456754,74.9056373 87.7372197,76.4535275 C89.052137,76.6441468 90.3743519,76.7999261 91.7038645,76.9208656 C94.0400034,77.4176817 96.3559377,75.9978869 96.9709107,73.6918773 C98.1812209,75.6694557 99.6123357,77.531864 101.569412,78.3174393 C103.866694,79.1421722 106.433726,78.3748345 107.900251,76.4250234 C109.028671,74.8755284 109.811088,73.1020837 110.194637,71.2245128 C110.750043,69.0223704 111.058518,66.4855919 109.968052,65.0884098 C109.094443,63.9576177 107.587507,63.9373376 106.196987,64.0376403 C103.128064,64.2728666 100.091503,64.8229223 97.1352544,65.679121 L96.8850189,66.2413282 C97.3930838,63.1917631 96.2910693,60.2576688 94.2521047,59.2141862 C92.8768,58.5165078 91.2221299,58.6334961 89.6144582,58.7750165 C87.5493815,58.8670779 85.5089924,59.2613418 83.558463,59.945215 C81.3208443,60.8052208 79.4038208,62.3350129 78.0696742,64.3252895 C76.6426188,66.4902003 75.9334445,69.4427775 76.6438296,71.5903663 Z" id="Path" fill="#3B424C" fill-rule="nonzero"></path>
        <path d="M96.891395,58.3266927 C96.7512679,58.2853562 97.1143624,58.3384552 96.9884363,58.3418329 C97.0509967,58.3382099 97.1131589,58.3295121 97.1743089,58.3158254 C97.1847094,58.3137274 97.3260963,58.2686636 97.2321767,58.3018391 C97.4431202,58.238811 97.6312903,58.1161119 97.7739627,57.9485592 C98.1075827,57.5363365 98.3693063,57.0708966 98.5481438,56.5717832 C98.7739076,55.9122051 99.1367093,55.3077811 99.6127417,54.7981739 C99.886766,54.5231705 100.275633,54.3952467 100.659571,54.4538033 C101.043508,54.5123598 101.37647,54.7503737 101.555904,55.0945365 C101.735545,55.7491662 101.674024,56.4464786 101.382531,57.0596112 C101.178953,57.6835007 100.87597,58.2704877 100.485259,58.797947 C99.8306007,59.6604772 98.9389558,60.3140969 97.9190031,60.6791389 C96.7383979,61.1075627 95.4510211,61.1443205 94.2478563,60.7839592 C93.9230762,60.6493308 93.7085197,60.3357585 93.7008504,59.9845155 C93.6931811,59.6332724 93.8938466,59.310649 94.2124414,59.1619963 L96.2190565,58.3413294 C96.5064157,58.2149959 96.8394011,58.251435 97.0925803,58.4369204 C97.3457595,58.6224057 97.4806686,58.9287577 97.4464886,59.2405765 C97.4123086,59.5523953 97.2142322,59.8223082 96.926873,59.9486416 L94.9202579,60.7693155 L94.8848429,59.1473527 C95.1351777,59.219563 95.3928092,59.2635763 95.6529349,59.2785721 C95.9305171,59.3063575 96.2106436,59.2945561 96.4848997,59.2435225 C96.747562,59.2091144 97.0056915,59.14622 97.2547205,59.0559522 C97.4142252,58.9977477 97.5706721,58.9314957 97.7234579,58.8574517 C97.7789414,58.8305281 97.8339279,58.8025742 97.8884175,58.7735899 C97.884491,58.7756878 98.1179849,58.6398389 98.0155684,58.7036584 C98.2750875,58.5379509 98.5185818,58.3484326 98.7428912,58.137563 C98.8221029,58.0627868 98.8950676,57.9816692 98.9610572,57.8950197 C99.075342,57.7546946 99.1813286,57.6078217 99.2784761,57.4551507 C99.47615,57.13184 99.6327342,56.7851789 99.74461,56.4231788 C99.7956194,56.2710385 99.8386679,56.1163482 99.8735806,55.9597358 C99.8832829,55.8737698 99.8988452,55.7885655 99.920159,55.7047167 C99.9946215,55.5049224 99.906021,55.8213764 99.9916819,55.9079446 L100.361565,56.1802787 C100.502269,56.2221628 100.6544,56.1978264 100.774983,56.1141445 C100.818796,56.0525256 100.809217,56.0627472 100.746245,56.1448095 C100.672965,56.2413777 100.605892,56.3424943 100.545429,56.4475499 C100.412859,56.6948656 100.292942,56.9487477 100.186142,57.2082156 C99.9653778,57.7600417 99.6862636,58.2867334 99.3535475,58.7793313 C98.684834,59.8013135 97.4349864,60.2788138 96.2544435,59.9633342 C95.8050196,59.784571 95.5822201,59.2786347 95.7539445,58.8267938 C95.9372897,58.3820671 96.4393601,58.1613227 96.891395,58.3266927 L96.891395,58.3266927 Z" id="Path" fill="#3B424C" fill-rule="nonzero"></path>
    </g>
</svg>