<?xml version="1.0" encoding="UTF-8"?>
<svg width="446px" height="380px" viewBox="0 0 446 380" version="1.1" xmlns="http://www.w3.org/2000/svg" xmlns:xlink="http://www.w3.org/1999/xlink">
    <title>slogan</title>
    <g id="slogan" stroke="none" stroke-width="1" fill="none" fill-rule="evenodd">
        <path d="M204.429674,14.0924223 C204.934937,10.7450539 202.379148,8.93452756 198.871779,7.71347492 L200.008621,3.18084333 L197.2402,2.48610649 L196.134937,6.92189595 C195.408621,6.73873807 194.650726,6.57031698 193.894937,6.39558015 L195.002305,1.91768542 L192.223358,1.22294858 L191.086516,5.78084333 C190.486516,5.63979072 189.897042,5.50294859 189.318095,5.35979071 L185.497042,4.41242229 L184.7602,7.37452753 C184.7602,7.37452753 186.812832,7.84821174 186.770727,7.87136964 C187.897042,8.15768544 188.097042,8.89452755 188.065463,9.48400121 L184.95599,21.9471591 C184.798095,22.2966328 184.450726,22.801896 183.663358,22.6082118 C183.694937,22.650317 181.642305,22.1029486 181.642305,22.1029486 L180.252832,25.281896 L183.852832,26.1787381 L185.810727,26.6882118 L184.673884,31.2987381 L187.452832,31.9871591 L188.589674,27.4187381 C189.347569,27.6292644 190.073884,27.8187381 190.8002,27.9934749 L189.726516,32.5282117 L192.505463,33.2229486 L193.652832,28.6124222 C198.368621,29.5113696 201.926516,29.1534749 203.421253,24.8776854 C204.621253,21.4313696 203.358095,19.4461065 200.859148,18.1492644 C202.657042,17.7429486 204.017042,16.5492644 204.39599,14.0861065 L204.417042,14.0861065 L204.429674,14.0924223 Z M198.092832,22.9766328 C197.242305,26.4292643 191.446516,24.5555801 189.566516,24.0924223 L191.082305,17.9871591 C192.968621,18.4713696 198.991779,19.3976854 198.092832,22.9766328 Z M198.95599,14.050317 C198.177042,17.1871591 193.351779,15.5976854 191.787569,15.2082117 L193.164411,9.65031698 C194.730727,10.0292643 199.768621,10.7534749 198.953884,14.0376854 L198.953884,14.050317 L198.95599,14.050317 Z" id="Shape" fill="#FFFFFF" fill-rule="nonzero" opacity="0.3"></path>
        <g id="Group-9" opacity="0.3" transform="translate(219.909850, 247.563900)" fill="#FFFFFF" fill-rule="nonzero">
            <polygon id="Path" points="26.703032 0 3.18944465 0 3.18944465 5.67663543 12.1079207 5.67663543 12.1079207 14.0202465 17.784556 14.0202465 17.784556 5.67663543 26.703032 5.67663543"></polygon>
            <path d="M15.0001242,14.9089901 C7.62248471,14.9089901 1.64115849,13.7413811 1.64115849,12.3008667 C1.64115849,10.8606005 7.62223637,9.69274324 15.0001242,9.69274324 C22.3777636,9.69274324 28.3588415,10.8606005 28.3588415,12.3008667 C28.3588415,13.7413812 22.3777636,14.9089901 15.0001242,14.9089901 M30,12.7356781 C30,10.8782313 23.2843864,9.37265648 15.0001242,9.37265648 C6.71611029,9.37265648 0,10.8782313 0,12.7356781 C0,14.3713735 5.20755559,15.7341633 12.108169,16.0361225 L12.108169,28.0136743 L17.7843077,28.0136743 L17.7843077,16.0408407 C24.738062,15.7483176 30,14.3798164 30,12.7356781" id="Shape"></path>
        </g>
        <path d="M171,232.129827 L160.002453,248 L160.002453,238.815119 L171,232.129827 Z M160.002453,212 L171,230.527527 L160.002453,237.153657 L160.002453,212 Z M149,232.129827 L160.002453,238.815119 L160.002453,248 L149,232.129827 Z M160.002453,212 L160.002453,237.153657 L149,230.527527 L160.002453,212 Z" id="Combined-Shape" fill="#FFFFFF" fill-rule="nonzero" opacity="0.3"></path>
        <g id="Group-13" opacity="0.3" transform="translate(118.000000, 52.000000)" fill="#FFFFFF" fill-rule="nonzero">
            <path d="M12.9299541,29.9988815 C12.8215883,30.0035357 12.7130764,29.9936492 12.6075502,29.9695071 C11.6304043,29.7940073 10.8323251,29.1171299 10.5294973,28.2070416 L0.261470749,3.52665 C-0.156682312,2.67578764 -0.0686391906,1.67481628 0.492195727,0.903513862 C1.00353335,0.30645861 1.77543178,-0.0270441896 2.57941661,0.0017190353 C2.75017097,0.00221664219 2.92068787,0.0139941625 3.08976199,0.0369683449 L22.9076644,2.5793248 C23.4870418,2.66986509 24.0247265,2.92572246 24.4509243,3.31368541 L29.2335021,7.91078289 C30.1678279,8.84107079 30.2585828,10.286682 29.4474194,11.3182161 L15.1134377,28.8518102 C14.6111602,29.540144 13.8039054,29.9642273 12.9299541,29.9988815 L12.9299541,29.9988815 Z M2.58552854,2.20480089 C2.48480037,2.19567899 2.38356442,2.21616525 2.2952123,2.26354971 C2.28922433,2.41830919 2.32115126,2.57225587 2.3884191,2.71297841 L12.6564456,27.3874952 C12.7756281,27.6812394 12.9131463,27.7840499 12.9314821,27.7840499 C12.9498178,27.7840499 13.0980319,27.7267698 13.2966693,27.4756184 L27.629123,9.93908689 C27.6852393,9.86659083 27.7103861,9.77621035 27.6994101,9.68646686 C27.6975748,9.60006314 27.6615054,9.51758941 27.5985634,9.45587761 L22.8159856,4.85878014 C22.7461549,4.81327892 22.6693317,4.7785872 22.5883165,4.75596967 L2.79944575,2.22536297 C2.72900794,2.21182175 2.65736116,2.20493494 2.58552854,2.20480089 Z" id="Shape"></path>
            <path d="M12.473088,29.8079478 C11.8448894,29.7543145 11.3802253,29.2222835 11.4340615,28.6182836 L12.9162022,13.0204641 L1.13547538,2.95972358 C0.68283288,2.54988561 0.652164225,1.86806804 1.06631673,1.42220654 C1.48046924,0.976345039 2.1887263,0.928695623 2.66345553,1.31475582 L14.8720168,11.7426766 C15.1451397,11.9751981 15.2869522,12.3187061 15.2540119,12.667971 L13.7260317,28.8239045 C13.6586596,29.3836674 13.1662766,29.8064707 12.5800466,29.8079478 L12.473088,29.8079478 Z" id="Path"></path>
            <path d="M13.0980319,13.0674631 C12.8584562,12.6420144 12.9393475,12.1156788 13.2966693,11.7749885 L22.4645501,2.96266105 C22.9160832,2.55823571 23.6197179,2.57016907 24.0561275,2.98965356 C24.492537,3.40913805 24.5049519,4.08548407 24.0842091,4.51950553 L17.5902935,10.7571646 L27.6902422,8.81845261 C28.1002627,8.72119617 28.5327025,8.84858635 28.8156216,9.14997223 C29.0985406,9.45135811 29.1860811,9.8778886 29.0434366,10.2599732 C28.900792,10.6420579 28.5510834,10.9177652 28.1333564,10.9774728 L14.320416,13.6358582 C14.249927,13.6485848 14.178154,13.6535126 14.1064988,13.6505455 C13.6839777,13.6505829 13.2960002,13.4262594 13.0980319,13.0674631 L13.0980319,13.0674631 Z" id="Path"></path>
        </g>
        <g id="Group-11" transform="translate(295.661526, 224.308333)" fill="#FFFFFF" fill-rule="nonzero" opacity="0.3">
            <path d="M17.7535994,14.9798881 C17.7535994,12.4596161 16.2410905,11.5953253 13.2160727,11.2357803 C11.0553457,10.9471072 10.6232003,10.3714896 10.6232003,9.36199792 C10.6232003,8.35423484 11.3440188,7.70601674 12.7839273,7.70601674 C14.0803635,7.70601674 14.801182,8.13816215 15.160727,9.21852562 C15.2368774,9.43240257 15.4384532,9.57599082 15.6654728,9.57807061 L16.8167082,9.57807061 C16.9512686,9.58140733 17.0813348,9.5295409 17.1766758,9.43452641 C17.2720168,9.33951192 17.3243291,9.20962451 17.321454,9.07505336 L17.321454,9.00245293 C17.0343734,7.39788672 15.7046764,6.18662141 14.0803635,6.05003556 L14.0803635,4.321454 C14.0803635,4.03278088 13.8642908,3.81670816 13.5047458,3.74410773 L12.4243823,3.74410773 C12.1357092,3.74410773 11.9196365,3.96018042 11.8470361,4.321454 L11.8470361,5.97743513 C9.68630909,6.26610825 8.31900102,7.70601674 8.31900106,9.50719877 C8.31900106,11.8839985 9.75890951,12.8191611 12.7839273,13.1804346 C14.801182,13.5399796 15.4494001,13.972125 15.4494001,15.1250889 C15.4494001,16.2780529 14.4399085,17.0697432 13.0726004,17.0697432 C11.198818,17.0697432 10.5505999,16.2763243 10.3345272,15.1959608 C10.2636554,14.9090162 10.0475826,14.7638154 9.83150994,14.7638154 L8.60594558,14.7638154 C8.47137443,14.7609403 8.34148702,14.8132526 8.24647253,14.9085936 C8.15145804,15.0039346 8.09959161,15.1340007 8.10292833,15.2685612 L8.10292833,15.3411616 C8.38987289,17.1406151 9.54283679,18.4370513 11.9196365,18.7983248 L11.9196365,20.5269064 C11.9196365,20.813851 12.1357092,21.0299237 12.4952542,21.1025241 L13.5756177,21.1025241 C13.8642908,21.1025241 14.0803635,20.8864514 14.1529639,20.5269064 L14.1529639,18.7983248 C16.3136909,18.4370513 17.7535994,16.9245424 17.7535994,14.9798881 L17.7535994,14.9798881 Z" id="Path"></path>
            <path d="M9.3267641,22.5424326 C3.70887391,20.5269064 0.82732841,14.2607981 2.91718356,8.71377982 C3.99754707,5.68876202 6.37434673,3.38456279 9.3267641,2.30419928 C9.61543721,2.16072702 9.75890951,1.94465429 9.75890951,1.58338075 L9.75890951,0.57561767 C9.75890951,0.286944558 9.61543725,0.0708718318 9.3267641,0 C9.25416368,0 9.11069142,0 9.03809099,0.0708718318 C2.19636503,2.23159881 -1.54947125,9.50719873 0.611255725,16.3489247 C1.88518027,20.359591 5.02742466,23.5018354 9.03809099,24.77576 C9.3267641,24.9192322 9.61543725,24.77576 9.68630909,24.4870868 C9.75890951,24.416215 9.75890951,24.3436146 9.75890951,24.2001423 L9.75890951,23.1906506 C9.75890951,22.974578 9.54283683,22.6876334 9.3267641,22.5424326 L9.3267641,22.5424326 Z M16.961909,0.0708718318 C16.6732359,-0.0726004269 16.3845627,0.0708718318 16.3136909,0.359544985 C16.2410905,0.432145412 16.2410905,0.503017243 16.2410905,0.648218097 L16.2410905,1.65598118 C16.2410905,1.94465429 16.4571632,2.23159885 16.6732359,2.3767997 C22.2911261,4.39232583 25.1726716,10.6584341 23.0828164,16.2054524 C22.0069245,19.1895734 19.6573569,21.539141 16.6732359,22.615033 C16.3845628,22.7585052 16.2410905,22.974578 16.2410905,23.3358515 L16.2410905,24.3436146 C16.2410905,24.6322877 16.3845627,24.8483604 16.6732359,24.9192323 C16.7458363,24.9192323 16.8893086,24.9192323 16.961909,24.8483604 C23.803635,22.6876334 27.5494713,15.4120335 25.3887443,8.57030752 C24.1193043,4.54128197 20.9798967,1.3748272 16.961909,0.0708718318 Z" id="Shape"></path>
        </g>
        <g id="Path-2" opacity="0.6" transform="translate(318.000000, 17.000000)" fill="#FFFFFF" fill-rule="nonzero">
            <path d="M22.7154047,8.06788512 C22.1671018,7.75456919 21.462141,7.75456919 20.8355091,8.06788512 L16.4490862,10.6527415 L13.4725849,12.2976501 L9.16449086,14.8825065 C8.61618799,15.1958225 7.91122715,15.1958225 7.2845953,14.8825065 L3.91644909,12.845953 C3.36814621,12.5326371 2.97650131,11.9060052 2.97650131,11.2010444 L2.97650131,7.2845953 C2.97650131,6.65796345 3.28981723,6.03133159 3.91644909,5.63968668 L7.2845953,3.68146214 C7.83289817,3.36814621 8.53785901,3.36814621 9.16449086,3.68146214 L12.5326371,5.71801567 C13.0809399,6.03133159 13.4725849,6.65796345 13.4725849,7.36292428 L13.4725849,9.94778068 L16.4490862,8.22454308 L16.4490862,5.5613577 C16.4490862,4.93472585 16.1357702,4.30809399 15.5091384,3.91644909 L9.24281984,0.234986945 C8.69451697,-0.0783289817 7.98955614,-0.0783289817 7.36292428,0.234986945 L0.939947781,3.99477807 C0.313315927,4.30809399 0,4.93472585 0,5.5613577 L0,12.924282 C0,13.5509138 0.313315927,14.1775457 0.939947781,14.5691906 L7.2845953,18.2506527 C7.83289817,18.5639687 8.53785901,18.5639687 9.16449086,18.2506527 L13.4725849,15.7441253 L16.4490862,14.0208877 L20.7571802,11.5143603 C21.305483,11.2010444 22.0104439,11.2010444 22.6370757,11.5143603 L26.0052219,13.4725849 C26.5535248,13.7859008 26.9451697,14.4125326 26.9451697,15.1174935 L26.9451697,19.0339426 C26.9451697,19.6605744 26.6318538,20.2872063 26.0052219,20.6788512 L22.7154047,22.6370757 C22.1671018,22.9503916 21.462141,22.9503916 20.8355091,22.6370757 L17.4673629,20.6788512 C16.9190601,20.3655352 16.5274151,19.7389034 16.5274151,19.0339426 L16.5274151,16.5274151 L13.5509138,18.2506527 L13.5509138,20.8355091 C13.5509138,21.462141 13.8642298,22.0887728 14.4908616,22.4804178 L20.8355091,26.1618799 C21.383812,26.4751958 22.0887728,26.4751958 22.7154047,26.1618799 L29.0600522,22.4804178 C29.6083551,22.1671018 30,21.54047 30,20.8355091 L30,13.3942559 C30,12.767624 29.6866841,12.1409922 29.0600522,11.7493473 L22.7154047,8.06788512 Z" id="Path" opacity="0.4"></path>
        </g>
        <g id="Path-3" transform="translate(264.000000, 7.000000)" fill="#FFFFFF" fill-rule="nonzero" opacity="0.2">
            <polygon id="Path" points="6.26709535 16.2426183 7.39418636 10.8766312 13.0903269 6.97168159 13.7580432 3.7825203 8.060756 7.70343517 9.67888755 0 5.30300825 0 2.9526821 11.2187807 0.556400861 12.8680488 0 15.9458947 2.29087557 14.375306 1.11262531 20 15.129993 20 15.9087601 16.2426183"></polygon>
        </g>
        <g id="Group" transform="translate(1.000000, 34.000000)">
            <polygon id="Path" fill="#FFB6B6" fill-rule="nonzero" points="11.4237641 307.335719 15.7288529 311.881965 35.7187149 297.084463 29.365017 290.374537"></polygon>
            <path d="M18.4784476,309.850441 L13.6046685,305.275859 L12.4078384,304.155291 L0,314.066981 L3.22765476,317.475581 L7.02685538,315.041148 L5.28149917,319.644835 L13.8390162,328.681927 C14.6806092,329.57154 16.0033571,329.811075 17.1038933,329.273161 C18.2044295,328.735247 18.8270893,327.544846 18.6407755,326.334949 L16.7938987,314.39661 L20.0483877,311.321387 L18.4784476,309.850441 Z" id="Path" fill="#413F56" fill-rule="nonzero"></path>
            <path d="M106.037892,141.807053 L104.672953,156.695466 C104.672953,156.695466 102.290492,167.912532 103.940157,167.003366 C105.589823,166.094201 102.632043,170.186256 103.411032,173.734747 C104.190022,177.283238 96.7570001,203.745207 100.123599,201.003949 C103.490198,198.26269 98.1780224,217.200192 94.8182964,226.542926 C93.7896314,229.431012 92.7325925,232.354274 91.6687435,235.256389 C91.4589133,235.844044 91.2487331,236.424189 91.0320649,237.011844 C89.6531137,240.788081 88.2741555,244.50831 86.9515882,248.018884 C86.762615,248.508545 86.5804519,248.997855 86.3986667,249.480683 C86.3914857,249.494341 86.3914857,249.508341 86.3846687,249.508341 C82.0311328,260.956209 78.3006064,269.9633 76.8099021,271.453099 C76.0331103,272.229248 63.7079512,281.124679 51.284715,290.033775 C38.2456501,299.383698 25.1013273,308.754433 25.1013273,308.754433 L12.8250702,295.88711 C12.8250702,295.88711 13.1189725,295.803109 13.67195,295.635448 C14.6938049,295.341449 16.5836486,294.788962 19.0613178,294.054822 C29.3916902,291.012732 16.2685533,286.278357 25.6474947,282.893757 C28.2929722,281.94278 30.0567358,281.201471 30.4555531,280.809799 C32.7862782,278.537026 35.914981,273.117336 37.3916804,275.390109 C38.8683797,277.662882 45.5666388,260.774499 47.4982035,259.103066 C48.5340565,258.20095 51.9146185,253.984201 54.8122981,250.277629 C57.3036434,247.088712 59.4453814,244.270627 59.4453814,244.270627 C59.4453814,244.270627 59.4874174,242.759995 59.5502965,240.354394 C59.6415495,236.794993 59.7744886,231.263301 59.9146017,225.724784 C59.9074278,225.717609 59.9074278,225.717609 59.9146017,225.717609 C59.9634758,223.63365 60.0123429,221.549692 60.0615809,219.570631 C60.0964429,218.039174 60.131298,216.563717 60.166503,215.199914 C60.2574061,211.116027 60.3202851,208.025111 60.3202851,207.255795 C60.3202851,204.731366 60.3202851,206.696483 62.3150719,205.171837 C62.6129557,204.938079 62.8958089,204.685808 63.1619517,204.416521 C63.5884347,204.03301 63.981813,203.61427 64.3379108,203.164747 C64.4848899,202.850266 63.5679501,203.27675 62.377979,203.039095 C61.7336242,202.909805 61.137686,202.604761 60.6562235,202.157776 C58.1505232,199.906178 60.8523916,192.983024 60.8523916,192.983024 C55.1551025,181.59799 55.5682748,172.262067 58.2345953,165.06609 C60.2285159,159.902314 63.3932336,155.270611 67.4802826,151.53462 C69.0357972,150.053518 70.7304948,148.725584 72.5408931,147.569219 L72.7158683,146.625416 L74.640595,136.212528 C75.6640963,135.650738 76.7285501,135.166885 77.824898,134.765086 C81.2435456,133.539474 84.9117717,133.174393 88.5052136,133.702127 C92.0766146,134.218486 95.5343482,135.336967 98.7310069,137.009886 C101.343957,138.321492 103.795947,139.93129 106.037892,141.807053 Z" id="Path" fill="#413F56" fill-rule="nonzero"></path>
            <polygon id="Path" fill="#FFB6B6" fill-rule="nonzero" points="52.2825633 330.531992 58.5193778 331.111724 63.7749317 306.81473 54.5691387 305.959468"></polygon>
            <path d="M70.2449041,340.055632 L60.9780518,332.300343 L61.3980621,327.838798 L59.2426551,327.768796 L52.5656031,327.551967 L52.5584291,327.551967 L50.9207666,327.495966 L48.1420141,343.118897 L52.8243074,343.552206 L54.0631315,339.216664 L55.79204,343.832205 L58.2696883,344.063035 L68.1872313,344.986011 C68.2712963,344.992837 68.3622064,345 68.4462715,345 C69.2438253,345.001015 70.003415,344.659779 70.5319754,344.063021 C70.93795,343.618899 71.1863118,343.053596 71.238714,342.454394 C71.321936,341.540237 70.9504389,340.643553 70.2449041,340.055632 L70.2449041,340.055632 Z" id="Path" fill="#413F56" fill-rule="nonzero"></path>
            <path d="M86.9516022,248.018905 C84.5788481,260.921404 74.535204,291.173623 68.4602835,308.880464 C65.695543,316.971417 63.7639502,322.447108 63.7639502,322.447108 L60.6143974,321.45413 L60.6072234,321.45413 L55.2810706,319.775502 L53.3423458,319.160189 L53.3351648,319.160189 L50.9835967,318.412048 C50.9835967,318.412048 51.2566489,303.964092 51.284673,290.033796 C51.305523,284.194448 51.277499,278.4391 51.1657458,273.879554 C51.0396447,268.907523 50.8226336,265.348116 50.4658452,264.641605 C48.9888099,261.746344 51.4596481,261.438687 54.0702635,260.711372 C56.6877169,259.977231 54.644063,258.872258 53.6290671,256.522658 C52.9435214,254.956025 54.2941127,252.865241 55.2530606,251.67628 C55.5176469,251.3417 55.800363,251.021839 56.0999403,250.718135 C56.0999403,250.718135 55.6378939,250.557292 54.8122281,250.27765 C57.3035734,247.088733 59.4453114,244.270648 59.4453114,244.270648 C59.4453114,244.270648 59.4873474,242.760016 59.5502265,240.354415 C59.6414795,236.795014 59.7744186,231.263322 59.9145318,225.724805 C59.9073578,225.71763 59.9073578,225.71763 59.9145318,225.71763 C59.9634058,223.633671 60.0122729,221.549713 60.0615109,219.570652 C64.0647535,222.640742 67.956243,225.647999 71.4837702,228.431265 C71.4925089,228.437929 71.4976755,228.448254 71.4977682,228.459237 C79.9734669,235.151562 86.3357946,240.522418 87.2315345,242.228712 C87.6375048,242.997699 87.4973847,245.053985 86.9516022,248.018905 Z" id="Path" fill="#413F56" fill-rule="nonzero"></path>
            <path d="M295.611823,20.2051907 C298.037924,19.9784894 300.203637,21.722996 300.496654,24.1399765 C300.521577,24.3766949 300.52684,24.6150689 300.512387,24.8526552 L314.945626,31.0109824 L314.394916,39.4280196 L295.535989,28.8560228 C293.5179,28.5761178 291.942023,26.9725389 291.698784,24.9513635 C291.573708,23.8205719 291.903338,22.6864501 292.615159,21.7984938 C293.32698,20.9105375 294.362682,20.341484 295.494422,20.2165196 C295.533509,20.2122118 295.572643,20.2084355 295.611823,20.2051907 Z" id="Path" fill="#FFB6B6" fill-rule="nonzero"></path>
            <path d="M393.808827,72.1624223 C393.452533,70.5305856 392.789934,68.9810035 391.856104,67.5957076 C391.596687,67.2015055 391.313888,66.823171 391.009224,66.4627337 C389.875644,65.1132798 388.818619,63.8754786 387.838828,62.7705052 C387.243843,62.0780157 386.662869,61.434702 386.117073,60.8405572 C382.94667,57.3648156 380.867818,55.5257015 379.916044,55.3716984 C379.454005,55.2948717 378.999132,55.2388705 378.557936,55.1828834 C376.297614,54.9032274 374.659615,54.7003981 374.610741,52.3156227 C374.605816,51.9739523 374.629135,51.632459 374.680458,51.294623 C374.765429,50.7273379 374.889438,50.1665801 375.051602,49.6163374 C375.144745,49.3044485 375.217238,48.9867716 375.268613,48.6653671 C375.338666,48.2528763 375.310642,47.944877 375.086457,47.756048 C374.806567,47.5255609 374.337689,47.5603937 373.455632,47.9100511 C373.315862,47.9660523 373.154899,48.0288787 372.986755,48.1057054 C372.930707,48.1268807 372.875002,48.1548813 372.81178,48.1828818 C372.700027,48.231708 372.573926,48.2877091 372.44816,48.3505356 C371.391135,48.8541961 369.760311,48.9170225 367.898806,48.7281656 C362.404516,48.1688536 354.971495,45.3995878 354.880585,45.3644193 L308.070999,27.1894227 L307.63732,27.8887375 L306.608319,29.5530229 L306.251531,30.1263352 L305.845532,30.7836492 L304.074595,33.6369096 L303.178876,35.0775401 L318.296792,46.4693787 L319.941286,47.7071659 L321.355442,48.7773064 L350.219169,70.5328998 L360.983557,77.6308754 L363.384342,79.2111591 L373.616966,85.9526519 C376.588263,87.9142141 380.226814,88.5928116 383.706255,87.8343252 C387.185696,87.0758388 390.210713,84.9446445 392.09428,81.9247664 C393.911179,79.0159245 394.525942,75.5155646 393.808827,72.1624223 L393.808827,72.1624223 Z" id="Path" fill="#E6E6E6" fill-rule="nonzero"></path>
            <polygon id="Path" fill="#FFB6B6" fill-rule="nonzero" points="71.1063908 116.639559 72.4180046 128.795049 71.6467141 144.733833 106.981198 140.540042 110.300826 116.639559 106.070627 116.681518"></polygon>
            <path d="M101.162224,77.3787864 L87.8641117,66.889064 L87.8641117,66.889064 L80.8835267,66.4835313 L70.5255153,73.1135604 L67.9891944,86.0420663 L61.99078,100.600549 L70.7887969,139.889308 C70.7887969,139.889308 71.6139797,142.708603 69.4516297,143.047246 C67.2892797,143.385889 67.5485579,147.541638 67.5485579,147.541638 C67.5485579,147.541638 67.9888934,151.143326 65.8891915,151.460493 C63.7894896,151.77766 58.1905855,151.77766 63.0898899,158.071494 C67.9891944,164.365327 106.739704,140.561007 106.739704,140.561007 L112.367941,111.053991 C112.367941,111.053991 123.282989,96.405982 111.528319,88.0168195 L101.162224,77.3787864 Z" id="Path" fill="#E6E6E6" fill-rule="nonzero"></path>
            <path d="M43.1097496,166.582393 C41.9235901,165.103472 41.4539725,163.175554 41.8272614,161.317406 C42.2005503,159.459257 43.3784005,157.861751 45.043876,156.954744 L61.7708012,100.86638 L72.2300183,106.127745 L54.0140475,159.887852 C55.3836466,162.849418 54.3198589,166.366455 51.5378844,168.074408 C48.75591,169.782361 45.1350849,169.141375 43.1097426,166.582393 L43.1097496,166.582393 Z" id="Path" fill="#FFB6B6" fill-rule="nonzero"></path>
            <path d="M72.9276162,72.5945988 C72.9276162,72.5945988 69.9377387,71.0069304 67.8926571,77.877223 C66.2554285,83.3773971 52.9703206,116.1388 52.8008817,124.103982 C50.5519277,124.580162 48.9113483,126.517861 48.8141147,128.812777 L65.2399567,131.012122 C68.1102492,128.593255 68.8632443,125.326266 67.7527119,124.356624 L71.3191186,114.624217 L86.1979002,83.6589762 L75.1092345,73.703894 L72.9276162,72.5945988 Z" id="Path" fill="#E6E6E6" fill-rule="nonzero"></path>
            <path d="M160.695933,148.146139 C161.125362,146.300136 160.714385,144.358894 159.573589,142.844763 C158.432793,141.330633 156.679363,140.399148 154.785111,140.300953 L116.413919,96.5145646 L108.274306,106.21881 L147.966574,146.821469 C148.013438,150.083577 150.494806,152.795113 153.742416,153.133071 C156.990026,153.471029 159.977363,151.328587 160.695996,148.146139 L160.695933,148.146139 Z" id="Path" fill="#FFB6B6" fill-rule="nonzero"></path>
            <path d="M93.1319838,76.2847014 C93.1319838,76.2847014 95.1406986,73.5612897 99.9581146,78.8723061 C103.814847,83.1241822 129.972807,106.923649 133.572942,114.032338 C135.806831,113.489958 138.124727,114.528241 139.205652,116.555466 L125.347031,125.635845 C121.712118,124.695036 119.619184,122.074675 120.200844,120.72055 L112.772924,113.486187 L85.9553917,91.994844 L91.6450099,78.2275308 L93.1319838,76.2847014 Z" id="Path" fill="#E6E6E6" fill-rule="nonzero"></path>
            <ellipse id="Oval" fill="#3CFF85" fill-rule="nonzero" cx="236.342432" cy="98.6033908" rx="97.9860886" ry="97.904076"></ellipse>
            <path d="M321.355442,48.7773344 C317.24011,41.7940987 312.287851,35.338343 306.608319,29.5530089 C305.341457,28.2663745 304.032902,27.007405 302.695979,25.7836041 C301.95405,25.1054645 301.205275,24.4409756 300.442152,23.7904869 C298.993484,22.5458604 297.502773,21.342885 295.984044,20.1822602 C278.826765,7.06941449 257.820488,-0.0242711263 236.21941,6.23950646e-05 C181.808974,6.23950646e-05 137.533412,44.231788 137.533412,98.6035159 C137.530901,104.598762 138.076664,110.581698 139.163902,116.477702 C139.165644,116.510743 139.17045,116.543551 139.178257,116.575704 C139.675187,119.282137 140.290994,121.953393 141.004907,124.575824 C151.339451,162.401633 183.123898,190.513995 221.955598,196.174212 C260.787299,201.834429 299.285178,183.966614 320.004494,150.667302 C321.36909,148.471356 322.652241,146.219525 323.853947,143.911809 C339.432147,113.876896 338.488723,77.954587 321.355442,48.7773344 L321.355442,48.7773344 Z M236.21941,195.808283 C210.414795,195.817126 185.664527,185.578781 167.417907,167.347433 C149.171288,149.116086 138.924366,124.386533 138.933216,98.6035159 C138.933216,45.0007616 182.578935,1.39875477 236.21941,1.39875477 C262.444016,1.41360859 287.551197,12.0097979 305.845525,30.7836352 C308.207292,33.1924876 310.436264,35.7278313 312.522577,38.378446 C314.588305,40.9721414 316.515708,43.6728735 318.296757,46.4693927 C333.317145,70.0458421 337.44839,98.9434543 329.634945,125.778799 C328.774067,128.743712 327.766266,131.646142 326.632371,134.492262 C325.491617,137.345522 324.224755,140.142782 322.824954,142.856067 C306.137653,175.299233 272.726705,195.727296 236.21941,195.808283 Z" id="Shape" fill="#131415" fill-rule="nonzero"></path>
            <polygon id="Path" fill="#FFB6B6" fill-rule="nonzero" points="370.468589 330.754374 364.035803 330.699828 361.187907 305.329385 370.682759 305.409806"></polygon>
            <path d="M372.175108,327.789622 L370.495417,327.677969 L363.643389,327.209484 L361.438429,327.062628 L361.396736,331.657008 L351.122076,338.622184 C350.080523,339.329153 349.620187,340.630777 349.985954,341.83463 C350.35172,343.038483 351.458572,343.864746 352.717696,343.87387 L365.50488,343.979047 L367.744702,339.447487 L368.56353,344.00702 L373.392774,344.048678 L372.175108,327.789622 Z" id="Path" fill="#413F56" fill-rule="nonzero"></path>
            <polygon id="Path" fill="#FFB6B6" fill-rule="nonzero" points="438.198674 326.057776 432.050047 327.946625 421.67052 304.618881 430.746132 301.831412"></polygon>
            <path d="M438.931232,322.71959 L437.293576,323.118423 L430.624013,324.733882 L428.475101,325.258368 L429.825685,329.657058 L422.133616,339.391465 C421.452476,340.257325 421.325507,341.435615 421.806569,342.426502 C422.287631,343.417389 423.29239,344.047159 424.394624,344.048664 C424.679275,344.048087 424.962298,344.005751 425.234638,343.923011 L437.461713,340.167606 L438.224493,335.167575 L440.387081,339.265462 L445,337.846007 L438.931232,322.71959 Z" id="Path" fill="#413F56" fill-rule="nonzero"></path>
            <path d="M357.52919,117.426099 L345.252828,153.072889 L344.847439,155.925394 C341.754179,158.859964 345.640013,159.826732 344.183002,160.600622 C342.725991,161.374511 341.746109,163.543898 343.709611,163.931528 C345.673112,164.319158 352.003559,303.355975 360.353716,308.754496 C368.703874,314.153018 373.785706,318.057866 372.252027,310.153126 C371.634099,306.968264 372.508107,289.892521 373.772148,270.636313 C373.915411,268.453934 376.17868,266.144006 374.215354,264.022194 C372.252027,261.900382 374.457225,260.504151 374.580562,258.743276 C376.341778,233.598146 378.375304,208.773098 378.375304,208.773098 C378.375304,208.773098 391.389438,253.429364 394.768894,249.972413 C398.148351,246.515462 396.810736,255.026767 397.843432,257.570119 C398.706409,259.695561 395.024302,263.870247 400.43578,263.934304 C405.847258,263.998361 418.556018,307.404909 419.84527,307.355853 C422.399495,307.258536 429.579628,307.533409 433.843283,306.656538 C435.948864,306.223515 426.602524,273.360166 418.798016,244.98197 C418.175629,242.718882 414.788341,242.666217 416.966852,238.297003 C419.145363,233.927789 408.305967,205.657084 409.236128,204.349583 C411.705027,200.879128 412.645169,199.370608 410.210354,199.143324 C407.77554,198.916039 407.056168,200.250563 406.924671,196.884033 C406.793173,193.517504 406.37289,185.21593 406.37289,185.21593 C406.37289,185.21593 404.609308,152.383945 392.258757,134.244607 L391.205483,123.466885 L357.52919,117.426099 Z" id="Path" fill="#413F56" fill-rule="nonzero"></path>
            <path d="M388.199018,49.3675142 L371.91898,51.6836449 L370.936613,63.4622465 L362.902979,76.0185701 C362.902979,76.0185701 345.045784,88.5747679 357.499746,108.409665 C352.760383,125.496101 348.048351,141.882537 343.556073,152.807282 C340.05657,174.486042 371.407219,176.563839 407.247031,168.891523 C407.247031,168.891523 406.752901,159.621994 403.500463,155.165666 C400.248025,150.709338 402.018507,149.736367 402.018507,149.736367 L399.745979,141.410975 C401.031976,129.376823 396.689723,128.296773 394.648806,122.736745 L400.844781,65.0471317 L388.199018,49.3675142 Z" id="Path" fill="#E6E6E6" fill-rule="nonzero"></path>
            <path d="M310.045314,150.202894 C310.404053,147.794776 312.61648,146.109804 315.035507,146.402391 C315.271521,146.434707 315.50445,146.486496 315.731909,146.557226 L325.16223,134.02277 L333.211395,136.566122 L318.435051,152.341266 C317.681321,154.232582 315.746645,155.378886 313.724181,155.132476 C312.595299,154.983932 311.571712,154.393399 310.878599,153.490788 C310.185486,152.588178 309.879624,151.447427 310.028299,150.319491 C310.033446,150.280548 310.039117,150.241683 310.045314,150.202894 Z" id="Path" fill="#FFB6B6" fill-rule="nonzero"></path>
            <path d="M393.808827,72.1624223 C393.577804,71.8755983 393.325937,71.5959423 393.060059,71.3231116 C389.276507,67.4269192 383.487857,66.2496681 378.481073,68.3581496 C378.243219,68.4558089 378.005014,68.5678112 377.774334,68.6798344 C369.410389,72.7845537 364.896233,75.5189866 364.350121,76.7987887 C364.161148,77.2324408 364.000171,77.6589459 363.839194,78.0714158 C363.685062,78.4770743 363.53811,78.8615576 363.384328,79.211215 C362.740469,80.7078467 361.998525,81.6379913 360.108667,81.2183325 C359.482035,81.0652184 358.877586,80.8326162 358.310049,80.5261927 C358.051001,80.4001901 357.813119,80.2673622 357.588955,80.1413597 C356.777301,79.694043 356.189154,79.3723861 355.790336,79.6660424 C355.405524,79.9525307 355.391512,80.6798461 355.741462,82.3653067 C355.857226,83.0687375 355.838208,83.7877373 355.685421,84.4840768 C355.222612,86.5154883 354.497981,88.4783205 353.529671,90.3234256 C352.078808,93.2156902 350.447146,96.0138217 348.644365,98.7012172 L331.993729,122.42192 L330.86698,124.023351 L329.63498,125.778813 L319.808375,139.779096 L320.389348,140.373234 L322.825003,142.856011 L323.363926,143.40847 L323.853996,143.911781 L325.120852,145.205583 L326.31048,146.415398 L352.857837,124.80664 L355.818416,122.393864 L361.123719,118.072322 L371.99298,109.226108 L392.563158,90.204612 C395.186884,87.7977368 396.71584,84.4266138 396.797416,80.8686891 C396.797416,80.7498615 396.804638,80.6378592 396.804638,80.5190317 C396.812225,77.4696086 395.752485,74.5134969 393.808827,72.1624223 L393.808827,72.1624223 Z" id="Path" fill="#E6E6E6" fill-rule="nonzero"></path>
            <ellipse id="Oval" fill="#FFB6B6" fill-rule="nonzero" cx="378.425347" cy="30.7623061" rx="18.1916983" ry="18.1764721"></ellipse>
            <path d="M402.533361,55.9665636 C404.97485,59.4578766 406.60801,63.4483757 407.314382,67.6486178 C405.346817,68.9063279 403.056423,69.5669158 400.720716,69.5506459 C400.641404,69.2447409 400.562091,68.9390984 400.471503,68.6334419 C399.794673,66.2667599 398.787811,64.0070451 397.480547,61.9207958 C397.659726,64.170445 397.354528,66.4323445 396.585494,68.5542655 C395.35123,67.9937783 394.02853,67.6528352 392.676933,67.5467836 C391.575846,67.5467042 390.489825,67.802466 389.504676,68.2938616 C388.360471,64.501743 387.306785,61.015218 386.559081,58.5135171 C386.536404,64.7847417 377.337008,70.2522158 367.299257,69.4598362 C366.936709,69.233426 370.573449,58.9210778 370.222238,58.6833387 C369.417836,58.151342 368.63611,57.5740156 367.854384,57.0080252 C371.139913,51.9366989 374.708601,46.5031975 374.096846,45.688216 C374.142137,46.6956979 370.539426,51.5405441 366.619528,56.1137274 C364.444237,54.5176672 376.804566,28.5499817 370.698052,26.4445126 C370.596055,27.3614192 369.247858,27.3614192 367.605191,27.1690027 C367.171857,25.656135 366.5273,24.2118341 365.690536,22.8787062 C365.799344,24.2215979 365.637528,25.5726558 365.214659,26.8519753 C363.592501,26.8524333 361.97488,27.0231734 360.388432,27.3613842 C360.021399,26.7842856 359.616433,26.2321657 359.176204,25.7086655 C359.219582,26.3466736 359.200614,26.9873875 359.119568,27.6217182 C357.499417,27.9726273 356.162565,28.3801251 355.970015,28.7084534 C354.701137,28.2442972 356.865006,26.150157 356.072011,25.0634287 C354.05536,22.3467165 357.046315,18.3847763 358.938286,15.5774119 C362.824233,9.82698799 371.355224,7.834689 377.393707,11.2872203 C377.665668,10.3476559 379.059149,9.72508384 380.849201,9.30625719 C381.607691,9.13917799 382.384024,9.06693057 383.16035,9.09117592 C390.864268,9.22700384 401.559134,15.5774119 401.978319,23.2636161 C402.012334,24.0333589 402.06897,24.8710122 402.125599,25.7652541 C402.669387,34.368365 402.001017,42.3035742 407.880882,48.5973937 C410.010799,50.8726215 410.033405,61.649112 409.217734,67.1958534 C407.099107,64.9658363 405.592291,56.2948779 402.533361,55.9665636 Z" id="Path" fill="#413F56" fill-rule="nonzero"></path>
            <path d="M68.7963548,38.320228 C67.1984046,42.2966091 62.6903307,50.1163195 62.0797164,54.38214 L62.3545463,54.1120995 C62.8788266,55.0069466 63.4745799,55.8580263 64.1359964,56.6570391 C65.3214863,55.4130503 66.7532805,54.429386 68.3401805,53.768701 C67.4736266,55.5452346 66.9717603,57.4771143 66.8641601,59.4504801 C68.5654296,64.7788325 76.4304019,62.4059874 81.0385477,61.8241784 C85.6402964,67.0835504 91.7626492,68.4559698 99.779857,65.4322793 C102.022108,65.6629413 104.532182,65.8029162 106.103396,64.4791132 C107.67461,63.1553102 106.738906,60.7037152 107.584253,58.849447 C113.605757,45.6415298 108.048707,40.8762027 103.327275,34.8872426 C102.288266,33.5692859 102.292605,31.6024909 101.028333,30.3450319 C99.2741367,28.6020177 96.5851465,28.065895 94.1060005,27.6364387 C95.4157355,27.7053818 96.6666457,27.0868781 97.4062419,26.0046575 C98.0567086,24.9115376 98.039365,23.5464361 97.3613363,22.4701665 C96.4746952,21.0014585 94.6322488,20.1473783 92.8547461,19.9340244 C91.1035446,19.8152051 89.344471,19.9662901 87.6392546,20.3819775 C86.5346742,20.5271374 85.465031,20.8687395 84.48096,21.3906132 C83.5301725,21.8974627 82.9939189,22.9405588 83.135373,24.0079878 C83.4354168,24.9831508 84.1644053,25.7682215 85.1152029,26.1401288 C85.8308381,26.4424317 86.5835291,26.6483078 87.3534852,26.7523439 C83.8169696,26.2937995 80.224547,26.9220627 77.0541604,28.5535482 C73.0809085,30.6711574 70.3997781,34.3459729 68.7963548,38.320228 Z" id="Path" fill="#413F56" fill-rule="nonzero"></path>
            <ellipse id="Oval" fill="#FFB6B6" fill-rule="nonzero" cx="90.3105793" cy="46.4223078" rx="14.2029156" ry="14.191028"></ellipse>
            <path d="M76.6438296,38.8133149 C77.4673607,41.3000784 79.8206786,42.1013953 81.9958088,42.6011677 C82.6816414,42.7608842 83.3717155,42.9097054 84.0681376,43.0421416 C84.3250711,42.7211561 84.5983613,42.4065903 84.8837738,42.1092556 C86.0692605,40.8652666 87.5010558,39.8816063 89.0879579,39.2209315 C88.4017358,40.624225 87.9456754,42.1285859 87.7372197,43.6764761 C89.052137,43.8670953 90.3743519,44.0228747 91.7038645,44.1438142 C94.0400034,44.6406303 96.3559377,43.2208355 96.9709107,40.9148259 C98.1812209,42.8924043 99.6123357,44.7548126 101.569412,45.5403879 C103.866694,46.3651208 106.433726,45.5977831 107.900251,43.647972 C109.028671,42.098477 109.811088,40.3250323 110.194637,38.4474614 C110.750043,36.245319 111.058518,33.7085404 109.968052,32.3113584 C109.094443,31.1805663 107.587507,31.1602862 106.196987,31.2605889 C103.128064,31.4958152 100.091503,32.0458709 97.1352544,32.9020696 L96.8850189,33.4642768 C97.3930838,30.4147116 96.2910693,27.4806174 94.2521047,26.4371348 C92.8768,25.7394563 91.2221299,25.8564447 89.6144582,25.9979651 C87.5493815,26.0900265 85.5089924,26.4842904 83.558463,27.1681635 C81.3208443,28.0281694 79.4038208,29.5579615 78.0696742,31.548238 C76.6426188,33.7131489 75.9334445,36.6657261 76.6438296,38.8133149 Z" id="Path" fill="#413F56" fill-rule="nonzero"></path>
            <path d="M96.891395,25.5496413 C96.7512679,25.5083048 97.1143624,25.5614038 96.9884363,25.5647815 C97.0509967,25.5611585 97.1131589,25.5524606 97.1743089,25.538774 C97.1847094,25.536676 97.3260963,25.4916122 97.2321767,25.5247877 C97.4431202,25.4617596 97.6312903,25.3390604 97.7739627,25.1715078 C98.1075827,24.7592851 98.3693063,24.2938452 98.5481438,23.7947317 C98.7739076,23.1351537 99.1367093,22.5307297 99.6127417,22.0211225 C99.886766,21.7461191 100.275633,21.6181953 100.659571,21.6767519 C101.043508,21.7353084 101.37647,21.9733223 101.555904,22.3174851 C101.735545,22.9721147 101.674024,23.6694272 101.382531,24.2825598 C101.178953,24.9064493 100.87597,25.4934363 100.485259,26.0208956 C99.8306007,26.8834258 98.9389558,27.5370455 97.9190031,27.9020875 C96.7383979,28.3305113 95.4510211,28.3672691 94.2478563,28.0069078 C93.9230762,27.8722794 93.7085197,27.5587071 93.7008504,27.207464 C93.6931811,26.856221 93.8938466,26.5335976 94.2124414,26.3849449 L96.2190565,25.564278 C96.5064157,25.4379445 96.8394011,25.4743836 97.0925803,25.6598689 C97.3457595,25.8453543 97.4806686,26.1517063 97.4464886,26.4635251 C97.4123086,26.7753439 97.2142322,27.0452568 96.926873,27.1715902 L94.9202579,27.9922641 L94.8848429,26.3703013 C95.1351777,26.4425116 95.3928092,26.4865249 95.6529349,26.5015207 C95.9305171,26.5293061 96.2106436,26.5175047 96.4848997,26.466471 C96.747562,26.432063 97.0056915,26.3691686 97.2547205,26.2789008 C97.4142252,26.2206963 97.5706721,26.1544443 97.7234579,26.0804003 C97.7789414,26.0534767 97.8339279,26.0255227 97.8884175,25.9965385 C97.884491,25.9986364 98.1179849,25.8627875 98.0155684,25.926607 C98.2750875,25.7608994 98.5185818,25.5713811 98.7428912,25.3605116 C98.8221029,25.2857354 98.8950676,25.2046178 98.9610572,25.1179683 C99.075342,24.9776432 99.1813286,24.8307702 99.2784761,24.6780992 C99.47615,24.3547886 99.6327342,24.0081275 99.74461,23.6461273 C99.7956194,23.493987 99.8386679,23.3392968 99.8735806,23.1826844 C99.8832829,23.0967184 99.8988452,23.011514 99.920159,22.9276653 C99.9946215,22.727871 99.906021,23.044325 99.9916819,23.1308932 L100.361565,23.4032273 C100.502269,23.4451114 100.6544,23.420775 100.774983,23.3370931 C100.818796,23.2754742 100.809217,23.2856958 100.746245,23.3677581 C100.672965,23.4643263 100.605892,23.5654429 100.545429,23.6704985 C100.412859,23.9178142 100.292942,24.1716963 100.186142,24.4311642 C99.9653778,24.9829903 99.6862636,25.509682 99.3535475,26.0022798 C98.684834,27.0242621 97.4349864,27.5017624 96.2544435,27.1862828 C95.8050196,27.0075196 95.5822201,26.5015833 95.7539445,26.0497423 C95.9372897,25.6050157 96.4393601,25.3842712 96.891395,25.5496413 L96.891395,25.5496413 Z" id="Path" fill="#413F56" fill-rule="nonzero"></path>
            <polygon id="Path" fill="#131415" points="236.177652 55.2458715 209.746208 107.248351 236.177652 107.248351 236.177652 141.96091 262.938656 89.988501 236.342432 89.988501"></polygon>
        </g>
    </g>
</svg>