<?xml version="1.0" encoding="UTF-8"?>
<svg viewBox="0 0 446 372" version="1.1" xmlns="http://www.w3.org/2000/svg" xmlns:xlink="http://www.w3.org/1999/xlink">
<g transform="translate(1.000000, 0.000000)">
<polygon fill="#FFB6B6" fill-rule="nonzero" points="11.4237641 334.335719 15.7288529 338.881965 35.7187149 324.084463 29.365017 317.374537"></polygon>
<path d="M18.4784476,336.850441 L13.6046685,332.275859 L12.4078384,331.155291 L0,341.066981 L3.22765476,344.475581 L7.02685538,342.041148 L5.28149917,346.644835 L13.8390162,355.681927 C14.6806092,356.57154 16.0033571,356.811075 17.1038933,356.273161 C18.2044295,355.735247 18.8270893,354.544846 18.6407755,353.334949 L16.7938987,341.39661 L20.0483877,338.321387 L18.4784476,336.850441 Z" fill="#413F56" fill-rule="nonzero"></path>
<path d="M106.037892,168.807053 L104.672953,183.695466 C104.672953,183.695466 102.290492,194.912532 103.940157,194.003366 C105.589823,193.094201 102.632043,197.186256 103.411032,200.734747 C104.190022,204.283238 96.7570001,230.745207 100.123599,228.003949 C103.490198,225.26269 98.1780224,244.200192 94.8182964,253.542926 C93.7896314,256.431012 92.7325925,259.354274 91.6687435,262.256389 C91.4589133,262.844044 91.2487331,263.424189 91.0320649,264.011844 C89.6531137,267.788081 88.2741555,271.50831 86.9515882,275.018884 C86.762615,275.508545 86.5804519,275.997855 86.3986667,276.480683 C86.3914857,276.494341 86.3914857,276.508341 86.3846687,276.508341 C82.0311328,287.956209 78.3006064,296.9633 76.8099021,298.453099 C76.0331103,299.229248 63.7079512,308.124679 51.284715,317.033775 C38.2456501,326.383698 25.1013273,335.754433 25.1013273,335.754433 L12.8250702,322.88711 C12.8250702,322.88711 13.1189725,322.803109 13.67195,322.635448 C14.6938049,322.341449 16.5836486,321.788962 19.0613178,321.054822 C29.3916902,318.012732 16.2685533,313.278357 25.6474947,309.893757 C28.2929722,308.94278 30.0567358,308.201471 30.4555531,307.809799 C32.7862782,305.537026 35.914981,300.117336 37.3916804,302.390109 C38.8683797,304.662882 45.5666388,287.774499 47.4982035,286.103066 C48.5340565,285.20095 51.9146185,280.984201 54.8122981,277.277629 C57.3036434,274.088712 59.4453814,271.270627 59.4453814,271.270627 C59.4453814,271.270627 59.4874174,269.759995 59.5502965,267.354394 C59.6415495,263.794993 59.7744886,258.263301 59.9146017,252.724784 C59.9074278,252.717609 59.9074278,252.717609 59.9146017,252.717609 C59.9634758,250.63365 60.0123429,248.549692 60.0615809,246.570631 C60.0964429,245.039174 60.131298,243.563717 60.166503,242.199914 C60.2574061,238.116027 60.3202851,235.025111 60.3202851,234.255795 C60.3202851,231.731366 60.3202851,233.696483 62.3150719,232.171837 C62.6129557,231.938079 62.8958089,231.685808 63.1619517,231.416521 C63.5884347,231.03301 63.981813,230.61427 64.3379108,230.164747 C64.4848899,229.850266 63.5679501,230.27675 62.377979,230.039095 C61.7336242,229.909805 61.137686,229.604761 60.6562235,229.157776 C58.1505232,226.906178 60.8523916,219.983024 60.8523916,219.983024 C55.1551025,208.59799 55.5682748,199.262067 58.2345953,192.06609 C60.2285159,186.902314 63.3932336,182.270611 67.4802826,178.53462 C69.0357972,177.053518 70.7304948,175.725584 72.5408931,174.569219 L72.7158683,173.625416 L74.640595,163.212528 C75.6640963,162.650738 76.7285501,162.166885 77.824898,161.765086 C81.2435456,160.539474 84.9117717,160.174393 88.5052136,160.702127 C92.0766146,161.218486 95.5343482,162.336967 98.7310069,164.009886 C101.343957,165.321492 103.795947,166.93129 106.037892,168.807053 Z" fill="#413F56" fill-rule="nonzero"></path>
<polygon fill="#FFB6B6" fill-rule="nonzero" points="52.2825633 357.531992 58.5193778 358.111724 63.7749317 333.81473 54.5691387 332.959468"></polygon>
<path d="M70.2449041,367.055632 L60.9780518,359.300343 L61.3980621,354.838798 L59.2426551,354.768796 L52.5656031,354.551967 L52.5584291,354.551967 L50.9207666,354.495966 L48.1420141,370.118897 L52.8243074,370.552206 L54.0631315,366.216664 L55.79204,370.832205 L58.2696883,371.063035 L68.1872313,371.986011 C68.2712963,371.992837 68.3622064,372 68.4462715,372 C69.2438253,372.001015 70.003415,371.659779 70.5319754,371.063021 C70.93795,370.618899 71.1863118,370.053596 71.238714,369.454394 C71.321936,368.540237 70.9504389,367.643553 70.2449041,367.055632 L70.2449041,367.055632 Z" fill="#413F56" fill-rule="nonzero"></path>
<path d="M86.9516022,275.018905 C84.5788481,287.921404 74.535204,318.173623 68.4602835,335.880464 C65.695543,343.971417 63.7639502,349.447108 63.7639502,349.447108 L60.6143974,348.45413 L60.6072234,348.45413 L55.2810706,346.775502 L53.3423458,346.160189 L53.3351648,346.160189 L50.9835967,345.412048 C50.9835967,345.412048 51.2566489,330.964092 51.284673,317.033796 C51.305523,311.194448 51.277499,305.4391 51.1657458,300.879554 C51.0396447,295.907523 50.8226336,292.348116 50.4658452,291.641605 C48.9888099,288.746344 51.4596481,288.438687 54.0702635,287.711372 C56.6877169,286.977231 54.644063,285.872258 53.6290671,283.522658 C52.9435214,281.956025 54.2941127,279.865241 55.2530606,278.67628 C55.5176469,278.3417 55.800363,278.021839 56.0999403,277.718135 C56.0999403,277.718135 55.6378939,277.557292 54.8122281,277.27765 C57.3035734,274.088733 59.4453114,271.270648 59.4453114,271.270648 C59.4453114,271.270648 59.4873474,269.760016 59.5502265,267.354415 C59.6414795,263.795014 59.7744186,258.263322 59.9145318,252.724805 C59.9073578,252.71763 59.9073578,252.71763 59.9145318,252.71763 C59.9634058,250.633671 60.0122729,248.549713 60.0615109,246.570652 C64.0647535,249.640742 67.956243,252.647999 71.4837702,255.431265 C71.4925089,255.437929 71.4976755,255.448254 71.4977682,255.459237 C79.9734669,262.151562 86.3357946,267.522418 87.2315345,269.228712 C87.6375048,269.997699 87.4973847,272.053985 86.9516022,275.018905 Z" fill="#413F56" fill-rule="nonzero"></path>
<path d="M295.611823,47.2051907 C298.037924,46.9784894 300.203637,48.722996 300.496654,51.1399765 C300.521577,51.3766949 300.52684,51.6150689 300.512387,51.8526552 L314.945626,58.0109824 L314.394916,66.4280196 L295.535989,55.8560228 C293.5179,55.5761178 291.942023,53.9725389 291.698784,51.9513635 C291.573708,50.8205719 291.903338,49.6864501 292.615159,48.7984938 C293.32698,47.9105375 294.362682,47.341484 295.494422,47.2165196 C295.533509,47.2122118 295.572643,47.2084355 295.611823,47.2051907 Z" fill="#FFB6B6" fill-rule="nonzero"></path>
<path d="M393.808827,99.1624223 C393.452533,97.5305856 392.789934,95.9810035 391.856104,94.5957076 C391.596687,94.2015055 391.313888,93.823171 391.009224,93.4627337 C389.875644,92.1132798 388.818619,90.8754786 387.838828,89.7705052 C387.243843,89.0780157 386.662869,88.434702 386.117073,87.8405572 C382.94667,84.3648156 380.867818,82.5257015 379.916044,82.3716984 C379.454005,82.2948717 378.999132,82.2388705 378.557936,82.1828834 C376.297614,81.9032274 374.659615,81.7003981 374.610741,79.3156227 C374.605816,78.9739523 374.629135,78.632459 374.680458,78.294623 C374.765429,77.7273379 374.889438,77.1665801 375.051602,76.6163374 C375.144745,76.3044485 375.217238,75.9867716 375.268613,75.6653671 C375.338666,75.2528763 375.310642,74.944877 375.086457,74.756048 C374.806567,74.5255609 374.337689,74.5603937 373.455632,74.9100511 C373.315862,74.9660523 373.154899,75.0288787 372.986755,75.1057054 C372.930707,75.1268807 372.875002,75.1548813 372.81178,75.1828818 C372.700027,75.231708 372.573926,75.2877091 372.44816,75.3505356 C371.391135,75.8541961 369.760311,75.9170225 367.898806,75.7281656 C362.404516,75.1688536 354.971495,72.3995878 354.880585,72.3644193 L308.070999,54.1894227 L307.63732,54.8887375 L306.608319,56.5530229 L306.251531,57.1263352 L305.845532,57.7836492 L304.074595,60.6369096 L303.178876,62.0775401 L318.296792,73.4693787 L319.941286,74.7071659 L321.355442,75.7773064 L350.219169,97.5328998 L360.983557,104.630875 L363.384342,106.211159 L373.616966,112.952652 C376.588263,114.914214 380.226814,115.592812 383.706255,114.834325 C387.185696,114.075839 390.210713,111.944644 392.09428,108.924766 C393.911179,106.015924 394.525942,102.515565 393.808827,99.1624223 L393.808827,99.1624223 Z" fill="#E6E6E6" fill-rule="nonzero"></path>
<polygon fill="#FFB6B6" fill-rule="nonzero" points="71.1063908 143.639559 72.4180046 155.795049 71.6467141 171.733833 106.981198 167.540042 110.300826 143.639559 106.070627 143.681518"></polygon>
<path d="M101.162224,104.378786 L87.8641117,93.889064 L87.8641117,93.889064 L80.8835267,93.4835313 L70.5255153,100.11356 L67.9891944,113.042066 L61.99078,127.600549 L70.7887969,166.889308 C70.7887969,166.889308 71.6139797,169.708603 69.4516297,170.047246 C67.2892797,170.385889 67.5485579,174.541638 67.5485579,174.541638 C67.5485579,174.541638 67.9888934,178.143326 65.8891915,178.460493 C63.7894896,178.77766 58.1905855,178.77766 63.0898899,185.071494 C67.9891944,191.365327 106.739704,167.561007 106.739704,167.561007 L112.367941,138.053991 C112.367941,138.053991 123.282989,123.405982 111.528319,115.01682 L101.162224,104.378786 Z" fill="#E6E6E6" fill-rule="nonzero"></path>
<path d="M43.1097496,193.582393 C41.9235901,192.103472 41.4539725,190.175554 41.8272614,188.317406 C42.2005503,186.459257 43.3784005,184.861751 45.043876,183.954744 L61.7708012,127.86638 L72.2300183,133.127745 L54.0140475,186.887852 C55.3836466,189.849418 54.3198589,193.366455 51.5378844,195.074408 C48.75591,196.782361 45.1350849,196.141375 43.1097426,193.582393 L43.1097496,193.582393 Z" fill="#FFB6B6" fill-rule="nonzero"></path>
<path d="M72.9276162,99.5945988 C72.9276162,99.5945988 69.9377387,98.0069304 67.8926571,104.877223 C66.2554285,110.377397 52.9703206,143.1388 52.8008817,151.103982 C50.5519277,151.580162 48.9113483,153.517861 48.8141147,155.812777 L65.2399567,158.012122 C68.1102492,155.593255 68.8632443,152.326266 67.7527119,151.356624 L71.3191186,141.624217 L86.1979002,110.658976 L75.1092345,100.703894 L72.9276162,99.5945988 Z" fill="#E6E6E6" fill-rule="nonzero"></path>
<path d="M160.695933,175.146139 C161.125362,173.300136 160.714385,171.358894 159.573589,169.844763 C158.432793,168.330633 156.679363,167.399148 154.785111,167.300953 L116.413919,123.514565 L108.274306,133.21881 L147.966574,173.821469 C148.013438,177.083577 150.494806,179.795113 153.742416,180.133071 C156.990026,180.471029 159.977363,178.328587 160.695996,175.146139 L160.695933,175.146139 Z" fill="#FFB6B6" fill-rule="nonzero"></path>
<path d="M93.1319838,103.284701 C93.1319838,103.284701 95.1406986,100.56129 99.9581146,105.872306 C103.814847,110.124182 129.972807,133.923649 133.572942,141.032338 C135.806831,140.489958 138.124727,141.528241 139.205652,143.555466 L125.347031,152.635845 C121.712118,151.695036 119.619184,149.074675 120.200844,147.72055 L112.772924,140.486187 L85.9553917,118.994844 L91.6450099,105.227531 L93.1319838,103.284701 Z" fill="#E6E6E6" fill-rule="nonzero"></path>
<ellipse fill="#3CFF85" fill-rule="nonzero" cx="236.342432" cy="125.603391" rx="97.9860886" ry="97.904076"></ellipse>
<path d="M321.355442,75.7773344 C317.24011,68.7940987 312.287851,62.338343 306.608319,56.5530089 C305.341457,55.2663745 304.032902,54.007405 302.695979,52.7836041 C301.95405,52.1054645 301.205275,51.4409756 300.442152,50.7904869 C298.993484,49.5458604 297.502773,48.342885 295.984044,47.1822602 C278.826765,34.0694145 257.820488,26.9757289 236.21941,27.0000624 C181.808974,27.0000624 137.533412,71.231788 137.533412,125.603516 C137.530901,131.598762 138.076664,137.581698 139.163902,143.477702 C139.165644,143.510743 139.17045,143.543551 139.178257,143.575704 C139.675187,146.282137 140.290994,148.953393 141.004907,151.575824 C151.339451,189.401633 183.123898,217.513995 221.955598,223.174212 C260.787299,228.834429 299.285178,210.966614 320.004494,177.667302 C321.36909,175.471356 322.652241,173.219525 323.853947,170.911809 C339.432147,140.876896 338.488723,104.954587 321.355442,75.7773344 L321.355442,75.7773344 Z M236.21941,222.808283 C210.414795,222.817126 185.664527,212.578781 167.417907,194.347433 C149.171288,176.116086 138.924366,151.386533 138.933216,125.603516 C138.933216,72.0007616 182.578935,28.3987548 236.21941,28.3987548 C262.444016,28.4136086 287.551197,39.0097979 305.845525,57.7836352 C308.207292,60.1924876 310.436264,62.7278313 312.522577,65.378446 C314.588305,67.9721414 316.515708,70.6728735 318.296757,73.4693927 C333.317145,97.0458421 337.44839,125.943454 329.634945,152.778799 C328.774067,155.743712 327.766266,158.646142 326.632371,161.492262 C325.491617,164.345522 324.224755,167.142782 322.824954,169.856067 C306.137653,202.299233 272.726705,222.727296 236.21941,222.808283 Z" id="Shape" fill="#131415" fill-rule="nonzero"></path>
<polygon id="Path" fill="#FFB6B6" fill-rule="nonzero" points="370.468589 357.754374 364.035803 357.699828 361.187907 332.329385 370.682759 332.409806"></polygon>
<path d="M372.175108,354.789622 L370.495417,354.677969 L363.643389,354.209484 L361.438429,354.062628 L361.396736,358.657008 L351.122076,365.622184 C350.080523,366.329153 349.620187,367.630777 349.985954,368.83463 C350.35172,370.038483 351.458572,370.864746 352.717696,370.87387 L365.50488,370.979047 L367.744702,366.447487 L368.56353,371.00702 L373.392774,371.048678 L372.175108,354.789622 Z" fill="#413F56" fill-rule="nonzero"></path>
<polygon fill="#FFB6B6" fill-rule="nonzero" points="438.198674 353.057776 432.050047 354.946625 421.67052 331.618881 430.746132 328.831412"></polygon>
<path d="M438.931232,349.71959 L437.293576,350.118423 L430.624013,351.733882 L428.475101,352.258368 L429.825685,356.657058 L422.133616,366.391465 C421.452476,367.257325 421.325507,368.435615 421.806569,369.426502 C422.287631,370.417389 423.29239,371.047159 424.394624,371.048664 C424.679275,371.048087 424.962298,371.005751 425.234638,370.923011 L437.461713,367.167606 L438.224493,362.167575 L440.387081,366.265462 L445,364.846007 L438.931232,349.71959 Z" fill="#413F56" fill-rule="nonzero"></path>
<path d="M357.52919,144.426099 L345.252828,180.072889 L344.847439,182.925394 C341.754179,185.859964 345.640013,186.826732 344.183002,187.600622 C342.725991,188.374511 341.746109,190.543898 343.709611,190.931528 C345.673112,191.319158 352.003559,330.355975 360.353716,335.754496 C368.703874,341.153018 373.785706,345.057866 372.252027,337.153126 C371.634099,333.968264 372.508107,316.892521 373.772148,297.636313 C373.915411,295.453934 376.17868,293.144006 374.215354,291.022194 C372.252027,288.900382 374.457225,287.504151 374.580562,285.743276 C376.341778,260.598146 378.375304,235.773098 378.375304,235.773098 C378.375304,235.773098 391.389438,280.429364 394.768894,276.972413 C398.148351,273.515462 396.810736,282.026767 397.843432,284.570119 C398.706409,286.695561 395.024302,290.870247 400.43578,290.934304 C405.847258,290.998361 418.556018,334.404909 419.84527,334.355853 C422.399495,334.258536 429.579628,334.533409 433.843283,333.656538 C435.948864,333.223515 426.602524,300.360166 418.798016,271.98197 C418.175629,269.718882 414.788341,269.666217 416.966852,265.297003 C419.145363,260.927789 408.305967,232.657084 409.236128,231.349583 C411.705027,227.879128 412.645169,226.370608 410.210354,226.143324 C407.77554,225.916039 407.056168,227.250563 406.924671,223.884033 C406.793173,220.517504 406.37289,212.21593 406.37289,212.21593 C406.37289,212.21593 404.609308,179.383945 392.258757,161.244607 L391.205483,150.466885 L357.52919,144.426099 Z" fill="#413F56" fill-rule="nonzero"></path>
<path d="M388.199018,76.3675142 L371.91898,78.6836449 L370.936613,90.4622465 L362.902979,103.01857 C362.902979,103.01857 345.045784,115.574768 357.499746,135.409665 C352.760383,152.496101 348.048351,168.882537 343.556073,179.807282 C340.05657,201.486042 371.407219,203.563839 407.247031,195.891523 C407.247031,195.891523 406.752901,186.621994 403.500463,182.165666 C400.248025,177.709338 402.018507,176.736367 402.018507,176.736367 L399.745979,168.410975 C401.031976,156.376823 396.689723,155.296773 394.648806,149.736745 L400.844781,92.0471317 L388.199018,76.3675142 Z" fill="#E6E6E6" fill-rule="nonzero"></path>
<path d="M310.045314,177.202894 C310.404053,174.794776 312.61648,173.109804 315.035507,173.402391 C315.271521,173.434707 315.50445,173.486496 315.731909,173.557226 L325.16223,161.02277 L333.211395,163.566122 L318.435051,179.341266 C317.681321,181.232582 315.746645,182.378886 313.724181,182.132476 C312.595299,181.983932 311.571712,181.393399 310.878599,180.490788 C310.185486,179.588178 309.879624,178.447427 310.028299,177.319491 C310.033446,177.280548 310.039117,177.241683 310.045314,177.202894 Z" fill="#FFB6B6" fill-rule="nonzero"></path>
<path d="M393.808827,99.1624223 C393.577804,98.8755983 393.325937,98.5959423 393.060059,98.3231116 C389.276507,94.4269192 383.487857,93.2496681 378.481073,95.3581496 C378.243219,95.4558089 378.005014,95.5678112 377.774334,95.6798344 C369.410389,99.7845537 364.896233,102.518987 364.350121,103.798789 C364.161148,104.232441 364.000171,104.658946 363.839194,105.071416 C363.685062,105.477074 363.53811,105.861558 363.384328,106.211215 C362.740469,107.707847 361.998525,108.637991 360.108667,108.218333 C359.482035,108.065218 358.877586,107.832616 358.310049,107.526193 C358.051001,107.40019 357.813119,107.267362 357.588955,107.14136 C356.777301,106.694043 356.189154,106.372386 355.790336,106.666042 C355.405524,106.952531 355.391512,107.679846 355.741462,109.365307 C355.857226,110.068738 355.838208,110.787737 355.685421,111.484077 C355.222612,113.515488 354.497981,115.47832 353.529671,117.323426 C352.078808,120.21569 350.447146,123.013822 348.644365,125.701217 L331.993729,149.42192 L330.86698,151.023351 L329.63498,152.778813 L319.808375,166.779096 L320.389348,167.373234 L322.825003,169.856011 L323.363926,170.40847 L323.853996,170.911781 L325.120852,172.205583 L326.31048,173.415398 L352.857837,151.80664 L355.818416,149.393864 L361.123719,145.072322 L371.99298,136.226108 L392.563158,117.204612 C395.186884,114.797737 396.71584,111.426614 396.797416,107.868689 C396.797416,107.749862 396.804638,107.637859 396.804638,107.519032 C396.812225,104.469609 395.752485,101.513497 393.808827,99.1624223 L393.808827,99.1624223 Z" fill="#E6E6E6" fill-rule="nonzero"></path>
<ellipse fill="#FFB6B6" fill-rule="nonzero" cx="378.425347" cy="57.7623061" rx="18.1916983" ry="18.1764721"></ellipse>
<path d="M402.533361,82.9665636 C404.97485,86.4578766 406.60801,90.4483757 407.314382,94.6486178 C405.346817,95.9063279 403.056423,96.5669158 400.720716,96.5506459 C400.641404,96.2447409 400.562091,95.9390984 400.471503,95.6334419 C399.794673,93.2667599 398.787811,91.0070451 397.480547,88.9207958 C397.659726,91.170445 397.354528,93.4323445 396.585494,95.5542655 C395.35123,94.9937783 394.02853,94.6528352 392.676933,94.5467836 C391.575846,94.5467042 390.489825,94.802466 389.504676,95.2938616 C388.360471,91.501743 387.306785,88.015218 386.559081,85.5135171 C386.536404,91.7847417 377.337008,97.2522158 367.299257,96.4598362 C366.936709,96.233426 370.573449,85.9210778 370.222238,85.6833387 C369.417836,85.151342 368.63611,84.5740156 367.854384,84.0080252 C371.139913,78.9366989 374.708601,73.5031975 374.096846,72.688216 C374.142137,73.6956979 370.539426,78.5405441 366.619528,83.1137274 C364.444237,81.5176672 376.804566,55.5499817 370.698052,53.4445126 C370.596055,54.3614192 369.247858,54.3614192 367.605191,54.1690027 C367.171857,52.656135 366.5273,51.2118341 365.690536,49.8787062 C365.799344,51.2215979 365.637528,52.5726558 365.214659,53.8519753 C363.592501,53.8524333 361.97488,54.0231734 360.388432,54.3613842 C360.021399,53.7842856 359.616433,53.2321657 359.176204,52.7086655 C359.219582,53.3466736 359.200614,53.9873875 359.119568,54.6217182 C357.499417,54.9726273 356.162565,55.3801251 355.970015,55.7084534 C354.701137,55.2442972 356.865006,53.150157 356.072011,52.0634287 C354.05536,49.3467165 357.046315,45.3847763 358.938286,42.5774119 C362.824233,36.826988 371.355224,34.834689 377.393707,38.2872203 C377.665668,37.3476559 379.059149,36.7250838 380.849201,36.3062572 C381.607691,36.139178 382.384024,36.0669306 383.16035,36.0911759 C390.864268,36.2270038 401.559134,42.5774119 401.978319,50.2636161 C402.012334,51.0333589 402.06897,51.8710122 402.125599,52.7652541 C402.669387,61.368365 402.001017,69.3035742 407.880882,75.5973937 C410.010799,77.8726215 410.033405,88.649112 409.217734,94.1958534 C407.099107,91.9658363 405.592291,83.2948779 402.533361,82.9665636 Z" fill="#413F56" fill-rule="nonzero"></path>
<path d="M68.7963548,65.320228 C67.1984046,69.2966091 62.6903307,77.1163195 62.0797164,81.38214 L62.3545463,81.1120995 C62.8788266,82.0069466 63.4745799,82.8580263 64.1359964,83.6570391 C65.3214863,82.4130503 66.7532805,81.429386 68.3401805,80.768701 C67.4736266,82.5452346 66.9717603,84.4771143 66.8641601,86.4504801 C68.5654296,91.7788325 76.4304019,89.4059874 81.0385477,88.8241784 C85.6402964,94.0835504 91.7626492,95.4559698 99.779857,92.4322793 C102.022108,92.6629413 104.532182,92.8029162 106.103396,91.4791132 C107.67461,90.1553102 106.738906,87.7037152 107.584253,85.849447 C113.605757,72.6415298 108.048707,67.8762027 103.327275,61.8872426 C102.288266,60.5692859 102.292605,58.6024909 101.028333,57.3450319 C99.2741367,55.6020177 96.5851465,55.065895 94.1060005,54.6364387 C95.4157355,54.7053818 96.6666457,54.0868781 97.4062419,53.0046575 C98.0567086,51.9115376 98.039365,50.5464361 97.3613363,49.4701665 C96.4746952,48.0014585 94.6322488,47.1473783 92.8547461,46.9340244 C91.1035446,46.8152051 89.344471,46.9662901 87.6392546,47.3819775 C86.5346742,47.5271374 85.465031,47.8687395 84.48096,48.3906132 C83.5301725,48.8974627 82.9939189,49.9405588 83.135373,51.0079878 C83.4354168,51.9831508 84.1644053,52.7682215 85.1152029,53.1401288 C85.8308381,53.4424317 86.5835291,53.6483078 87.3534852,53.7523439 C83.8169696,53.2937995 80.224547,53.9220627 77.0541604,55.5535482 C73.0809085,57.6711574 70.3997781,61.3459729 68.7963548,65.320228 Z" fill="#413F56" fill-rule="nonzero"></path>
<ellipse fill="#FFB6B6" fill-rule="nonzero" cx="90.3105793" cy="73.4223078" rx="14.2029156" ry="14.191028"></ellipse>
<path d="M76.6438296,65.8133149 C77.4673607,68.3000784 79.8206786,69.1013953 81.9958088,69.6011677 C82.6816414,69.7608842 83.3717155,69.9097054 84.0681376,70.0421416 C84.3250711,69.7211561 84.5983613,69.4065903 84.8837738,69.1092556 C86.0692605,67.8652666 87.5010558,66.8816063 89.0879579,66.2209315 C88.4017358,67.624225 87.9456754,69.1285859 87.7372197,70.6764761 C89.052137,70.8670953 90.3743519,71.0228747 91.7038645,71.1438142 C94.0400034,71.6406303 96.3559377,70.2208355 96.9709107,67.9148259 C98.1812209,69.8924043 99.6123357,71.7548126 101.569412,72.5403879 C103.866694,73.3651208 106.433726,72.5977831 107.900251,70.647972 C109.028671,69.098477 109.811088,67.3250323 110.194637,65.4474614 C110.750043,63.245319 111.058518,60.7085404 109.968052,59.3113584 C109.094443,58.1805663 107.587507,58.1602862 106.196987,58.2605889 C103.128064,58.4958152 100.091503,59.0458709 97.1352544,59.9020696 L96.8850189,60.4642768 C97.3930838,57.4147116 96.2910693,54.4806174 94.2521047,53.4371348 C92.8768,52.7394563 91.2221299,52.8564447 89.6144582,52.9979651 C87.5493815,53.0900265 85.5089924,53.4842904 83.558463,54.1681635 C81.3208443,55.0281694 79.4038208,56.5579615 78.0696742,58.548238 C76.6426188,60.7131489 75.9334445,63.6657261 76.6438296,65.8133149 Z" fill="#413F56" fill-rule="nonzero"></path>
<path d="M96.891395,52.5496413 C96.7512679,52.5083048 97.1143624,52.5614038 96.9884363,52.5647815 C97.0509967,52.5611585 97.1131589,52.5524606 97.1743089,52.538774 C97.1847094,52.536676 97.3260963,52.4916122 97.2321767,52.5247877 C97.4431202,52.4617596 97.6312903,52.3390604 97.7739627,52.1715078 C98.1075827,51.7592851 98.3693063,51.2938452 98.5481438,50.7947317 C98.7739076,50.1351537 99.1367093,49.5307297 99.6127417,49.0211225 C99.886766,48.7461191 100.275633,48.6181953 100.659571,48.6767519 C101.043508,48.7353084 101.37647,48.9733223 101.555904,49.3174851 C101.735545,49.9721147 101.674024,50.6694272 101.382531,51.2825598 C101.178953,51.9064493 100.87597,52.4934363 100.485259,53.0208956 C99.8306007,53.8834258 98.9389558,54.5370455 97.9190031,54.9020875 C96.7383979,55.3305113 95.4510211,55.3672691 94.2478563,55.0069078 C93.9230762,54.8722794 93.7085197,54.5587071 93.7008504,54.207464 C93.6931811,53.856221 93.8938466,53.5335976 94.2124414,53.3849449 L96.2190565,52.564278 C96.5064157,52.4379445 96.8394011,52.4743836 97.0925803,52.6598689 C97.3457595,52.8453543 97.4806686,53.1517063 97.4464886,53.4635251 C97.4123086,53.7753439 97.2142322,54.0452568 96.926873,54.1715902 L94.9202579,54.9922641 L94.8848429,53.3703013 C95.1351777,53.4425116 95.3928092,53.4865249 95.6529349,53.5015207 C95.9305171,53.5293061 96.2106436,53.5175047 96.4848997,53.466471 C96.747562,53.432063 97.0056915,53.3691686 97.2547205,53.2789008 C97.4142252,53.2206963 97.5706721,53.1544443 97.7234579,53.0804003 C97.7789414,53.0534767 97.8339279,53.0255227 97.8884175,52.9965385 C97.884491,52.9986364 98.1179849,52.8627875 98.0155684,52.926607 C98.2750875,52.7608994 98.5185818,52.5713811 98.7428912,52.3605116 C98.8221029,52.2857354 98.8950676,52.2046178 98.9610572,52.1179683 C99.075342,51.9776432 99.1813286,51.8307702 99.2784761,51.6780992 C99.47615,51.3547886 99.6327342,51.0081275 99.74461,50.6461273 C99.7956194,50.493987 99.8386679,50.3392968 99.8735806,50.1826844 C99.8832829,50.0967184 99.8988452,50.011514 99.920159,49.9276653 C99.9946215,49.727871 99.906021,50.044325 99.9916819,50.1308932 L100.361565,50.4032273 C100.502269,50.4451114 100.6544,50.420775 100.774983,50.3370931 C100.818796,50.2754742 100.809217,50.2856958 100.746245,50.3677581 C100.672965,50.4643263 100.605892,50.5654429 100.545429,50.6704985 C100.412859,50.9178142 100.292942,51.1716963 100.186142,51.4311642 C99.9653778,51.9829903 99.6862636,52.509682 99.3535475,53.0022798 C98.684834,54.0242621 97.4349864,54.5017624 96.2544435,54.1862828 C95.8050196,54.0075196 95.5822201,53.5015833 95.7539445,53.0497423 C95.9372897,52.6050157 96.4393601,52.3842712 96.891395,52.5496413 L96.891395,52.5496413 Z" fill="#413F56" fill-rule="nonzero"></path>
<polygon fill="#131415" points="236.177652 82.2458715 209.746208 134.248351 236.177652 134.248351 236.177652 168.96091 262.938656 116.988501 236.342432 116.988501"></polygon>
<path d="M190.363358,15.2663696 C190.679148,13.1742644 189.081779,12.0426854 186.889674,11.2795275 L187.6002,8.4466328 L185.869937,8.01242228 L185.179148,10.7847907 C184.7252,10.670317 184.251516,10.5650538 183.779148,10.4558433 L184.471253,7.65715911 L182.734411,7.22294858 L182.023884,10.0716328 C181.648884,9.98347492 181.280463,9.89794858 180.918621,9.80847491 L178.530463,9.21636965 L178.069937,11.0676854 C178.069937,11.0676854 179.352832,11.3637381 179.326516,11.3782117 C180.030463,11.5571591 180.155463,12.0176854 180.135726,12.3861065 L178.192305,20.1755802 C178.093621,20.3940012 177.876516,20.7097907 177.384411,20.5887381 C177.404148,20.6150539 176.121253,20.2729486 176.121253,20.2729486 L175.252832,22.2597907 L177.502832,22.820317 L178.726516,23.1387381 L178.01599,26.020317 L179.752832,26.4505802 L180.463358,23.595317 C180.937042,23.726896 181.39099,23.845317 181.844937,23.9545275 L181.173884,26.7887381 L182.910726,27.2229486 L183.627832,24.3413696 C186.5752,24.9032117 188.798884,24.6795275 189.733095,22.0071591 C190.483095,19.8532117 189.693621,18.6124223 188.131779,17.801896 C189.255463,17.5479486 190.105463,16.801896 190.342305,15.2624223 L190.355463,15.2624223 L190.363358,15.2663696 Z M186.402832,20.8190012 C185.871253,22.9768959 182.248884,21.8058433 181.073884,21.5163696 L182.021253,17.7005802 C183.2002,18.0032117 186.964674,18.5821591 186.402832,20.8190012 Z M186.942305,15.2400538 C186.455463,17.2005802 183.439674,16.2071591 182.462042,15.9637381 L183.322569,12.4900538 C184.301516,12.7268959 187.4502,13.1795275 186.94099,15.2321591 L186.94099,15.2400538 L186.942305,15.2400538 Z" fill="#FFFFFF" fill-rule="nonzero" opacity="0.5"></path>
<g id="Group-9" opacity="0.6" transform="translate(212.909850, 237.563900)" fill="#FFFFFF" fill-rule="nonzero">
<polygon points="17.8020213 0 2.12629643 0 2.12629643 3.78442362 8.0719471 3.78442362 8.0719471 9.34683101 11.8563707 9.34683101 11.8563707 3.78442362 17.8020213 3.78442362"></polygon>
<path d="M10.0000828,9.93932671 C5.08165648,9.93932671 1.09410566,9.16092076 1.09410566,8.20057778 C1.09410566,7.24040031 5.08149091,6.46182882 10.0000828,6.46182882 C14.9185091,6.46182882 18.9058943,7.24040031 18.9058943,8.20057778 C18.9058943,9.16092079 14.9185091,9.93932671 10.0000828,9.93932671 M20,8.49045204 C20,7.25215419 15.5229242,6.24843765 10.0000828,6.24843765 C4.47740686,6.24843765 0,7.25215419 0,8.49045204 C0,9.58091566 3.47170373,10.4894422 8.07211263,10.6907484 L8.07211263,18.6757828 L11.8562052,18.6757828 L11.8562052,10.6938938 C16.4920413,10.4988784 20,9.58654426 20,8.49045204"></path>
</g>
<path d="M146.431641,215.486948 L152.575163,219.200999 L158.715946,215.486948 L152.575163,224.303711 L146.431641,215.486948 Z M152.575163,204.303711 L158.715946,214.596781 L152.575163,218.277965 L146.431641,214.596781 L152.575163,204.303711 Z" fill="#FFFFFF" fill-rule="nonzero" opacity="0.4"></path>
<g opacity="0.5" transform="translate(126.000000, 52.000000)" fill="#FFFFFF" fill-rule="nonzero">
<path d="M8.61996938,19.9992544 C8.54772551,20.0023572 8.47538428,19.9957661 8.4050335,19.9796714 C7.75360288,19.8626715 7.22155006,19.4114199 7.01966486,18.8046944 L0.174313833,2.3511 C-0.104454875,1.78385843 -0.0457594604,1.11654419 0.328130484,0.602342575 C0.669022234,0.20430574 1.18362119,-0.0180294597 1.71961107,0.00114602353 C1.83344731,0.00147776146 1.94712525,0.0093294417 2.05984132,0.0246455633 L15.2717762,1.71954987 C15.6580279,1.77991006 16.0164843,1.95048164 16.3006162,2.20912361 L19.4890014,5.27385526 C20.1118853,5.89404719 20.1723885,6.85778799 19.6316129,7.54547742 L10.0756251,19.2345402 C9.74077347,19.6934293 9.20260361,19.9761515 8.61996938,19.9992544 L8.61996938,19.9992544 Z M1.72368569,1.46986726 C1.65653358,1.46378599 1.58904295,1.4774435 1.53014154,1.50903314 C1.52614956,1.61220613 1.54743417,1.71483725 1.5922794,1.80865227 L8.43763043,18.2583301 C8.51708539,18.4541596 8.6087642,18.5226999 8.62098804,18.5226999 C8.63321188,18.5226999 8.73202127,18.4845132 8.8644462,18.317079 L18.4194153,6.62605793 C18.4568262,6.57772722 18.4735908,6.51747356 18.4662734,6.45764457 C18.4650499,6.4000421 18.4410036,6.34505961 18.3990423,6.30391841 L15.210657,3.23918676 C15.1641033,3.20885261 15.1128878,3.1857248 15.0588777,3.17064645 L1.86629717,1.48357532 C1.81933863,1.47454784 1.77157411,1.46995663 1.72368569,1.46986726 Z"></path>
<path d="M8.31539201,19.8719652 C7.89659296,19.8362097 7.58681684,19.4815223 7.62270767,19.0788557 L8.6108015,8.68030937 L0.756983585,1.97314905 C0.45522192,1.69992374 0.43477615,1.24537869 0.710877821,0.948137693 C0.986979493,0.650896693 1.45915086,0.619130415 1.77563702,0.87650388 L9.91467788,7.82845105 C10.0967598,7.98346537 10.1913015,8.21247072 10.1693412,8.44531397 L9.15068781,19.2159364 C9.1057731,19.5891116 8.77751771,19.8709804 8.38669774,19.8719652 L8.31539201,19.8719652 Z" id="Path"></path>
<path d="M8.73202125,8.71164208 C8.57230412,8.42800963 8.62623165,8.07711923 8.8644462,7.8499923 L14.9763668,1.97510736 C15.2773888,1.70549047 15.7464786,1.71344605 16.0374183,1.99310237 C16.328358,2.2727587 16.3366346,2.72365604 16.0561394,3.01300369 L11.7268623,7.17144309 L18.4601615,5.87896841 C18.7335085,5.81413078 19.0218017,5.89905757 19.2104144,6.09998149 C19.3990271,6.3009054 19.4573874,6.58525907 19.3622911,6.83998215 C19.2671947,7.09470524 19.0340556,7.27851015 18.755571,7.31831522 L9.54694401,9.09057216 C9.49995134,9.09905652 9.45210265,9.10234174 9.40433251,9.10036364 C9.12265181,9.10038863 8.86400015,8.95083963 8.73202125,8.71164208 L8.73202125,8.71164208 Z"></path>
</g>
<g transform="translate(293.661526, 218.308333)" fill="#FFFFFF" fill-rule="nonzero" opacity="0.5">
<path d="M13.6566149,11.5229908 C13.6566149,9.58432008 12.4931465,8.91948102 10.1662098,8.64290795 C8.50411208,8.42085171 8.17169254,7.97806889 8.17169254,7.20153686 C8.17169254,6.42633449 8.72616832,5.92770518 9.83379024,5.92770518 C10.8310489,5.92770518 11.3855246,6.26012473 11.6620977,7.09117355 C11.7206749,7.25569428 11.8757332,7.36614678 12.0503637,7.36774662 L12.9359294,7.36774662 C13.0394374,7.37031333 13.1394883,7.33041607 13.2128275,7.25732801 C13.2861667,7.18423994 13.326407,7.08432654 13.3241954,6.98081028 L13.3241954,6.9249638 C13.1033641,5.69068209 12.0805203,4.75893954 10.8310489,4.65387351 L10.8310489,3.32419538 C10.8310489,3.10213914 10.6648391,2.93592935 10.388266,2.88008287 L9.55721718,2.88008287 C9.33516094,2.88008287 9.16895115,3.04629263 9.11310466,3.32419538 L9.11310466,4.59802703 C7.45100699,4.82008327 6.39923155,5.92770518 6.39923158,7.31322983 C6.39923158,9.14153729 7.50685347,9.86089315 9.83379024,10.1387959 C11.3855246,10.4153689 11.8841539,10.7477885 11.8841539,11.6346838 C11.8841539,12.5215791 11.1076219,13.1305717 10.0558465,13.1305717 C8.61447536,13.1305717 8.11584605,12.5202494 7.9496363,11.6892006 C7.8951195,11.468474 7.72890971,11.3567811 7.56269995,11.3567811 L6.61995814,11.3567811 C6.51644187,11.3545695 6.41652848,11.3948097 6.34344041,11.4681489 C6.27035234,11.5414882 6.23045509,11.641539 6.2330218,11.7450471 L6.2330218,11.8008936 C6.45374838,13.1850885 7.34064368,14.1823471 9.16895115,14.4602499 L9.16895115,15.789928 C9.16895115,16.0106546 9.33516091,16.1768644 9.61173397,16.2327108 L10.4427828,16.2327108 C10.6648391,16.2327108 10.8310489,16.0665011 10.8868953,15.789928 L10.8868953,14.4602499 C12.548993,14.1823471 13.6566149,13.0188787 13.6566149,11.5229908 L13.6566149,11.5229908 Z"></path>
<path d="M7.17443392,17.3403327 C2.85297993,15.789928 0.63640647,10.9698447 2.24398735,6.70290756 C3.0750362,4.37597079 4.90334364,2.60350984 7.17443392,1.77246098 C7.39649016,1.66209771 7.50685347,1.49588792 7.50685347,1.21798519 L7.50685347,0.442782823 C7.50685347,0.220726583 7.3964902,0.0545167937 7.17443392,0 C7.11858744,0 7.00822417,0 6.95237768,0.0545167937 C1.68951156,1.71661447 -1.19190096,7.31322979 0.470196711,12.5760959 C1.45013867,15.6612239 3.86724974,18.0783349 6.95237768,19.0582769 C7.17443392,19.1686402 7.3964902,19.0582769 7.45100699,18.8362206 C7.50685347,18.7817039 7.50685347,18.7258574 7.50685347,18.6154941 L7.50685347,17.838962 C7.50685347,17.6727523 7.34064371,17.4520257 7.17443392,17.3403327 L7.17443392,17.3403327 Z M13.0476223,0.0545167937 C12.8255661,-0.0558464822 12.6035098,0.0545167937 12.548993,0.276573065 C12.4931465,0.332419547 12.4931465,0.386936341 12.4931465,0.498629306 L12.4931465,1.27383168 C12.4931465,1.49588792 12.6593563,1.7166145 12.8255661,1.82830746 C17.1470201,3.37871217 19.3635935,8.19879547 17.7560126,12.4657326 C16.9284035,14.7612103 15.1210438,16.56857 12.8255661,17.3961792 C12.6035098,17.5065425 12.4931465,17.6727523 12.4931465,17.950655 L12.4931465,18.7258574 C12.4931465,18.9479136 12.6035098,19.1141234 12.8255661,19.1686402 C12.8814126,19.1686402 12.9917758,19.1686402 13.0476223,19.1141234 C18.3104884,17.4520257 21.191901,11.8554104 19.5298033,6.59254425 C18.553311,3.49329382 16.1383821,1.05755939 13.0476223,0.0545167937 Z"></path>
</g>
<path d="M268.143603,5.37859008 C267.778068,5.16971279 267.308094,5.16971279 266.890339,5.37859008 L263.966057,7.10182768 L261.981723,8.19843342 L259.109661,9.92167102 C258.744125,10.1305483 258.274151,10.1305483 257.856397,9.92167102 L255.610966,8.56396867 C255.245431,8.35509138 254.984334,7.93733681 254.984334,7.46736292 L254.984334,4.85639687 C254.984334,4.4386423 255.193211,4.02088773 255.610966,3.75979112 L257.856397,2.45430809 C258.221932,2.24543081 258.691906,2.24543081 259.109661,2.45430809 L261.355091,3.81201044 C261.720627,4.02088773 261.981723,4.4386423 261.981723,4.90861619 L261.981723,6.63185379 L263.966057,5.48302872 L263.966057,3.7075718 C263.966057,3.28981723 263.75718,2.87206266 263.339426,2.61096606 L259.16188,0.156657963 C258.796345,-0.0522193211 258.326371,-0.0522193211 257.908616,0.156657963 L253.626632,2.66318538 C253.208877,2.87206266 253,3.28981723 253,3.7075718 L253,8.61618799 C253,9.03394256 253.208877,9.45169713 253.626632,9.71279373 L257.856397,12.1671018 C258.221932,12.3759791 258.691906,12.3759791 259.109661,12.1671018 L261.981723,10.4960836 L263.966057,9.34725849 L266.83812,7.67624021 C267.203655,7.46736292 267.673629,7.46736292 268.091384,7.67624021 L270.336815,8.98172324 C270.70235,9.19060052 270.963446,9.60835509 270.963446,10.078329 L270.963446,12.689295 C270.963446,13.1070496 270.754569,13.5248042 270.336815,13.7859008 L268.143603,15.0913838 C267.778068,15.3002611 267.308094,15.3002611 266.890339,15.0913838 L264.644909,13.7859008 C264.279373,13.5770235 264.018277,13.1592689 264.018277,12.689295 L264.018277,11.0182768 L262.033943,12.1671018 L262.033943,13.8903394 C262.033943,14.308094 262.24282,14.7258486 262.660574,14.9869452 L266.890339,17.4412533 C267.255875,17.6501305 267.725849,17.6501305 268.143603,17.4412533 L272.373368,14.9869452 C272.738903,14.7780679 273,14.3603133 273,13.8903394 L273,8.92950392 C273,8.51174935 272.791123,8.09399478 272.373368,7.83289817 L268.143603,5.37859008 Z" fill="#FFFFFF" fill-rule="nonzero" opacity="0.4"></path>
<polygon fill="#FFFFFF" fill-rule="nonzero" opacity="0.5" points="315.013676 39.9940946 315.915349 35.701305 320.472262 32.5773453 321.006435 30.0260162 316.448605 33.1627481 317.74311 27 314.242407 27 312.362146 35.9750246 310.445121 37.2944391 310 39.7567157 311.8327 38.5002448 310.8901 43 322.103994 43 322.727008 39.9940946"></polygon>
</g>
</svg>