<?xml version="1.0" encoding="UTF-8"?>
<svg width="446px" height="380px" viewBox="0 0 446 380" version="1.1" xmlns="http://www.w3.org/2000/svg" xmlns:xlink="http://www.w3.org/1999/xlink">
    <title>slogan</title>
    <g id="slogan" stroke="none" stroke-width="1" fill="none" fill-rule="evenodd">
        <path d="M204.429674,13.8694737 C204.934937,10.5221053 202.379148,8.71157897 198.871779,7.49052633 L200.008621,2.95789475 L197.2402,2.26315791 L196.134937,6.69894737 C195.408621,6.51578949 194.650726,6.3473684 193.894937,6.17263157 L195.002305,1.69473684 L192.223358,1 L191.086516,5.55789475 C190.486516,5.41684214 189.897042,5.28 189.318095,5.13684213 L185.497042,4.18947371 L184.7602,7.15157894 C184.7602,7.15157894 186.812832,7.62526316 186.770727,7.64842106 C187.897042,7.93473685 188.097042,8.67157897 188.065463,9.26105262 L184.95599,21.7242105 C184.798095,22.0736843 184.450726,22.5789474 183.663358,22.3852632 C183.694937,22.4273684 181.642305,21.88 181.642305,21.88 L180.252832,25.0589474 L183.852832,25.9557895 L185.810727,26.4652632 L184.673884,31.0757895 L187.452832,31.7642105 L188.589674,27.1957895 C189.347569,27.4063158 190.073884,27.5957895 190.8002,27.7705263 L189.726516,32.3052632 L192.505463,33 L193.652832,28.3894737 C198.368621,29.288421 201.926516,28.9305263 203.421253,24.6547368 C204.621253,21.2084211 203.358095,19.2231579 200.859148,17.9263158 C202.657042,17.52 204.017042,16.3263158 204.39599,13.8631579 L204.417042,13.8631579 L204.429674,13.8694737 Z M198.092832,22.7536842 C197.242305,26.2063158 191.446516,24.3326316 189.566516,23.8694737 L191.082305,17.7642105 C192.968621,18.248421 198.991779,19.1747368 198.092832,22.7536842 Z M198.95599,13.8273684 C198.177042,16.9642105 193.351779,15.3747368 191.787569,14.9852632 L193.164411,9.4273684 C194.730727,9.80631575 199.768621,10.5305263 198.953884,13.8147368 L198.953884,13.8273684 L198.95599,13.8273684 Z" id="Shape" fill="#FFFFFF" fill-rule="nonzero"></path>
        <g id="Group-9" transform="translate(219.909850, 247.340951)" fill="#FFFFFF" fill-rule="nonzero">
            <polygon id="Path" points="26.703032 0 3.18944465 0 3.18944465 5.67663543 12.1079207 5.67663543 12.1079207 14.0202465 17.784556 14.0202465 17.784556 5.67663543 26.703032 5.67663543"></polygon>
            <path d="M15.0001242,14.9089901 C7.62248471,14.9089901 1.64115849,13.7413811 1.64115849,12.3008667 C1.64115849,10.8606005 7.62223637,9.69274324 15.0001242,9.69274324 C22.3777636,9.69274324 28.3588415,10.8606005 28.3588415,12.3008667 C28.3588415,13.7413812 22.3777636,14.9089901 15.0001242,14.9089901 M30,12.7356781 C30,10.8782313 23.2843864,9.37265648 15.0001242,9.37265648 C6.71611029,9.37265648 0,10.8782313 0,12.7356781 C0,14.3713735 5.20755559,15.7341633 12.108169,16.0361225 L12.108169,28.0136743 L17.7843077,28.0136743 L17.7843077,16.0408407 C24.738062,15.7483176 30,14.3798164 30,12.7356781" id="Shape"></path>
        </g>
        <path d="M171,231.906879 L160.002453,247.777051 L160.002453,238.592171 L171,231.906879 Z M160.002453,211.777051 L171,230.304578 L160.002453,236.930708 L160.002453,211.777051 Z M149,231.906879 L160.002453,238.592171 L160.002453,247.777051 L149,231.906879 Z M160.002453,211.777051 L160.002453,236.930708 L149,230.304578 L160.002453,211.777051 Z" id="Combined-Shape" fill="#FFFFFF" fill-rule="nonzero"></path>
        <g id="Group-13" transform="translate(121.000000, 46.777051)" fill="#FFFFFF" fill-rule="nonzero">
            <path d="M12.9299541,29.9988815 C12.8215883,30.0035357 12.7130764,29.9936492 12.6075502,29.9695071 C11.6304043,29.7940073 10.8323251,29.1171299 10.5294973,28.2070416 L0.261470749,3.52665 C-0.156682312,2.67578764 -0.0686391906,1.67481628 0.492195727,0.903513862 C1.00353335,0.30645861 1.77543178,-0.0270441896 2.57941661,0.0017190353 C2.75017097,0.00221664219 2.92068787,0.0139941625 3.08976199,0.0369683449 L22.9076644,2.5793248 C23.4870418,2.66986509 24.0247265,2.92572246 24.4509243,3.31368541 L29.2335021,7.91078289 C30.1678279,8.84107079 30.2585828,10.286682 29.4474194,11.3182161 L15.1134377,28.8518102 C14.6111602,29.540144 13.8039054,29.9642273 12.9299541,29.9988815 L12.9299541,29.9988815 Z M2.58552854,2.20480089 C2.48480037,2.19567899 2.38356442,2.21616525 2.2952123,2.26354971 C2.28922433,2.41830919 2.32115126,2.57225587 2.3884191,2.71297841 L12.6564456,27.3874952 C12.7756281,27.6812394 12.9131463,27.7840499 12.9314821,27.7840499 C12.9498178,27.7840499 13.0980319,27.7267698 13.2966693,27.4756184 L27.629123,9.93908689 C27.6852393,9.86659083 27.7103861,9.77621035 27.6994101,9.68646686 C27.6975748,9.60006314 27.6615054,9.51758941 27.5985634,9.45587761 L22.8159856,4.85878014 C22.7461549,4.81327892 22.6693317,4.7785872 22.5883165,4.75596967 L2.79944575,2.22536297 C2.72900794,2.21182175 2.65736116,2.20493494 2.58552854,2.20480089 Z" id="Shape"></path>
            <path d="M12.473088,29.8079478 C11.8448894,29.7543145 11.3802253,29.2222835 11.4340615,28.6182836 L12.9162022,13.0204641 L1.13547538,2.95972358 C0.68283288,2.54988561 0.652164225,1.86806804 1.06631673,1.42220654 C1.48046924,0.976345039 2.1887263,0.928695623 2.66345553,1.31475582 L14.8720168,11.7426766 C15.1451397,11.9751981 15.2869522,12.3187061 15.2540119,12.667971 L13.7260317,28.8239045 C13.6586596,29.3836674 13.1662766,29.8064707 12.5800466,29.8079478 L12.473088,29.8079478 Z" id="Path"></path>
            <path d="M13.0980319,13.0674631 C12.8584562,12.6420144 12.9393475,12.1156788 13.2966693,11.7749885 L22.4645501,2.96266105 C22.9160832,2.55823571 23.6197179,2.57016907 24.0561275,2.98965356 C24.492537,3.40913805 24.5049519,4.08548407 24.0842091,4.51950553 L17.5902935,10.7571646 L27.6902422,8.81845261 C28.1002627,8.72119617 28.5327025,8.84858635 28.8156216,9.14997223 C29.0985406,9.45135811 29.1860811,9.8778886 29.0434366,10.2599732 C28.900792,10.6420579 28.5510834,10.9177652 28.1333564,10.9774728 L14.320416,13.6358582 C14.249927,13.6485848 14.178154,13.6535126 14.1064988,13.6505455 C13.6839777,13.6505829 13.2960002,13.4262594 13.0980319,13.0674631 L13.0980319,13.0674631 Z" id="Path"></path>
        </g>
        <g id="Group-11" transform="translate(295.661526, 224.085385)" fill="#FFFFFF" fill-rule="nonzero">
            <path d="M16.3136909,0.359544985 C16.3845627,0.0708718318 16.6732359,-0.0726004269 16.961909,0.0708718318 C20.9798967,1.3748272 24.1193043,4.54128197 25.3887443,8.57030752 C27.5494713,15.4120335 23.803635,22.6876334 16.961909,24.8483604 C16.8893086,24.9192323 16.7458363,24.9192323 16.6732359,24.9192323 C16.3845627,24.8483604 16.2410905,24.6322877 16.2410905,24.3436146 L16.2410905,23.3358515 C16.2410905,22.974578 16.3845628,22.7585052 16.6732359,22.615033 C19.6573569,21.539141 22.0069245,19.1895734 23.0828164,16.2054524 C25.1726716,10.6584341 22.2911261,4.39232583 16.6732359,2.3767997 C16.4571632,2.23159885 16.2410905,1.94465429 16.2410905,1.65598118 L16.2416713,0.569408607 C16.2439945,0.474599367 16.2556106,0.417625326 16.3136909,0.359544985 Z M9.3267641,0 C9.61543725,0.0708718318 9.75890951,0.286944558 9.75890951,0.57561767 L9.75890951,1.58338075 C9.75890951,1.94465429 9.61543721,2.16072702 9.3267641,2.30419928 C6.37434673,3.38456279 3.99754707,5.68876202 2.91718356,8.71377982 C0.82732841,14.2607981 3.70887391,20.5269064 9.3267641,22.5424326 C9.54283683,22.6876334 9.75890951,22.974578 9.75890951,23.1906506 L9.75832871,24.2782742 C9.7560055,24.3725856 9.74438943,24.4303894 9.68630909,24.4870868 C9.61543725,24.77576 9.3267641,24.9192322 9.03809099,24.77576 C5.02742466,23.5018354 1.88518027,20.359591 0.611255725,16.3489247 C-1.54947125,9.50719873 2.19636503,2.23159881 9.03809099,0.0708718318 C9.11069142,0 9.25416368,0 9.3267641,0 Z M13.5047458,3.74410773 C13.8642908,3.81670816 14.0803635,4.03278088 14.0803635,4.321454 L14.0803635,6.05003556 C15.7046764,6.18662141 17.0343734,7.39788672 17.321454,9.00245293 L17.321454,9.07505336 C17.3243291,9.20962451 17.2720168,9.33951192 17.1766758,9.43452641 C17.0813348,9.5295409 16.9512686,9.58140733 16.8167082,9.57807061 L15.6654728,9.57807061 C15.4384532,9.57599082 15.2368774,9.43240257 15.160727,9.21852562 C14.801182,8.13816215 14.0803635,7.70601674 12.7839273,7.70601674 C11.3440188,7.70601674 10.6232003,8.35423484 10.6232003,9.36199792 C10.6232003,10.3714896 11.0553457,10.9471072 13.2160727,11.2357803 C16.2410905,11.5953253 17.7535994,12.4596161 17.7535994,14.9798881 C17.7535994,16.9245424 16.3136909,18.4370513 14.1529639,18.7983248 L14.1529639,20.5269064 C14.0803635,20.8864514 13.8642908,21.1025241 13.5756177,21.1025241 L12.4952542,21.1025241 C12.1357092,21.0299237 11.9196365,20.813851 11.9196365,20.5269064 L11.9196365,18.7983248 C9.54283679,18.4370513 8.38987289,17.1406151 8.10292833,15.3411616 L8.10292833,15.2685612 C8.09959161,15.1340007 8.15145804,15.0039346 8.24647253,14.9085936 C8.34148702,14.8132526 8.47137443,14.7609403 8.60594558,14.7638154 L9.83150994,14.7638154 C10.0475826,14.7638154 10.2636554,14.9090162 10.3345272,15.1959608 C10.5505999,16.2763243 11.198818,17.0697432 13.0726004,17.0697432 C14.4399085,17.0697432 15.4494001,16.2780529 15.4494001,15.1250889 C15.4494001,13.972125 14.801182,13.5399796 12.7839273,13.1804346 C9.75890951,12.8191611 8.31900106,11.8839985 8.31900106,9.50719877 C8.31900102,7.70601674 9.68630909,6.26610825 11.8470361,5.97743513 L11.8470361,4.321454 C11.9196365,3.96018042 12.1357092,3.74410773 12.4243823,3.74410773 Z" id="Combined-Shape"></path>
        </g>
        <g id="Path-2" transform="translate(318.000000, 16.777051)" fill="#FFFFFF" fill-rule="nonzero">
            <path d="M22.7154047,8.06788512 C22.1671018,7.75456919 21.462141,7.75456919 20.8355091,8.06788512 L16.4490862,10.6527415 L13.4725849,12.2976501 L9.16449086,14.8825065 C8.61618799,15.1958225 7.91122715,15.1958225 7.2845953,14.8825065 L3.91644909,12.845953 C3.36814621,12.5326371 2.97650131,11.9060052 2.97650131,11.2010444 L2.97650131,7.2845953 C2.97650131,6.65796345 3.28981723,6.03133159 3.91644909,5.63968668 L7.2845953,3.68146214 C7.83289817,3.36814621 8.53785901,3.36814621 9.16449086,3.68146214 L12.5326371,5.71801567 C13.0809399,6.03133159 13.4725849,6.65796345 13.4725849,7.36292428 L13.4725849,9.94778068 L16.4490862,8.22454308 L16.4490862,5.5613577 C16.4490862,4.93472585 16.1357702,4.30809399 15.5091384,3.91644909 L9.24281984,0.234986945 C8.69451697,-0.0783289817 7.98955614,-0.0783289817 7.36292428,0.234986945 L0.939947781,3.99477807 C0.313315927,4.30809399 0,4.93472585 0,5.5613577 L0,12.924282 C0,13.5509138 0.313315927,14.1775457 0.939947781,14.5691906 L7.2845953,18.2506527 C7.83289817,18.5639687 8.53785901,18.5639687 9.16449086,18.2506527 L13.4725849,15.7441253 L16.4490862,14.0208877 L20.7571802,11.5143603 C21.305483,11.2010444 22.0104439,11.2010444 22.6370757,11.5143603 L26.0052219,13.4725849 C26.5535248,13.7859008 26.9451697,14.4125326 26.9451697,15.1174935 L26.9451697,19.0339426 C26.9451697,19.6605744 26.6318538,20.2872063 26.0052219,20.6788512 L22.7154047,22.6370757 C22.1671018,22.9503916 21.462141,22.9503916 20.8355091,22.6370757 L17.4673629,20.6788512 C16.9190601,20.3655352 16.5274151,19.7389034 16.5274151,19.0339426 L16.5274151,16.5274151 L13.5509138,18.2506527 L13.5509138,20.8355091 C13.5509138,21.462141 13.8642298,22.0887728 14.4908616,22.4804178 L20.8355091,26.1618799 C21.383812,26.4751958 22.0887728,26.4751958 22.7154047,26.1618799 L29.0600522,22.4804178 C29.6083551,22.1671018 30,21.54047 30,20.8355091 L30,13.3942559 C30,12.767624 29.6866841,12.1409922 29.0600522,11.7493473 L22.7154047,8.06788512 Z" id="Path"></path>
        </g>
        <g id="Path-3" transform="translate(264.000000, 6.777051)" fill="#FFFFFF" fill-rule="nonzero">
            <polygon id="Path" points="6.26709535 16.2426183 7.39418636 10.8766312 13.0903269 6.97168159 13.7580432 3.7825203 8.060756 7.70343517 9.67888755 0 5.30300825 0 2.9526821 11.2187807 0.556400861 12.8680488 0 15.9458947 2.29087557 14.375306 1.11262531 20 15.129993 20 15.9087601 16.2426183"></polygon>
        </g>
        <polygon id="Path" fill="#E9BDBD" fill-rule="nonzero" points="12.4237641 341.112771 16.7288529 345.659016 36.7187149 330.861515 30.365017 324.151589"></polygon>
        <path d="M19.4784476,343.627493 L14.6046685,339.052911 L13.4078384,337.932343 L1,347.844033 L4.22765476,351.252633 L8.02685538,348.818199 L6.28149917,353.421887 L14.8390162,362.458978 C15.6806092,363.348591 17.0033571,363.588127 18.1038933,363.050213 C19.2044295,362.512299 19.8270893,361.321897 19.6407755,360.112001 L17.7938987,348.173662 L21.0483877,345.098439 L19.4784476,343.627493 Z" id="Path" fill="#3B424C" fill-rule="nonzero"></path>
        <path d="M107.037892,175.584105 L105.672953,190.472517 C105.672953,190.472517 103.290492,201.689583 104.940157,200.780418 C106.589823,199.871253 103.632043,203.963307 104.411032,207.511799 C105.190022,211.06029 97.7570001,237.522258 101.123599,234.781 C104.490198,232.039742 99.1780224,250.977243 95.8182964,260.319977 C94.7896314,263.208064 93.7325925,266.131326 92.6687435,269.03344 C92.4589133,269.621095 92.2487331,270.20124 92.0320649,270.788895 C90.6531137,274.565132 89.2741555,278.285361 87.9515882,281.795936 C87.762615,282.285596 87.5804519,282.774907 87.3986667,283.257735 C87.3914857,283.271392 87.3914857,283.285393 87.3846687,283.285393 C83.0311328,294.73326 79.3006064,303.740351 77.8099021,305.230151 C77.0331103,306.006299 64.7079512,314.901731 52.284715,323.810827 C39.2456501,333.16075 26.1013273,342.531485 26.1013273,342.531485 L13.8250702,329.664162 C13.8250702,329.664162 14.1189725,329.58016 14.67195,329.412499 C15.6938049,329.1185 17.5836486,328.566014 20.0613178,327.831873 C30.3916902,324.789784 17.2685533,320.055408 26.6474947,316.670808 C29.2929722,315.719831 31.0567358,314.978522 31.4555531,314.58685 C33.7862782,312.314077 36.914981,306.894387 38.3916804,309.16716 C39.8683797,311.439933 46.5666388,294.55155 48.4982035,292.880118 C49.5340565,291.978002 52.9146185,287.761252 55.8122981,284.054681 C58.3036434,280.865763 60.4453814,278.047678 60.4453814,278.047678 C60.4453814,278.047678 60.4874174,276.537046 60.5502965,274.131445 C60.6415495,270.572045 60.7744886,265.040353 60.9146017,259.501835 C60.9074278,259.49466 60.9074278,259.49466 60.9146017,259.49466 C60.9634758,257.410702 61.0123429,255.326744 61.0615809,253.347683 C61.0964429,251.816225 61.131298,250.340769 61.166503,248.976965 C61.2574061,244.893078 61.3202851,241.802163 61.3202851,241.032847 C61.3202851,238.508418 61.3202851,240.473535 63.3150719,238.948888 C63.6129557,238.715131 63.8958089,238.462859 64.1619517,238.193572 C64.5884347,237.810061 64.981813,237.391322 65.3379108,236.941799 C65.4848899,236.627317 64.5679501,237.053801 63.377979,236.816146 C62.7336242,236.686857 62.137686,236.381813 61.6562235,235.934827 C59.1505232,233.68323 61.8523916,226.760076 61.8523916,226.760076 C56.1551025,215.375041 56.5682748,206.039119 59.2345953,198.843141 C61.2285159,193.679365 64.3932336,189.047662 68.4802826,185.311672 C70.0357972,183.83057 71.7304948,182.502636 73.5408931,181.34627 L73.7158683,180.402468 L75.640595,169.989579 C76.6640963,169.427789 77.7285501,168.943936 78.824898,168.542137 C82.2435456,167.316525 85.9117717,166.951445 89.5052136,167.479179 C93.0766146,167.995537 96.5343482,169.114018 99.7310069,170.786938 C102.343957,172.098544 104.795947,173.708341 107.037892,175.584105 Z" id="Path" fill="#3B424C" fill-rule="nonzero"></path>
        <polygon id="Path" fill="#E9BDBD" fill-rule="nonzero" points="53.2825633 364.309044 59.5193778 364.888776 64.7749317 340.591781 55.5691387 339.736519"></polygon>
        <path d="M71.2449041,373.832684 L61.9780518,366.077394 L62.3980621,361.615849 L60.2426551,361.545848 L53.5656031,361.329018 L53.5584291,361.329018 L51.9207666,361.273017 L49.1420141,376.895948 L53.8243074,377.329258 L55.0631315,372.993716 L56.79204,377.609256 L59.2696883,377.840086 L69.1872313,378.763063 C69.2712963,378.769888 69.3622064,378.777051 69.4462715,378.777051 C70.2438253,378.778067 71.003415,378.43683 71.5319754,377.840072 C71.93795,377.39595 72.1863118,376.830647 72.238714,376.231445 C72.321936,375.317288 71.9504389,374.420605 71.2449041,373.832684 L71.2449041,373.832684 Z" id="Path" fill="#3B424C" fill-rule="nonzero"></path>
        <path d="M87.9516022,281.795957 C85.5788481,294.698455 75.535204,324.950675 69.4602835,342.657515 C66.695543,350.748469 64.7639502,356.22416 64.7639502,356.22416 L61.6143974,355.231182 L61.6072234,355.231182 L56.2810706,353.552553 L54.3423458,352.93724 L54.3351648,352.93724 L51.9835967,352.189099 C51.9835967,352.189099 52.2566489,337.741143 52.284673,323.810848 C52.305523,317.971499 52.277499,312.216152 52.1657458,307.656605 C52.0396447,302.684575 51.8226336,299.125167 51.4658452,298.418656 C49.9888099,295.523395 52.4596481,295.215738 55.0702635,294.488423 C57.6877169,293.754282 55.644063,292.649309 54.6290671,290.299709 C53.9435214,288.733076 55.2941127,286.642293 56.2530606,285.453331 C56.5176469,285.118751 56.800363,284.798891 57.0999403,284.495186 C57.0999403,284.495186 56.6378939,284.334344 55.8122281,284.054702 C58.3035734,280.865784 60.4453114,278.047699 60.4453114,278.047699 C60.4453114,278.047699 60.4873474,276.537067 60.5502265,274.131466 C60.6414795,270.572066 60.7744186,265.040374 60.9145318,259.501856 C60.9073578,259.494681 60.9073578,259.494681 60.9145318,259.494681 C60.9634058,257.410723 61.0122729,255.326765 61.0615109,253.347704 C65.0647535,256.417794 68.956243,259.42505 72.4837702,262.208316 C72.4925089,262.214981 72.4976755,262.225305 72.4977682,262.236289 C80.9734669,268.928613 87.3357946,274.29947 88.2315345,276.005763 C88.6375048,276.77475 88.4973847,278.831037 87.9516022,281.795957 Z" id="Path" fill="#3B424C" fill-rule="nonzero"></path>
        <path d="M296.611823,53.9822421 C299.037924,53.7555408 301.203637,55.5000475 301.496654,57.9170279 C301.521577,58.1537463 301.52684,58.3921204 301.512387,58.6297066 L315.945626,64.7880339 L315.394916,73.205071 L296.535989,62.6330742 C294.5179,62.3531692 292.942023,60.7495903 292.698784,58.7284149 C292.573708,57.5976233 292.903338,56.4635015 293.615159,55.5755452 C294.32698,54.6875889 295.362682,54.1185354 296.494422,53.993571 C296.533509,53.9892632 296.572643,53.9854869 296.611823,53.9822421 Z" id="Path" fill="#E9BDBD" fill-rule="nonzero"></path>
        <path d="M394.808827,105.939474 C394.452533,104.307637 393.789934,102.758055 392.856104,101.372759 C392.596687,100.978557 392.313888,100.600222 392.009224,100.239785 C390.875644,98.8903313 389.818619,97.65253 388.838828,96.5475567 C388.243843,95.8550671 387.662869,95.2117534 387.117073,94.6176086 C383.94667,91.141867 381.867818,89.3027529 380.916044,89.1487498 C380.454005,89.0719231 379.999132,89.015922 379.557936,88.9599348 C377.297614,88.6802788 375.659615,88.4774495 375.610741,86.0926741 C375.605816,85.7510037 375.629135,85.4095104 375.680458,85.0716744 C375.765429,84.5043893 375.889438,83.9436315 376.051602,83.3933888 C376.144745,83.0814999 376.217238,82.763823 376.268613,82.4424185 C376.338666,82.0299277 376.310642,81.7219284 376.086457,81.5330995 C375.806567,81.3026123 375.337689,81.3374451 374.455632,81.6871026 C374.315862,81.7431037 374.154899,81.8059301 373.986755,81.8827569 C373.930707,81.9039321 373.875002,81.9319327 373.81178,81.9599333 C373.700027,82.0087594 373.573926,82.0647605 373.44816,82.127587 C372.391135,82.6312475 370.760311,82.694074 368.898806,82.505217 C363.404516,81.945905 355.971495,79.1766393 355.880585,79.1414707 L309.070999,60.9664741 L308.63732,61.665789 L307.608319,63.3300743 L307.251531,63.9033866 L306.845532,64.5607006 L305.074595,67.413961 L304.178876,68.8545915 L319.296792,80.2464301 L320.941286,81.4842173 L322.355442,82.5543578 L351.219169,104.309951 L361.983557,111.407927 L364.384342,112.988211 L374.616966,119.729703 C377.588263,121.691266 381.226814,122.369863 384.706255,121.611377 C388.185696,120.85289 391.210713,118.721696 393.09428,115.701818 C394.911179,112.792976 395.525942,109.292616 394.808827,105.939474 L394.808827,105.939474 Z" id="Path" fill="#E4E4E4" fill-rule="nonzero"></path>
        <polygon id="Path" fill="#FFB6B6" fill-rule="nonzero" points="72.1063908 150.41661 73.4180046 162.5721 72.6467141 178.510884 107.981198 174.317093 111.300826 150.41661 107.070627 150.458569"></polygon>
        <path d="M102.162224,115.155838 L88.8641117,104.666115 L88.8641117,104.666115 L81.8835267,104.260583 L71.5255153,110.890612 L68.9891944,123.819118 L62.99078,138.377601 L71.7887969,177.66636 C71.7887969,177.66636 72.6139797,180.485654 70.4516297,180.824297 C68.2892797,181.162941 68.5485579,185.318689 68.5485579,185.318689 C68.5485579,185.318689 68.9888934,188.920377 66.8891915,189.237544 C64.7894896,189.554712 59.1905855,189.554712 64.0898899,195.848545 C68.9891944,202.142379 107.739704,178.338058 107.739704,178.338058 L113.367941,148.831043 C113.367941,148.831043 124.282989,134.183033 112.528319,125.793871 L102.162224,115.155838 Z" id="Path" fill="#1B1E22" fill-rule="nonzero" opacity="0.14"></path>
        <path d="M102.162224,111.155838 C94.8455533,104.850596 90.4128493,101.354022 88.8641117,100.666115 C86.5410052,99.6342556 84.6172311,99.6342556 81.8835267,100.260583 C80.0610571,100.678134 76.6083867,102.888144 71.5255153,106.890612 L68.9891944,119.819118 L62.99078,134.377601 L71.7887969,173.66636 C71.7887969,173.66636 72.6139797,176.485654 70.4516297,176.824297 C68.2892797,177.162941 68.5485579,181.318689 68.5485579,181.318689 C68.5485579,181.318689 68.9888934,184.920377 66.8891915,185.237544 C64.7894896,185.554712 59.1905855,185.554712 64.0898899,191.848545 C68.9891944,198.142379 107.981198,174.317093 107.981198,174.317093 L113.367941,144.831043 C113.367941,144.831043 124.282989,130.183033 112.528319,121.793871 L102.162224,111.155838 Z" id="Path" fill="#E4E4E4" fill-rule="nonzero"></path>
        <path d="M44.1097496,200.359444 C42.9235901,198.880523 42.4539725,196.952606 42.8272614,195.094457 C43.2005503,193.236308 44.3784005,191.638802 46.043876,190.731795 L62.7708012,134.643431 L73.2300183,139.904796 L55.0140475,193.664903 C56.3836466,196.626469 55.3198589,200.143507 52.5378844,201.85146 C49.75591,203.559413 46.1350849,202.918426 44.1097426,200.359444 L44.1097496,200.359444 Z" id="Path" fill="#E9BDBD" fill-rule="nonzero"></path>
        <polygon id="Path-9" fill="#1B1E22" opacity="0.12" points="54.5552442 162.197263 53.87927 164.449755 64.4156245 165.932049 65.2393943 163.551426"></polygon>
        <path d="M73.9276162,106.37165 C73.9276162,106.37165 70.9377387,104.783982 68.8926571,111.654274 C67.2554285,117.154449 53.9703206,149.915852 53.8008817,157.881034 C51.5519277,158.357214 49.9113483,160.294912 49.8141147,162.589828 L66.2399567,164.789173 C69.1102492,162.370306 69.8632443,159.103317 68.7527119,158.133675 L72.3191186,148.401269 L87.1979002,117.436028 L76.1092345,107.480945 L73.9276162,106.37165 Z" id="Path" fill="#E4E4E4" fill-rule="nonzero"></path>
        <path d="M161.695933,181.923191 C162.125362,180.077187 161.714385,178.135946 160.573589,176.621815 C159.432793,175.107684 157.679363,174.176199 155.785111,174.078004 L117.413919,130.291616 L109.274306,139.995861 L148.966574,180.598521 C149.013438,183.860629 151.494806,186.572164 154.742416,186.910123 C157.990026,187.248081 160.977363,185.105638 161.695996,181.923191 L161.695933,181.923191 Z" id="Path" fill="#E9BDBD" fill-rule="nonzero"></path>
        <polygon id="Path-10" fill="#1B1E22" opacity="0.12" points="128.773255 159.988909 138.085207 153.837696 136.219719 151.750557 126.548104 157.663306"></polygon>
        <path d="M94.1319838,110.061753 C94.1319838,110.061753 96.1406986,107.338341 100.958115,112.649358 C104.814847,116.901234 130.972807,140.7007 134.572942,147.80939 C136.806831,147.267009 139.124727,148.305292 140.205652,150.332517 L126.347031,159.412897 C122.712118,158.472088 120.619184,155.851727 121.200844,154.497602 L113.772924,147.263239 L86.9553917,125.771895 L92.6450099,112.004582 L94.1319838,110.061753 Z" id="Path" fill="#E4E4E4" fill-rule="nonzero"></path>
        <path d="M237.286199,35 C263.510805,35.0148538 288.617986,45.6110432 306.912314,64.3848804 C309.274081,66.7937328 311.503053,69.3290765 313.589366,71.9796912 C315.655095,74.5733866 317.582497,77.2741187 319.363547,80.0706379 C334.383934,103.647087 338.515179,132.544699 330.701734,159.380044 C329.840856,162.344958 328.833055,165.247387 327.69916,168.093507 C326.558406,170.946768 325.291544,173.744027 323.891743,176.457313 C307.204442,208.900478 273.793494,229.328541 237.286199,229.409528 C211.481584,229.418371 186.731316,219.180026 168.484696,200.948679 C150.238077,182.717331 139.991155,157.987778 140.000006,132.204761 C140.000006,78.6020068 183.645724,35 237.286199,35 Z" id="Combined-Shape" fill="#3CFF85" fill-rule="nonzero"></path>
        <polygon id="Path" fill="#E9BDBD" fill-rule="nonzero" points="371.468589 364.531426 365.035803 364.476879 362.187907 339.106436 371.682759 339.186858"></polygon>
        <path d="M373.175108,361.566673 L371.495417,361.455021 L364.643389,360.986536 L362.438429,360.83968 L362.396736,365.434059 L352.122076,372.399235 C351.080523,373.106204 350.620187,374.407829 350.985954,375.611682 C351.35172,376.815534 352.458572,377.641797 353.717696,377.650922 L366.50488,377.756098 L368.744702,373.224538 L369.56353,377.784071 L374.392774,377.825729 L373.175108,361.566673 Z" id="Path" fill="#3B424C" fill-rule="nonzero"></path>
        <polygon id="Path" fill="#E9BDBD" fill-rule="nonzero" points="439.198674 359.834827 433.050047 361.723677 422.67052 338.395933 431.746132 335.608464"></polygon>
        <polygon id="Path-12" fill="#1B1E22" opacity="0.1" points="424.822051 343.212866 433.916039 342.690925 433.135103 340.131964 423.539042 340.398502"></polygon>
        <path d="M439.931232,356.496641 L438.293576,356.895474 L431.624013,358.510933 L429.475101,359.03542 L430.825685,363.43411 L423.133616,373.168516 C422.452476,374.034377 422.325507,375.212667 422.806569,376.203554 C423.287631,377.19444 424.29239,377.824211 425.394624,377.825715 C425.679275,377.825138 425.962298,377.782802 426.234638,377.700062 L438.461713,373.944658 L439.224493,368.944627 L441.387081,373.042514 L446,371.623058 L439.931232,356.496641 Z" id="Path" fill="#3B424C" fill-rule="nonzero"></path>
        <path d="M358.52919,151.20315 L346.252828,186.849941 L345.847439,189.702446 C342.754179,192.637016 346.640013,193.603783 345.183002,194.377673 C343.725991,195.151563 342.746109,197.320949 344.709611,197.70858 C346.673112,198.09621 353.003559,337.133026 361.353716,342.531548 C369.703874,347.930069 374.785706,351.834917 373.252027,343.930177 C372.634099,340.745316 373.508107,323.669572 374.772148,304.413365 C374.915411,302.230985 377.17868,299.921057 375.215354,297.799245 C373.252027,295.677433 375.457225,294.281202 375.580562,292.520327 C377.341778,267.375197 379.375304,242.55015 379.375304,242.55015 C379.375304,242.55015 392.389438,287.206416 395.768894,283.749465 C399.148351,280.292514 397.810736,288.803819 398.843432,291.347171 C399.706409,293.472612 396.024302,297.647298 401.43578,297.711355 C406.847258,297.775413 419.556018,341.181961 420.84527,341.132904 C423.399495,341.035587 430.579628,341.31046 434.843283,340.433589 C436.948864,340.000566 427.602524,307.137217 419.798016,278.759021 C419.175629,276.495934 415.788341,276.443268 417.966852,272.074054 C420.145363,267.70484 409.305967,239.434136 410.236128,238.126634 C412.705027,234.656179 413.645169,233.147659 411.210354,232.920375 C408.77554,232.693091 408.056168,234.027614 407.924671,230.661085 C407.793173,227.294555 407.37289,218.992982 407.37289,218.992982 C407.37289,218.992982 405.609308,186.160997 393.258757,168.021658 L392.205483,157.243937 L358.52919,151.20315 Z" id="Path" fill="#3B424C" fill-rule="nonzero"></path>
        <path d="M387.199018,86.1445656 L370.91898,88.4606963 L369.936613,100.239298 L361.902979,112.795622 C361.902979,112.795622 344.045784,125.351819 356.499746,145.186717 C351.760383,162.273153 347.048351,178.659589 342.556073,189.584334 C339.05657,211.263094 370.407219,213.340891 406.247031,205.668575 C406.247031,205.668575 405.752901,196.399045 402.500463,191.942717 C399.248025,187.486389 401.018507,186.513419 401.018507,186.513419 L398.745979,178.188027 C400.031976,166.153874 395.689723,165.073825 393.648806,159.513796 L399.844781,101.824183 L387.199018,86.1445656 Z" id="Path" fill="#1B1E22" fill-rule="nonzero" opacity="0.12"></path>
        <path d="M389.199018,83.1445656 L372.91898,85.4606963 L371.936613,97.2392979 C368.735092,100.488173 366.509461,103.089262 365.259722,105.042565 C364.724209,105.879556 364.204233,107.35068 363.699793,109.455938 C363.699793,109.455938 346.045784,122.351819 358.499746,142.186717 C353.760383,159.273153 349.048351,175.659589 344.556073,186.584334 C341.05657,208.263094 372.407219,210.340891 408.247031,202.668575 C408.247031,202.668575 407.752901,193.399045 404.500463,188.942717 C401.248025,184.486389 403.018507,183.513419 403.018507,183.513419 L400.745979,175.188027 C402.031976,163.153874 397.689723,162.073825 395.648806,156.513796 L401.844781,98.8241831 L389.199018,83.1445656 Z" id="Path" fill="#E4E4E4" fill-rule="nonzero"></path>
        <path d="M311.045314,183.979946 C311.404053,181.571827 313.61648,179.886855 316.035507,180.179442 C316.271521,180.211758 316.50445,180.263547 316.731909,180.334277 L326.16223,167.799821 L334.211395,170.343174 L319.435051,186.118317 C318.681321,188.009634 316.746645,189.155937 314.724181,188.909528 C313.595299,188.760984 312.571712,188.17045 311.878599,187.26784 C311.185486,186.365229 310.879624,185.224479 311.028299,184.096542 C311.033446,184.0576 311.039117,184.018734 311.045314,183.979946 Z" id="Path" fill="#E9BDBD" fill-rule="nonzero"></path>
        <polygon id="Path-11" fill="#1B1E22" opacity="0.12" points="320.290184 175.604427 324.792516 180.414878 326.598381 178.457704 322.060674 173.247343"></polygon>
        <path d="M394.808827,105.939474 C394.577804,105.65265 394.325937,105.372994 394.060059,105.100163 C390.276507,101.203971 384.487857,100.026719 379.481073,102.135201 C379.243219,102.23286 379.005014,102.344863 378.774334,102.456886 C370.410389,106.561605 365.896233,109.296038 365.350121,110.57584 C365.161148,111.009492 365.000171,111.435997 364.839194,111.848467 C364.685062,112.254126 364.53811,112.638609 364.384328,112.988266 C363.740469,114.484898 362.998525,115.415043 361.108667,114.995384 C360.482035,114.84227 359.877586,114.609668 359.310049,114.303244 C359.051001,114.177242 358.813119,114.044414 358.588955,113.918411 C357.777301,113.471094 357.189154,113.149438 356.790336,113.443094 C356.405524,113.729582 356.391512,114.456898 356.741462,116.142358 C356.857226,116.845789 356.838208,117.564789 356.685421,118.261128 C356.222612,120.29254 355.497981,122.255372 354.529671,124.100477 C353.078808,126.992742 351.447146,129.790873 349.644365,132.478269 L332.993729,156.198972 L331.86698,157.800403 L330.63498,159.555865 L320.808375,173.556148 L321.389348,174.150285 L323.825003,176.633063 L324.363926,177.185522 L324.853996,177.688832 L326.120852,178.982635 L327.31048,180.192449 L353.857837,158.583691 L356.818416,156.170915 L362.123719,151.849373 L372.99298,143.00316 L393.563158,123.981663 C396.186884,121.574788 397.71584,118.203665 397.797416,114.645741 C397.797416,114.526913 397.804638,114.414911 397.804638,114.296083 C397.812225,111.24666 396.752485,108.290548 394.808827,105.939474 L394.808827,105.939474 Z" id="Path" fill="#E4E4E4" fill-rule="nonzero"></path>
        <ellipse id="Oval" fill="#E9BDBD" fill-rule="nonzero" cx="379.425347" cy="64.5393575" rx="18.1916983" ry="18.1764721"></ellipse>
        <path d="M403.533361,89.743615 C405.97485,93.234928 407.60801,97.2254271 408.314382,101.425669 C406.346817,102.683379 404.056423,103.343967 401.720716,103.327697 C401.641404,103.021792 401.562091,102.71615 401.471503,102.410493 C400.794673,100.043811 399.787811,97.7840965 398.480547,95.6978472 C398.659726,97.9474965 398.354528,100.209396 397.585494,102.331317 C396.35123,101.77083 395.02853,101.429887 393.676933,101.323835 C392.575846,101.323756 391.489825,101.579517 390.504676,102.070913 C389.360471,98.2787944 388.306785,94.7922694 387.559081,92.2905685 C387.536404,98.5617932 378.337008,104.029267 368.299257,103.236888 C367.936709,103.010477 371.573449,92.6981292 371.222238,92.4603902 C370.417836,91.9283934 369.63611,91.351067 368.854384,90.7850766 C372.139913,85.7137504 375.708601,80.280249 375.096846,79.4652675 C375.142137,80.4727494 371.539426,85.3175955 367.619528,89.8907788 C365.444237,88.2947186 377.804566,62.3270331 371.698052,60.221564 C371.596055,61.1384706 370.247858,61.1384706 368.605191,60.9460541 C368.171857,59.4331864 367.5273,57.9888855 366.690536,56.6557577 C366.799344,57.9986493 366.637528,59.3497072 366.214659,60.6290267 C364.592501,60.6294847 362.97488,60.8002248 361.388432,61.1384356 C361.021399,60.561337 360.616433,60.0092171 360.176204,59.4857169 C360.219582,60.123725 360.200614,60.7644389 360.119568,61.3987696 C358.499417,61.7496788 357.162565,62.1571765 356.970015,62.4855048 C355.701137,62.0213486 357.865006,59.9272084 357.072011,58.8404801 C355.05536,56.1237679 358.046315,52.1618277 359.938286,49.3544633 C363.824233,43.6040394 372.355224,41.6117404 378.393707,45.0642717 C378.665668,44.1247073 380.059149,43.5021353 381.849201,43.0833086 C382.607691,42.9162294 383.384024,42.843982 384.16035,42.8682273 C391.864268,43.0040553 402.559134,49.3544633 402.978319,57.0406675 C403.012334,57.8104104 403.06897,58.6480636 403.125599,59.5423055 C403.669387,68.1454164 403.001017,76.0806257 408.880882,82.3744451 C411.010799,84.6496729 411.033405,95.4261634 410.217734,100.972905 C408.099107,98.7428877 406.592291,90.0719293 403.533361,89.743615 Z" id="Path" fill="#3B424C" fill-rule="nonzero"></path>
        <path d="M69.7963548,72.0972794 C68.1984046,76.0736605 63.6903307,83.8933709 63.0797164,88.1591914 L63.3545463,87.8891509 C63.8788266,88.783998 64.4745799,89.6350777 65.1359964,90.4340905 C66.3214863,89.1901017 67.7532805,88.2064375 69.3401805,87.5457524 C68.4736266,89.322286 67.9717603,91.2541658 67.8641601,93.2275315 C69.5654296,98.5558839 77.4304019,96.1830388 82.0385477,95.6012298 C86.6402964,100.860602 92.7626492,102.233021 100.779857,99.2093307 C103.022108,99.4399927 105.532182,99.5799676 107.103396,98.2561646 C108.67461,96.9323616 107.738906,94.4807666 108.584253,92.6264984 C114.605757,79.4185812 109.048707,74.6532542 104.327275,68.664294 C103.288266,67.3463373 103.292605,65.3795423 102.028333,64.1220833 C100.274137,62.3790691 97.5851465,61.8429464 95.1060005,61.4134901 C96.4157355,61.4824333 97.6666457,60.8639295 98.4062419,59.7817089 C99.0567086,58.688589 99.039365,57.3234876 98.3613363,56.2472179 C97.4746952,54.7785099 95.6322488,53.9244297 93.8547461,53.7110758 C92.1035446,53.5922565 90.344471,53.7433415 88.6392546,54.1590289 C87.5346742,54.3041888 86.465031,54.645791 85.48096,55.1676647 C84.5301725,55.6745141 83.9939189,56.7176102 84.135373,57.7850392 C84.4354168,58.7602023 85.1644053,59.5452729 86.1152029,59.9171802 C86.8308381,60.2194831 87.5835291,60.4253592 88.3534852,60.5293954 C84.8169696,60.0708509 81.224547,60.6991141 78.0541604,62.3305996 C74.0809085,64.4482088 71.3997781,68.1230243 69.7963548,72.0972794 Z" id="Path" fill="#3B424C" fill-rule="nonzero"></path>
        <ellipse id="Oval" fill="#E9BDBD" fill-rule="nonzero" cx="91.3105793" cy="80.1993592" rx="14.2029156" ry="14.191028"></ellipse>
        <path d="M77.6438296,72.5903663 C78.4673607,75.0771299 80.8206786,75.8784467 82.9958088,76.3782191 C83.6816414,76.5379356 84.3717155,76.6867568 85.0681376,76.819193 C85.3250711,76.4982075 85.5983613,76.1836417 85.8837738,75.886307 C87.0692605,74.642318 88.5010558,73.6586577 90.0879579,72.9979829 C89.4017358,74.4012764 88.9456754,75.9056373 88.7372197,77.4535275 C90.052137,77.6441468 91.3743519,77.7999261 92.7038645,77.9208656 C95.0400034,78.4176817 97.3559377,76.9978869 97.9709107,74.6918773 C99.1812209,76.6694557 100.612336,78.531864 102.569412,79.3174393 C104.866694,80.1421722 107.433726,79.3748345 108.900251,77.4250234 C110.028671,75.8755284 110.811088,74.1020837 111.194637,72.2245128 C111.750043,70.0223704 112.058518,67.4855919 110.968052,66.0884098 C110.094443,64.9576177 108.587507,64.9373376 107.196987,65.0376403 C104.128064,65.2728666 101.091503,65.8229223 98.1352544,66.679121 L97.8850189,67.2413282 C98.3930838,64.1917631 97.2910693,61.2576688 95.2521047,60.2141862 C93.8768,59.5165078 92.2221299,59.6334961 90.6144582,59.7750165 C88.5493815,59.8670779 86.5089924,60.2613418 84.558463,60.945215 C82.3208443,61.8052208 80.4038208,63.3350129 79.0696742,65.3252895 C77.6426188,67.4902003 76.9334445,70.4427775 77.6438296,72.5903663 Z" id="Path" fill="#3B424C" fill-rule="nonzero"></path>
        <path d="M97.891395,59.3266927 C97.7512679,59.2853562 98.1143624,59.3384552 97.9884363,59.3418329 C98.0509967,59.3382099 98.1131589,59.3295121 98.1743089,59.3158254 C98.1847094,59.3137274 98.3260963,59.2686636 98.2321767,59.3018391 C98.4431202,59.238811 98.6312903,59.1161119 98.7739627,58.9485592 C99.1075827,58.5363365 99.3693063,58.0708966 99.5481438,57.5717832 C99.7739076,56.9122051 100.136709,56.3077811 100.612742,55.7981739 C100.886766,55.5231705 101.275633,55.3952467 101.659571,55.4538033 C102.043508,55.5123598 102.37647,55.7503737 102.555904,56.0945365 C102.735545,56.7491662 102.674024,57.4464786 102.382531,58.0596112 C102.178953,58.6835007 101.87597,59.2704877 101.485259,59.797947 C100.830601,60.6604772 99.9389558,61.3140969 98.9190031,61.6791389 C97.7383979,62.1075627 96.4510211,62.1443205 95.2478563,61.7839592 C94.9230762,61.6493308 94.7085197,61.3357585 94.7008504,60.9845155 C94.6931811,60.6332724 94.8938466,60.310649 95.2124414,60.1619963 L97.2190565,59.3413294 C97.5064157,59.2149959 97.8394011,59.251435 98.0925803,59.4369204 C98.3457595,59.6224057 98.4806686,59.9287577 98.4464886,60.2405765 C98.4123086,60.5523953 98.2142322,60.8223082 97.926873,60.9486416 L95.9202579,61.7693155 L95.8848429,60.1473527 C96.1351777,60.219563 96.3928092,60.2635763 96.6529349,60.2785721 C96.9305171,60.3063575 97.2106436,60.2945561 97.4848997,60.2435225 C97.747562,60.2091144 98.0056915,60.14622 98.2547205,60.0559522 C98.4142252,59.9977477 98.5706721,59.9314957 98.7234579,59.8574517 C98.7789414,59.8305281 98.8339279,59.8025742 98.8884175,59.7735899 C98.884491,59.7756878 99.1179849,59.6398389 99.0155684,59.7036584 C99.2750875,59.5379509 99.5185818,59.3484326 99.7428912,59.137563 C99.8221029,59.0627868 99.8950676,58.9816692 99.9610572,58.8950197 C100.075342,58.7546946 100.181329,58.6078217 100.278476,58.4551507 C100.47615,58.13184 100.632734,57.7851789 100.74461,57.4231788 C100.795619,57.2710385 100.838668,57.1163482 100.873581,56.9597358 C100.883283,56.8737698 100.898845,56.7885655 100.920159,56.7047167 C100.994621,56.5049224 100.906021,56.8213764 100.991682,56.9079446 L101.361565,57.1802787 C101.502269,57.2221628 101.6544,57.1978264 101.774983,57.1141445 C101.818796,57.0525256 101.809217,57.0627472 101.746245,57.1448095 C101.672965,57.2413777 101.605892,57.3424943 101.545429,57.4475499 C101.412859,57.6948656 101.292942,57.9487477 101.186142,58.2082156 C100.965378,58.7600417 100.686264,59.2867334 100.353547,59.7793313 C99.684834,60.8013135 98.4349864,61.2788138 97.2544435,60.9633342 C96.8050196,60.784571 96.5822201,60.2786347 96.7539445,59.8267938 C96.9372897,59.3820671 97.4393601,59.1613227 97.891395,59.3266927 L97.891395,59.3266927 Z" id="Path" fill="#3B424C" fill-rule="nonzero"></path>
        <g id="Path-5" transform="translate(231.000000, 182.000000)" fill="#1B1E22">
            <polygon id="Path" points="5.96282642 0 0 11.3941841 5.96282642 11.3941841 5.96282642 19 12 7.61240462 6 7.61240462"></polygon>
        </g>
        <g id="P2P" transform="translate(193.726074, 100.013672)" fill="#1B1E22" fill-rule="nonzero">
            <path d="M15.1123047,23.046875 L7.47070312,23.046875 L7.47070312,35.9863281 L0,35.9863281 L0,0 L15.6738281,0 C19.2871094,0 22.1679688,0.927734375 24.3164062,2.78320312 C26.4648438,4.63867188 27.5390625,7.51139323 27.5390625,11.4013672 C27.5390625,15.6494141 26.4648438,18.6523438 24.3164062,20.4101562 C22.1679688,22.1679688 19.0999349,23.046875 15.1123047,23.046875 Z M18.6279297,15.5517578 C19.6044922,14.6891276 20.0927734,13.3219401 20.0927734,11.4501953 C20.0927734,9.57845052 19.6004232,8.2438151 18.6157227,7.44628906 C17.6310221,6.64876302 16.2516276,6.25 14.4775391,6.25 L7.47070312,6.25 L7.47070312,16.8457031 L14.4775391,16.8457031 C16.2516276,16.8457031 17.6350911,16.414388 18.6279297,15.5517578 Z" id="Shape"></path>
            <path d="M46.7529297,7.78808594 C45.9228516,6.7952474 44.7347005,6.29882812 43.1884766,6.29882812 C41.0725911,6.29882812 39.6321615,7.08821615 38.8671875,8.66699219 C38.4277344,9.57845052 38.1673177,11.0270182 38.0859375,13.0126953 L31.3232422,13.0126953 C31.4371745,10.0016276 31.9824219,7.56835938 32.9589844,5.71289062 C34.8144531,2.18098958 38.1103516,0.415039062 42.8466797,0.415039062 C46.5901693,0.415039062 49.5686849,1.45263672 51.7822266,3.52783203 C53.9957682,5.60302734 55.1025391,8.34960938 55.1025391,11.7675781 C55.1025391,14.3880208 54.3212891,16.7154948 52.7587891,18.75 C51.7333984,20.1009115 50.0488281,21.6064453 47.7050781,23.2666016 L44.921875,25.2441406 C43.1803385,26.4811198 41.9881185,27.3763021 41.3452148,27.9296875 C40.7023112,28.4830729 40.1611328,29.1259766 39.7216797,29.8583984 L55.1757812,29.8583984 L55.1757812,35.9863281 L30.9326172,35.9863281 C30.9977214,33.4472656 31.5429688,31.1279297 32.5683594,29.0283203 C33.5611979,26.6682943 35.9049479,24.1699219 39.5996094,21.5332031 C42.8059896,19.2382812 44.8811849,17.594401 45.8251953,16.6015625 C47.273763,15.0553385 47.9980469,13.3626302 47.9980469,11.5234375 C47.9980469,10.0260417 47.5830078,8.78092448 46.7529297,7.78808594 Z" id="Path"></path>
            <path d="M76.2695312,23.046875 L68.6279297,23.046875 L68.6279297,35.9863281 L61.1572266,35.9863281 L61.1572266,0 L76.8310547,0 C80.4443359,0 83.3251953,0.927734375 85.4736328,2.78320312 C87.6220703,4.63867188 88.6962891,7.51139323 88.6962891,11.4013672 C88.6962891,15.6494141 87.6220703,18.6523438 85.4736328,20.4101562 C83.3251953,22.1679688 80.2571615,23.046875 76.2695312,23.046875 Z M79.7851562,15.5517578 C80.7617188,14.6891276 81.25,13.3219401 81.25,11.4501953 C81.25,9.57845052 80.7576497,8.2438151 79.7729492,7.44628906 C78.7882487,6.64876302 77.4088542,6.25 75.6347656,6.25 L68.6279297,6.25 L68.6279297,16.8457031 L75.6347656,16.8457031 C77.4088542,16.8457031 78.7923177,16.414388 79.7851562,15.5517578 Z" id="Shape"></path>
        </g>
        <g id="Crypto-Payments" transform="translate(180.056641, 144.732422)" fill="#276F44" fill-rule="nonzero">
            <path d="M7.546875,9.515625 C6.79492188,10.203776 5.83333333,10.5478516 4.66210938,10.5478516 C3.21289062,10.5478516 2.07356771,10.0830078 1.24414062,9.15332031 C0.414713542,8.21907552 0,6.93847656 0,5.31152344 C0,3.55240885 0.471679688,2.19661458 1.41503906,1.24414062 C2.23535156,0.414713542 3.27897135,0 4.54589844,0 C6.24121094,0 7.48079427,0.555989583 8.26464844,1.66796875 C8.69759115,2.29231771 8.93001302,2.91894531 8.96191406,3.54785156 L6.85644531,3.54785156 C6.71972656,3.06477865 6.54427083,2.70019531 6.33007812,2.45410156 C5.94726562,2.01660156 5.37988281,1.79785156 4.62792969,1.79785156 C3.86230469,1.79785156 3.25846354,2.10660807 2.81640625,2.72412109 C2.37434896,3.34163411 2.15332031,4.21549479 2.15332031,5.34570312 C2.15332031,6.47591146 2.38688151,7.32242839 2.85400391,7.88525391 C3.3211263,8.44807943 3.91471354,8.72949219 4.63476562,8.72949219 C5.37304688,8.72949219 5.9358724,8.48795573 6.32324219,8.00488281 C6.5374349,7.74511719 6.71516927,7.35546875 6.85644531,6.8359375 L8.94140625,6.8359375 C8.75911458,7.93424479 8.29427083,8.82747396 7.546875,9.515625 Z" id="Path"></path>
            <path d="M14.1367188,4.61425781 C13.3528646,4.61425781 12.8264974,4.86946615 12.5576172,5.37988281 C12.4072266,5.66699219 12.3320312,6.10904948 12.3320312,6.70605469 L12.3320312,10.2675781 L10.3701172,10.2675781 L10.3701172,2.81640625 L12.2294922,2.81640625 L12.2294922,4.11523438 C12.5302734,3.61848958 12.7923177,3.27897135 13.015625,3.09667969 C13.3802083,2.79134115 13.8541667,2.63867188 14.4375,2.63867188 C14.4739583,2.63867188 14.5047201,2.6398112 14.5297852,2.64208984 C14.5548503,2.64436849 14.6106771,2.64778646 14.6972656,2.65234375 L14.6972656,4.6484375 C14.5742188,4.63476562 14.4648438,4.62565104 14.3691406,4.62109375 C14.2734375,4.61653646 14.1959635,4.61425781 14.1367188,4.61425781 Z" id="Path"></path>
            <path d="M18.8671875,8.3125 L20.4052734,2.81640625 L22.4765625,2.81640625 L19.9199219,10.1445312 C19.4277344,11.5572917 19.0380859,12.433431 18.7509766,12.7729492 C18.4638672,13.1124674 17.8896484,13.2822266 17.0283203,13.2822266 C16.8551432,13.2822266 16.7161458,13.2810872 16.6113281,13.2788086 C16.5065104,13.2765299 16.3492839,13.2685547 16.1396484,13.2548828 L16.1396484,11.6962891 L16.3857422,11.7099609 C16.5771484,11.7190755 16.7594401,11.7122396 16.9326172,11.6894531 C17.1057943,11.6666667 17.2516276,11.6142578 17.3701172,11.5322266 C17.4840495,11.4547526 17.5900065,11.2929688 17.6879883,11.046875 C17.7859701,10.8007812 17.8258464,10.6503906 17.8076172,10.5957031 L15.0732422,2.81640625 L17.2402344,2.81640625 L18.8671875,8.3125 Z" id="Path"></path>
            <path d="M29.8662109,3.61621094 C30.4677734,4.25878906 30.7685547,5.20214844 30.7685547,6.44628906 C30.7685547,7.75878906 30.4734701,8.75911458 29.8833008,9.44726562 C29.2931315,10.1354167 28.5332031,10.4794922 27.6035156,10.4794922 C27.0110677,10.4794922 26.5188802,10.3313802 26.1269531,10.0351562 C25.9127604,9.87109375 25.703125,9.63183594 25.4980469,9.31738281 L25.4980469,13.2001953 L23.5703125,13.2001953 L23.5703125,2.81640625 L25.4365234,2.81640625 L25.4365234,3.91699219 C25.6461589,3.59342448 25.8694661,3.33821615 26.1064453,3.15136719 C26.539388,2.8186849 27.054362,2.65234375 27.6513672,2.65234375 C28.5218099,2.65234375 29.2600911,2.97363281 29.8662109,3.61621094 Z M28.7587891,6.54199219 C28.7587891,5.96777344 28.6277669,5.45963542 28.3657227,5.01757812 C28.1036784,4.57552083 27.6787109,4.35449219 27.0908203,4.35449219 C26.3844401,4.35449219 25.8990885,4.68945312 25.6347656,5.359375 C25.4980469,5.71484375 25.4296875,6.16601562 25.4296875,6.71289062 C25.4296875,7.57877604 25.6598307,8.18717448 26.1201172,8.53808594 C26.3935547,8.74316406 26.7171224,8.84570312 27.0908203,8.84570312 C27.633138,8.84570312 28.0467122,8.63606771 28.331543,8.21679688 C28.6163737,7.79752604 28.7587891,7.23925781 28.7587891,6.54199219 Z" id="Shape"></path>
            <path d="M35.5878906,8.87988281 L35.5878906,10.3359375 L34.6650391,10.3701172 C33.7444661,10.4020182 33.1155599,10.242513 32.7783203,9.89160156 C32.5595703,9.66829427 32.4501953,9.32421875 32.4501953,8.859375 L32.4501953,4.27246094 L31.4111328,4.27246094 L31.4111328,2.88476562 L32.4501953,2.88476562 L32.4501953,0.806640625 L34.3779297,0.806640625 L34.3779297,2.88476562 L35.5878906,2.88476562 L35.5878906,4.27246094 L34.3779297,4.27246094 L34.3779297,8.20996094 C34.3779297,8.51529948 34.4166667,8.70556641 34.4941406,8.78076172 C34.5716146,8.85595703 34.8085938,8.89355469 35.2050781,8.89355469 C35.2643229,8.89355469 35.3269857,8.89241536 35.3930664,8.89013672 C35.4591471,8.88785807 35.5240885,8.8844401 35.5878906,8.87988281 Z" id="Path"></path>
            <path d="M43.0527344,3.75976562 C43.6816406,4.54817708 43.9960938,5.48014323 43.9960938,6.55566406 C43.9960938,7.64941406 43.6816406,8.58479818 43.0527344,9.36181641 C42.4238281,10.1388346 41.4690755,10.5273438 40.1884766,10.5273438 C38.9078776,10.5273438 37.953125,10.1388346 37.3242188,9.36181641 C36.6953125,8.58479818 36.3808594,7.64941406 36.3808594,6.55566406 C36.3808594,5.48014323 36.6953125,4.54817708 37.3242188,3.75976562 C37.953125,2.97135417 38.9078776,2.57714844 40.1884766,2.57714844 C41.4690755,2.57714844 42.4238281,2.97135417 43.0527344,3.75976562 Z M40.1816406,4.22460938 C39.6119792,4.22460938 39.1733398,4.42626953 38.8657227,4.82958984 C38.5581055,5.23291016 38.4042969,5.80826823 38.4042969,6.55566406 C38.4042969,7.3030599 38.5581055,7.87955729 38.8657227,8.28515625 C39.1733398,8.69075521 39.6119792,8.89355469 40.1816406,8.89355469 C40.7513021,8.89355469 41.1888021,8.69075521 41.4941406,8.28515625 C41.7994792,7.87955729 41.9521484,7.3030599 41.9521484,6.55566406 C41.9521484,5.80826823 41.7994792,5.23291016 41.4941406,4.82958984 C41.1888021,4.42626953 40.7513021,4.22460938 40.1816406,4.22460938 Z" id="Shape"></path>
            <path d="M53.7167969,6.64453125 L51.5771484,6.64453125 L51.5771484,10.2675781 L49.4853516,10.2675781 L49.4853516,0.19140625 L53.8740234,0.19140625 C54.8857422,0.19140625 55.6923828,0.451171875 56.2939453,0.970703125 C56.8955078,1.49023438 57.1962891,2.29459635 57.1962891,3.38378906 C57.1962891,4.57324219 56.8955078,5.4140625 56.2939453,5.90625 C55.6923828,6.3984375 54.8333333,6.64453125 53.7167969,6.64453125 Z M54.7011719,4.54589844 C54.9746094,4.30436198 55.1113281,3.92154948 55.1113281,3.39746094 C55.1113281,2.8733724 54.9734701,2.49967448 54.6977539,2.27636719 C54.4220378,2.0530599 54.0358073,1.94140625 53.5390625,1.94140625 L51.5771484,1.94140625 L51.5771484,4.90820312 L53.5390625,4.90820312 C54.0358073,4.90820312 54.4231771,4.7874349 54.7011719,4.54589844 Z" id="Shape"></path>
            <path d="M58.8984375,3.62304688 C59.4134115,2.96679688 60.297526,2.63867188 61.5507812,2.63867188 C62.3665365,2.63867188 63.0911458,2.80045573 63.7246094,3.12402344 C64.3580729,3.44759115 64.6748047,4.05826823 64.6748047,4.95605469 L64.6748047,8.37402344 C64.6748047,8.6110026 64.679362,8.89811198 64.6884766,9.23535156 C64.7021484,9.4905599 64.7408854,9.66373698 64.8046875,9.75488281 C64.8684896,9.84602865 64.9641927,9.92122396 65.0917969,9.98046875 L65.0917969,10.2675781 L62.9726562,10.2675781 C62.9134115,10.1171875 62.8723958,9.97591146 62.8496094,9.84375 C62.8268229,9.71158854 62.8085938,9.56119792 62.7949219,9.39257812 C62.5260417,9.68424479 62.2161458,9.93261719 61.8652344,10.1376953 C61.4459635,10.3792318 60.9720052,10.5 60.4433594,10.5 C59.7688802,10.5 59.2117513,10.3074544 58.7719727,9.92236328 C58.332194,9.53727214 58.1123047,8.99153646 58.1123047,8.28515625 C58.1123047,7.36914062 58.4654948,6.70605469 59.171875,6.29589844 C59.5592448,6.07259115 60.1289062,5.91308594 60.8808594,5.81738281 L61.5439453,5.73535156 C61.9039714,5.68977865 62.1614583,5.6328125 62.3164062,5.56445312 C62.594401,5.44596354 62.7333984,5.26139323 62.7333984,5.01074219 C62.7333984,4.70540365 62.6274414,4.49462891 62.4155273,4.37841797 C62.2036133,4.26220703 61.8925781,4.20410156 61.4824219,4.20410156 C61.0221354,4.20410156 60.6962891,4.31803385 60.5048828,4.54589844 C60.3681641,4.71451823 60.2770182,4.94238281 60.2314453,5.22949219 L58.3515625,5.22949219 C58.3925781,4.57779948 58.5748698,4.04231771 58.8984375,3.62304688 Z M60.3476562,8.859375 C60.5299479,9.00976562 60.7532552,9.08496094 61.0175781,9.08496094 C61.436849,9.08496094 61.8230794,8.96191406 62.1762695,8.71582031 C62.5294596,8.46972656 62.7128906,8.02083333 62.7265625,7.36914062 L62.7265625,6.64453125 C62.6035156,6.72200521 62.4793294,6.78466797 62.3540039,6.83251953 C62.2286784,6.88037109 62.0566406,6.92480469 61.8378906,6.96582031 L61.4003906,7.04785156 C60.9902344,7.12076823 60.6962891,7.20963542 60.5185547,7.31445312 C60.2177734,7.4921875 60.0673828,7.76790365 60.0673828,8.14160156 C60.0673828,8.47428385 60.1608073,8.71354167 60.3476562,8.859375 Z" id="Shape"></path>
            <path d="M69.4326172,8.3125 L70.9707031,2.81640625 L73.0419922,2.81640625 L70.4853516,10.1445312 C69.9931641,11.5572917 69.6035156,12.433431 69.3164062,12.7729492 C69.0292969,13.1124674 68.4550781,13.2822266 67.59375,13.2822266 C67.4205729,13.2822266 67.2815755,13.2810872 67.1767578,13.2788086 C67.0719401,13.2765299 66.9147135,13.2685547 66.7050781,13.2548828 L66.7050781,11.6962891 L66.9511719,11.7099609 C67.1425781,11.7190755 67.3248698,11.7122396 67.4980469,11.6894531 C67.671224,11.6666667 67.8170573,11.6142578 67.9355469,11.5322266 C68.0494792,11.4547526 68.1554362,11.2929688 68.253418,11.046875 C68.3513997,10.8007812 68.391276,10.6503906 68.3730469,10.5957031 L65.6386719,2.81640625 L67.8056641,2.81640625 L69.4326172,8.3125 Z" id="Path"></path>
            <path d="M78.3740234,4.8671875 C78.2099609,4.50716146 77.8886719,4.32714844 77.4101562,4.32714844 C76.8541667,4.32714844 76.4804688,4.50716146 76.2890625,4.8671875 C76.1842448,5.07226562 76.1318359,5.37760417 76.1318359,5.78320312 L76.1318359,10.2675781 L74.15625,10.2675781 L74.15625,2.83007812 L76.0498047,2.83007812 L76.0498047,3.91699219 C76.2913411,3.5296224 76.5192057,3.25390625 76.7333984,3.08984375 C77.1116536,2.79817708 77.6015625,2.65234375 78.203125,2.65234375 C78.7727865,2.65234375 79.2330729,2.77766927 79.5839844,3.02832031 C79.8665365,3.26074219 80.0807292,3.55924479 80.2265625,3.92382812 C80.4817708,3.48632812 80.7985026,3.16503906 81.1767578,2.95996094 C81.5777995,2.75488281 82.0244141,2.65234375 82.5166016,2.65234375 C82.8447266,2.65234375 83.1682943,2.71614583 83.4873047,2.84375 C83.8063151,2.97135417 84.0957031,3.19466146 84.3554688,3.51367188 C84.5651042,3.7734375 84.7063802,4.09244792 84.7792969,4.47070312 C84.8248698,4.72135417 84.8476562,5.08821615 84.8476562,5.57128906 L84.8339844,10.2675781 L82.8378906,10.2675781 L82.8378906,5.5234375 C82.8378906,5.24088542 82.7923177,5.00846354 82.7011719,4.82617188 C82.5279948,4.47981771 82.2089844,4.30664062 81.7441406,4.30664062 C81.2063802,4.30664062 80.8349609,4.52994792 80.6298828,4.9765625 C80.5250651,5.21354167 80.4726562,5.4983724 80.4726562,5.83105469 L80.4726562,10.2675781 L78.5107422,10.2675781 L78.5107422,5.83105469 C78.5107422,5.3889974 78.4651693,5.06770833 78.3740234,4.8671875 Z" id="Path"></path>
            <path d="M93.0166016,8.08007812 C92.9664714,8.52213542 92.7363281,8.97102865 92.3261719,9.42675781 C91.688151,10.1513672 90.7949219,10.5136719 89.6464844,10.5136719 C88.6985677,10.5136719 87.8623047,10.2083333 87.1376953,9.59765625 C86.4130859,8.98697917 86.0507812,7.99348958 86.0507812,6.6171875 C86.0507812,5.32747396 86.3777669,4.33854167 87.0317383,3.65039062 C87.6857096,2.96223958 88.5345052,2.61816406 89.578125,2.61816406 C90.1979167,2.61816406 90.7561849,2.734375 91.2529297,2.96679688 C91.7496745,3.19921875 92.1598307,3.56608073 92.4833984,4.06738281 C92.7750651,4.5094401 92.9641927,5.02213542 93.0507812,5.60546875 C93.1009115,5.94726562 93.1214193,6.43945312 93.1123047,7.08203125 L88.0126953,7.08203125 C88.0400391,7.82942708 88.2747396,8.35351562 88.7167969,8.65429688 C88.9856771,8.84114583 89.3092448,8.93457031 89.6875,8.93457031 C90.0885417,8.93457031 90.414388,8.82063802 90.6650391,8.59277344 C90.8017578,8.46972656 90.922526,8.29882812 91.0273438,8.08007812 L93.0166016,8.08007812 Z M91.0888672,5.796875 C91.0569661,5.28190104 90.9008789,4.89111328 90.6206055,4.62451172 C90.340332,4.35791016 89.9928385,4.22460938 89.578125,4.22460938 C89.1269531,4.22460938 88.777181,4.36588542 88.5288086,4.6484375 C88.2804362,4.93098958 88.124349,5.31380208 88.0605469,5.796875 L91.0888672,5.796875 Z" id="Shape"></path>
            <path d="M97.9316406,4.25878906 C97.2708333,4.25878906 96.8173828,4.5390625 96.5712891,5.09960938 C96.4436849,5.39583333 96.3798828,5.77408854 96.3798828,6.234375 L96.3798828,10.2675781 L94.4384766,10.2675781 L94.4384766,2.83007812 L96.3183594,2.83007812 L96.3183594,3.91699219 C96.5690104,3.53417969 96.8059896,3.25846354 97.0292969,3.08984375 C97.4303385,2.7890625 97.9384766,2.63867188 98.5537109,2.63867188 C99.3238932,2.63867188 99.9539388,2.84033203 100.443848,3.24365234 C100.933757,3.64697266 101.178711,4.31575521 101.178711,5.25 L101.178711,10.2675781 L99.1826172,10.2675781 L99.1826172,5.73535156 C99.1826172,5.34342448 99.1302083,5.04264323 99.0253906,4.83300781 C98.8339844,4.45019531 98.469401,4.25878906 97.9316406,4.25878906 Z" id="Path"></path>
            <path d="M106.387695,8.87988281 L106.387695,10.3359375 L105.464844,10.3701172 C104.544271,10.4020182 103.915365,10.242513 103.578125,9.89160156 C103.359375,9.66829427 103.25,9.32421875 103.25,8.859375 L103.25,4.27246094 L102.210938,4.27246094 L102.210938,2.88476562 L103.25,2.88476562 L103.25,0.806640625 L105.177734,0.806640625 L105.177734,2.88476562 L106.387695,2.88476562 L106.387695,4.27246094 L105.177734,4.27246094 L105.177734,8.20996094 C105.177734,8.51529948 105.216471,8.70556641 105.293945,8.78076172 C105.371419,8.85595703 105.608398,8.89355469 106.004883,8.89355469 C106.064128,8.89355469 106.12679,8.89241536 106.192871,8.89013672 C106.258952,8.88785807 106.323893,8.8844401 106.387695,8.87988281 Z" id="Path"></path>
            <path d="M112.772461,3.15820312 C113.355794,3.53190104 113.690755,4.17447917 113.777344,5.0859375 L111.829102,5.0859375 C111.801758,4.83528646 111.73112,4.63704427 111.617188,4.49121094 C111.402995,4.22688802 111.038411,4.09472656 110.523438,4.09472656 C110.099609,4.09472656 109.797689,4.16080729 109.617676,4.29296875 C109.437663,4.42513021 109.347656,4.58007812 109.347656,4.7578125 C109.347656,4.98111979 109.443359,5.14290365 109.634766,5.24316406 C109.826172,5.34798177 110.50293,5.52799479 111.665039,5.78320312 C112.439779,5.96549479 113.020833,6.24121094 113.408203,6.61035156 C113.791016,6.98404948 113.982422,7.45117188 113.982422,8.01171875 C113.982422,8.75 113.707845,9.35270182 113.158691,9.81982422 C112.609538,10.2869466 111.760742,10.5205078 110.612305,10.5205078 C109.441081,10.5205078 108.576335,10.2732747 108.018066,9.77880859 C107.459798,9.28434245 107.180664,8.65429688 107.180664,7.88867188 L109.15625,7.88867188 C109.197266,8.23502604 109.286133,8.48111979 109.422852,8.62695312 C109.664388,8.88671875 110.111003,9.01660156 110.762695,9.01660156 C111.145508,9.01660156 111.449707,8.95963542 111.675293,8.84570312 C111.900879,8.73177083 112.013672,8.5608724 112.013672,8.33300781 C112.013672,8.11425781 111.922526,7.94791667 111.740234,7.83398438 C111.557943,7.72005208 110.881185,7.52408854 109.709961,7.24609375 C108.866862,7.03645833 108.272135,6.77441406 107.925781,6.45996094 C107.579427,6.1500651 107.40625,5.70345052 107.40625,5.12011719 C107.40625,4.43196615 107.67627,3.84065755 108.216309,3.34619141 C108.756348,2.85172526 109.516276,2.60449219 110.496094,2.60449219 C111.425781,2.60449219 112.18457,2.7890625 112.772461,3.15820312 Z" id="Path"></path>
        </g>
    </g>
</svg>