<?xml version="1.0" encoding="UTF-8"?>
<svg width="24px" height="24px" viewBox="0 0 24 24" version="1.1" xmlns="http://www.w3.org/2000/svg" xmlns:xlink="http://www.w3.org/1999/xlink">
    <title>social-medium</title>
    <g id="social-medium" stroke="none" stroke-width="1" fill="none" fill-rule="evenodd">
        <path d="M22.084375,4.23273322 L24,2.40114566 L24,2 L17.365625,2 L12.6375,13.7669394 L7.259375,2 L0.303125,2 L0.303125,2.40114566 L2.540625,5.09410802 C2.759375,5.29312602 2.871875,5.58543372 2.84375,5.87774141 L2.84375,16.4599018 C2.9125,16.8423895 2.790625,17.2310966 2.521875,17.507856 L0,20.5646481 L0,20.9595745 L7.14375,20.9595745 L7.14375,20.5584288 L4.625,17.5109656 C4.353125,17.2342062 4.221875,16.8486088 4.278125,16.4630115 L4.278125,7.30818331 L10.55,20.9657938 L11.278125,20.9657938 L16.671875,7.30818331 L16.671875,18.1888707 C16.671875,18.4749591 16.671875,18.5340426 16.484375,18.7237316 L14.54375,20.5988543 L14.54375,21 L23.95625,21 L23.95625,20.5988543 L22.084375,18.7672668 C21.921875,18.6428805 21.8375,18.4345336 21.871875,18.2324059 L21.871875,4.76759411 C21.8375,4.56546645 21.921875,4.35711948 22.084375,4.23273322 L22.084375,4.23273322 Z" id="Path" fill="#FFFFFF" fill-rule="nonzero"></path>
    </g>
</svg>