<?xml version="1.0" encoding="UTF-8"?>
<svg width="24px" height="24px" viewBox="0 0 24 24" version="1.1" xmlns="http://www.w3.org/2000/svg" xmlns:xlink="http://www.w3.org/1999/xlink">
    <title>social-github</title>
    <g id="social-github" stroke="none" stroke-width="1" fill="none" fill-rule="evenodd">
        <path d="M24,11.7877963 C24,14.3562261 23.2367939,16.6659792 21.7103816,18.7170558 C20.1839694,20.7681323 18.2129645,22.1879069 15.7973671,22.9763795 C15.5160807,23.0274599 15.310115,22.9914416 15.1794701,22.8683247 C15.0488252,22.7452077 14.9835028,22.5919663 14.9835028,22.4086006 L14.9835028,19.1708859 C14.9835028,18.1780915 14.7128812,17.4518323 14.1716381,16.9921082 C14.7648725,16.9305497 15.2987836,16.838212 15.7733711,16.715095 C16.2479587,16.591978 16.7372105,16.3922404 17.2411265,16.1158821 C17.7450425,15.8395237 18.1669722,15.4989874 18.5069156,15.094273 C18.8468589,14.6895587 19.1228129,14.1525591 19.3347776,13.4832742 C19.5467422,12.8139894 19.6533911,12.0438534 19.6547242,11.1728662 C19.6547242,9.93514757 19.2434595,8.88144957 18.4209299,8.01177216 C18.806199,7.08053627 18.7648726,6.03666143 18.2969505,4.88014765 C18.0049992,4.78846479 17.5830695,4.84478426 17.0311615,5.04910607 C16.4792535,5.25342787 16,5.47870576 15.5934011,5.72493972 L14.9995001,6.09232603 C14.0303283,5.82644573 13.030495,5.69350559 12,5.69350559 C10.9695051,5.69350559 9.96967176,5.82644573 9.00049996,6.09232603 C8.83386107,5.97968708 8.61256462,5.84150791 8.3366106,5.67778852 C8.06065658,5.51406913 7.62606235,5.31695099 7.0328279,5.08643408 C6.43959345,4.85591717 5.99166811,4.78715503 5.68905187,4.88014765 C5.23046163,6.03666143 5.19380108,7.08053627 5.5790702,8.01177216 C4.75654062,8.88144957 4.34527584,9.93514757 4.34527584,11.1728662 C4.34527584,12.0425436 4.45192473,12.8100601 4.66522251,13.4754157 C4.87852029,14.1407713 5.15180807,14.6777709 5.48508585,15.0864145 C5.81836363,15.4950581 6.23762708,15.8375591 6.74287621,16.1139174 C7.24812533,16.3902758 7.73737712,16.5900134 8.21063157,16.7131304 C8.68388602,16.8362474 9.21779704,16.9285851 9.81236462,16.9901436 C9.39643395,17.3581848 9.14114317,17.8853612 9.04649228,18.5716729 C8.82786204,18.6738338 8.59323448,18.7504545 8.34260959,18.8015349 C8.09198469,18.8526154 7.79536747,18.8781556 7.45275791,18.8781556 C7.11014835,18.8781556 6.7688719,18.7681362 6.42892855,18.5480973 C6.0889852,18.3280584 5.79970008,18.0084782 5.56107319,17.5893566 C5.36377274,17.2619178 5.11114818,16.9960375 4.80319951,16.7917157 C4.49525083,16.5873939 4.23729382,16.4649318 4.02932848,16.4243294 L3.71738046,16.3791428 C3.49875023,16.3791428 3.34744211,16.4020635 3.26345611,16.447905 C3.17947011,16.4937464 3.15347444,16.5526854 3.18546912,16.6247219 C3.21746379,16.6967584 3.26412268,16.7681401 3.32544579,16.8388668 C3.38676889,16.9095936 3.45475756,16.9711521 3.52941178,17.0235423 L3.63939345,17.100163 C3.86868856,17.2023239 4.09531745,17.3968225 4.31928012,17.6836589 C4.54324279,17.9704953 4.70721546,18.2311366 4.81119813,18.4655827 L4.96717214,18.8192166 C5.10314947,19.2082139 5.33244459,19.5225551 5.65505749,19.7622403 C5.9776704,20.0019255 6.32627896,20.1551668 6.70088318,20.2219644 C7.07548739,20.2887619 7.43742707,20.3247802 7.78670219,20.3300192 C8.13597732,20.3352581 8.42526244,20.3175765 8.65455755,20.2769741 L9.01449755,20.2160704 C9.01449755,20.6050677 9.01716377,21.0602076 9.0224962,21.5814902 C9.02782864,22.1027727 9.03049486,22.3791311 9.03049486,22.4105652 C9.03049486,22.5952407 8.96250619,22.748482 8.82652886,22.8702892 C8.69055154,22.9920965 8.4825862,23.0281147 8.20263286,22.978344 C5.78703547,22.1898715 3.81603064,20.7700969 2.28961838,18.7190204 C0.763206107,16.6679438 0,14.3581907 0,11.7897608 C0,9.6509307 0.536577235,7.67843947 1.6097317,5.87228714 C2.68288617,4.06613481 4.13864354,2.6358822 5.97700381,1.58152932 C7.81536407,0.527176441 9.82302946,0 12,0 C14.1769705,0 16.1846358,0.527176441 18.0229961,1.58152932 C19.8613564,2.6358822 21.3171137,4.06613481 22.3902682,5.87228714 C23.4634227,7.67843947 24,9.6509307 24,11.7897608 L24,11.7877963 Z" id="Path" fill="#FFFFFF" fill-rule="nonzero"></path>
    </g>
</svg>