<?xml version="1.0" encoding="UTF-8"?>
<svg width="24px" height="24px" viewBox="0 0 24 24" version="1.1" xmlns="http://www.w3.org/2000/svg" xmlns:xlink="http://www.w3.org/1999/xlink">
    <title>social-instagram</title>
    <g id="social-instagram" stroke="none" stroke-width="1" fill="none" fill-rule="evenodd">
        <rect fill="#1B1E22" x="0" y="0" width="24" height="24"></rect>
        <path d="M12.9910039,7.63761781e-05 C14.3112953,-0.000788191873 15.62736,0.00449527955 16.9530311,0.0789441951 C18.8742934,0.172005339 20.5764117,0.607291337 21.9843368,2.01521639 C23.3892599,3.42013948 23.8275478,5.1252598 23.920609,7.04652214 C24.0136701,8.70060893 23.9986603,10.3426878 23.9986603,11.9997766 C23.9986603,13.6568654 24.0166721,15.2989443 23.920609,16.9530311 C23.8275478,18.8742934 23.3922619,20.5764117 21.9843368,21.9843368 C20.5794137,23.3892599 18.8742934,23.8275478 16.9530311,23.920609 C15.2989443,24.0136701 13.6568654,23.9986603 11.9997766,23.9986603 C10.3456898,23.9986603 8.7036109,24.0136701 7.04652214,23.920609 C5.1252598,23.8275478 3.42314145,23.3922619 2.01521639,21.9843368 C0.61029331,20.5794137 0.172005339,18.8742934 0.0789441951,16.9530311 C-0.0141169493,15.2989443 0.000892912671,13.6538634 0.000892912671,11.9997766 L7.63761782e-05,11.0085493 C-0.000788191873,9.68825785 0.00449527955,8.37219315 0.0789441951,7.04652214 C0.172005339,5.1252598 0.607291337,3.42314145 2.01521639,2.01521639 C3.42013948,0.61029331 5.1252598,0.172005339 7.04652214,0.0789441951 C8.70060893,-0.0141169493 10.3426878,0.000892912671 11.9997766,0.000892912671 Z M11.9967746,5.8427312 C8.58953595,5.8427312 5.83972923,8.59253792 5.83972923,11.9997766 C5.83972923,15.4070153 8.58953595,18.156822 11.9967746,18.156822 C15.4040133,18.156822 18.15382,15.4070153 18.15382,11.9997766 C18.15382,8.59253792 15.4040133,5.8427312 11.9967746,5.8427312 Z M11.9967746,7.99814739 C14.2002224,7.99814739 15.9984038,9.79632885 15.9984038,11.9997766 C15.9984038,14.2032243 14.2002224,16.0014058 11.9967746,16.0014058 C9.79332688,16.0014058 7.99514541,14.2032243 7.99514541,11.9997766 C7.99514541,9.79632885 9.79332688,7.99814739 11.9967746,7.99814739 Z M18.4059857,4.15262074 C17.610463,4.15262074 16.9680409,4.79504284 16.9680409,5.59056552 C16.9680409,6.38608821 17.610463,7.0285103 18.4059857,7.0285103 C19.2015084,7.0285103 19.8409285,6.38909018 19.8439305,5.59056552 C19.8439305,4.79504284 19.2015084,4.15262074 18.4059857,4.15262074 Z" id="Combined-Shape" fill="#FFFFFF" fill-rule="nonzero"></path>
    </g>
</svg>