<?xml version="1.0" encoding="UTF-8"?>
<svg width="24px" height="24px" viewBox="0 0 24 24" version="1.1" xmlns="http://www.w3.org/2000/svg" xmlns:xlink="http://www.w3.org/1999/xlink">
    <title>social-medium</title>
    <g id="social-medium" stroke="none" stroke-width="1" fill="none" fill-rule="evenodd">
        <path d="M6.76875,5 C3.0304875,5 0,8.0514125 0,11.815175 C0,15.5789375 3.0307125,18.63035 6.76875,18.63035 C10.5067875,18.63035 13.5375,15.5791625 13.5375,11.815175 C13.5375,8.0511875 10.5071625,5 6.76875,5 Z M17.578125,5.399225 C15.7089375,5.399225 14.1939375,8.2724375 14.1939375,11.8152875 C14.1939375,15.3581375 15.7091625,18.2315375 17.57835,18.2315375 C19.4475375,18.2315375 20.9627625,15.358325 20.9627625,11.8152875 L20.9625,11.8152875 C20.9625,8.271425 19.4475,5.399225 17.5782,5.399225 L17.578125,5.399225 Z M22.8096,6.0675125 C22.152375,6.0675125 21.6195375,8.6410625 21.6195375,11.8152875 C21.6195375,14.9895125 22.1520375,17.5630625 22.8096,17.5630625 C23.4671625,17.5630625 24,14.9888375 24,11.815175 C24,8.6408375 23.4669375,6.0675125 22.809675,6.0675125 L22.8096,6.0675125 Z" id="Shape" fill="#FFFFFF" fill-rule="nonzero"></path>
    </g>
</svg>