<?xml version="1.0" encoding="UTF-8"?>
<svg width="24px" height="24px" viewBox="0 0 24 24" version="1.1" xmlns="http://www.w3.org/2000/svg" xmlns:xlink="http://www.w3.org/1999/xlink">
    <title>social-email</title>
    <g id="social-email" stroke="none" stroke-width="1" fill="none" fill-rule="evenodd">
        <path d="M0,6.54900056 L11.463,13.8439998 C11.6235228,13.9460085 11.8098072,14.0001247 12,13.9999998 C12.1901693,13.999959 12.3764084,13.945856 12.537,13.8439998 L24,6.55900056 L24,20.0069992 C23.9961414,21.1096149 23.100622,22.0011083 21.998,22 L2.002,22 C0.899378005,22.0011083 0.00385862085,21.1096149 0,20.0069992 L0,6.54900056 Z M21.998,2 C23.1010111,1.99889306 23.9966915,2.89099427 24,3.99400083 L24,4.1890008 L12,11.815 L0,4.14700081 L0,3.99400083 C0.00330847841,2.89099427 0.898988928,1.99889306 2.002,2 Z" id="Combined-Shape" fill="#FFFFFF" fill-rule="nonzero"></path>
    </g>
</svg>